<?xml version="1.0" standalone="no"?>
<!DOCTYPE svg PUBLIC "-//W3C//DTD SVG 1.1//EN" "http://www.w3.org/Graphics/SVG/1.1/DTD/svg11.dtd" >
<svg xmlns="http://www.w3.org/2000/svg">
<metadata>
Created by FontPrep 20130207 at Mon Jun 17 15:12:20 2013
 By Tobias Treppmann
Copyright (c) 2011 by Anna Giedrys (http://ancymonic.com), with Reserved Font Names "Signika".
</metadata>
<defs>
<font id="f7b75e7af5d9085af55109d26ab7faea" >
  <font-face 
    font-family="Signika-Regular"
    font-weight="400"
    font-stretch="normal"
    units-per-em="2048"
    panose-1="2 1 0 3 2 6 0 0 0 4"
    ascent="1638"
    descent="-410"
    x-height="1012"
    cap-height="1407"
    bbox="-258 -539 1964 1847"
    underline-thickness="102"
    underline-position="-205"
    unicode-range="U+000D-20AC"
  />
<missing-glyph horiz-adv-x="0" 
 />
    <glyph glyph-name=".notdef" horiz-adv-x="0" 
 />
    <glyph glyph-name=".null" horiz-adv-x="0" 
 />
    <glyph glyph-name="nonmarkingreturn" horiz-adv-x="681" 
 />
    <glyph glyph-name="CR.001" unicode="&#xd;" horiz-adv-x="380" 
 />
    <glyph glyph-name="space" unicode=" " horiz-adv-x="450" 
 />
    <glyph glyph-name="exclam" unicode="!" horiz-adv-x="589" 
d="M389.5 -1.5q-36.5 -16.5 -82.5 -16.5q-76 0 -112.5 15t-36.5 94t18 108q64 42 131.5 29t93 -23t25.5 -100t-36.5 -106.5zM291 387q-55 0 -82 10l-25 955q82 61 226 61l14 -14l-51 -1002q-27 -10 -82 -10z" />
    <glyph glyph-name="quotedbl" unicode="&#x22;" horiz-adv-x="798" 
d="M214 1565q58 0 105 -27q18 -70 14.5 -105.5t-23.5 -132.5t-40 -260q-17 -10 -56 -10t-56 10q-23 170 -43.5 277.5t-20 136.5t14.5 84q47 27 105 27zM584 1565q58 0 106 -27q14 -55 14 -84t-20 -130q-21 -101 -43 -284q-18 -10 -56 -10t-57 10q-23 170 -43 277.5
t-20 136.5t14 84q47 27 105 27z" />
    <glyph glyph-name="numbersign" unicode="#" horiz-adv-x="1320" 
d="M580 844l-78 -352h256l80 352h-258zM1037.5 1323q60.5 0 95.5 -14l-66 -289h201q12 -37 12 -89t-12 -87h-240l-78 -352h219q14 -35 14.5 -87.5t-14.5 -87.5h-258l-65 -290q-35 -14 -96.5 -14.5t-96.5 14.5l66 290h-256l-66 -290q-33 -14 -96 -14.5t-96 14.5l65 290h-209
q-14 35 -14 87.5t14 87.5h248l80 352h-231q-12 35 -12.5 87t12.5 89h270l66 289q35 14 95 14t95 -14l-66 -289h259l65 289q35 14 95.5 14z" />
    <glyph glyph-name="dollar" unicode="$" horiz-adv-x="1021" 
d="M512 1069q-82 0 -131 -36t-49 -90t33.5 -83t107.5 -53l199 -74q270 -103 270 -285t-97 -270t-265 -102v-156q-37 -6 -88.5 -6t-81.5 6v160q-205 27 -342 121q2 43 26.5 93t57.5 71q207 -115 370 -115q86 0 142.5 36t56.5 101q0 106 -150 162l-204 74q-252 89 -252 299
q0 123 80.5 210t222.5 109v168q25 8 84 8t86 -8v-164q157 -15 319 -88q0 -102 -78 -168q-176 80 -317 80z" />
    <glyph glyph-name="percent" unicode="%" horiz-adv-x="1857" 
d="M1314 1409q66 0 103 -10l-770 -1399q-37 -10 -108 -10t-101 10l772 1399q38 10 104 10zM421 1284q-140 0 -140 -280t140 -279q140 -1 140 279t-140 280zM743 1013q0 -429 -238.5 -429t-322.5 101t-84 317t84 318.5t230 102.5t239 -92q92 -92 92 -318zM1437.5 114
q141.5 0 141.5 280t-141.5 280t-141.5 -280t141.5 -280zM1520.5 815.5q238.5 0.5 238.5 -429.5q0 -226 -92 -319q-92 -92 -229 -92q-324 0 -324 422q0 213 84 315.5t322.5 103z" />
    <glyph glyph-name="ampersand" unicode="&#x26;" horiz-adv-x="1275" 
d="M815 618q0 9 2 31h-196q-139 0 -216 -75t-77 -189q0 -115 58 -177.5t159 -62.5q152 0 270 97v376zM1038 0q-41 -12 -103 -12t-95 10l-17 84q-152 -109 -330 -109t-284.5 108.5t-106.5 263t75.5 259.5t195.5 146q-94 31 -152.5 115.5t-58.5 180.5q0 176 117.5 277.5
t316.5 101.5t371 -59q0 -104 -58 -168q-173 53 -287 53t-174.5 -55t-60.5 -153.5t62.5 -153.5t191.5 -55h377q123 0 194 30q29 -35 29 -102q0 -113 -154 -113h-65l2 -340q0 -69 14 -309z" />
    <glyph glyph-name="quotesingle" unicode="'" horiz-adv-x="432" 
d="M208 1565q58 0 105 -27q15 -55 15 -84t-21 -130t-43 -284q-18 -10 -57 -10t-55 10q-23 170 -43.5 277.5t-20.5 136.5t14 84q48 27 106 27z" />
    <glyph glyph-name="parenleft" unicode="(" horiz-adv-x="679" 
d="M356 664q0 -542 291 -918q-37 -86 -127 -115q-180 176 -286.5 466.5t-106.5 568t107 567.5t286 465q90 -29 127 -115q-291 -377 -291 -919z" />
    <glyph glyph-name="parenright" unicode=")" horiz-adv-x="679" 
d="M324 665q0 536 -291 918q37 86 127 115q178 -178 284.5 -466.5t106.5 -570t-108 -570.5t-283 -460q-90 29 -127 115q291 383 291 919z" />
    <glyph glyph-name="asterisk" unicode="*" horiz-adv-x="1032" 
d="M515 1511q58 0 93 -14l-2 -115q0 -78 -39 -229q139 82 209 107l109 34q23 -25 41 -80t16 -94l-111 -35q-78 -25 -231 -32q117 -96 168 -166l66 -90q-16 -31 -62.5 -66t-85.5 -43l-65 92q-53 76 -105 209q-51 -135 -104 -207l-66 -94q-37 10 -83 44t-66 65l67 90
q47 63 166 166q-152 8 -229 34l-109 33q-4 35 14.5 91.5t43.5 84.5l106 -36q70 -25 207 -109q-37 143 -37 231l-2 115q33 14 91 14z" />
    <glyph glyph-name="plus" unicode="+" 
d="M979 598q0 -53 -8 -88h-234l-100 2l2 -98v-254q-39 -8 -95.5 -8t-97.5 8v254l3 98l-101 -2h-233q-21 91 0 182h233l101 -2l-3 101v251q105 20 193 0v-251l-2 -101l100 2h234q8 -41 8 -94z" />
    <glyph glyph-name="comma" unicode="," horiz-adv-x="550" 
d="M426 78q0 -135 -78 -246t-225 -162q-55 27 -55 107q72 31 118.5 86t51.5 119q-39 10 -61.5 17t-31 34t-8.5 78q0 99 44 114t114 15q69 0 108 -27q23 -61 23 -135z" />
    <glyph glyph-name="hyphen" unicode="-" horiz-adv-x="716" 
d="M94 546q0 56 10 91h508q10 -37 10 -92t-10 -90h-508q-10 35 -10 91z" />
    <glyph glyph-name="period" unicode="." horiz-adv-x="538" 
d="M373.5 224q40.5 -18 40.5 -111t-32.5 -111t-90.5 -18q-87 0 -126.5 15.5t-39.5 96.5q0 82 18 117q51 29 120 29q70 0 110.5 -18z" />
    <glyph glyph-name="slash" unicode="/" horiz-adv-x="864" 
d="M14 -158l648 1717q102 -6 184 -68l-647 -1718q-103 6 -185 69z" />
    <glyph glyph-name="zero" unicode="0" 
d="M768 728.5q0 356.5 -83 407t-173 50.5t-142.5 -115.5t-52.5 -435.5t78 -422q47 -72 157 -72t163 115.5t53 472zM543 -27q-461 0 -449 691q0 326 53.5 425t96.5 146q119 119 299 119q223 0 335.5 -163t112.5 -526t-109.5 -527.5t-338.5 -164.5z" />
    <glyph glyph-name="one" unicode="1" 
d="M496 780q0 33 10 248q-115 -141 -295 -221q-74 41 -90 127q287 178 383 393q43 10 99 10t102 -10v-1014l-3 -137l121 2h142q8 -39 8 -89t-8 -89h-772q-19 96 0 178h188l117 -2l-2 137v467z" />
    <glyph glyph-name="two" unicode="2" 
d="M596 186h377q0 -88 -26.5 -137t-115.5 -49h-636q-84 74 -84 133q0 164 256 389l200 176q154 134 154 277q0 92 -55.5 147.5t-141.5 55.5t-148.5 -54.5t-96.5 -140.5q-43 2 -88.5 21.5t-65.5 50.5q76 207 212 253t219 46q164 0 274 -106.5t110 -260.5q0 -202 -97.5 -296.5
t-158.5 -147.5l-158 -135q-180 -156 -200 -238q160 16 270 16z" />
    <glyph glyph-name="three" unicode="3" 
d="M973 356q0 -146 -139 -264.5t-326 -118.5q-250 0 -410 136q23 86 95 141q139 -102 273 -102t210 70.5t76 192.5t-62.5 186.5t-152.5 64.5t-156 -35q-57 27 -86 114l256 279q104 104 139 133l-6 10q-80 -20 -238 -20h-288q-32 87 6 184h715q45 -84 45 -132t-43 -97
l-215 -230q-34 -34 -74 -63q264 -6 322.5 -154.5t58.5 -294.5z" />
    <glyph glyph-name="four" unicode="4" 
d="M699.5 -8q-58.5 0 -101.5 8v174l2 111l-111 -4h-362q-49 80 -49 117.5t41 140.5l346 800q45 10 107.5 -1t91.5 -38l-236 -544q-90 -209 -143 -297l6 -8q129 10 233 10h76q-2 23 -2 65v160q0 76 37 120t102 44h58l10 -10v-271l-2 -108l94 2h109q6 -43 6 -89t-15 -91h-100
l-94 2l2 -111v-174q-47 -8 -105.5 -8z" />
    <glyph glyph-name="five" unicode="5" 
d="M494 713q-127 0 -230 -88q-29 4 -58.5 25.5t-43.5 45.5l28 617l15 14h694q14 -41 14 -88q0 -94 -94 -94h-432v-103l-14 -196q88 37 180 37q190 0 303 -114t113 -325t-136 -341t-353 -130q-216 0 -365 131q6 35 32.5 77t57.5 65q144 -99 268 -99q125 0 200 79t75 216
q0 199 -100.5 235t-153.5 36z" />
    <glyph glyph-name="six" unicode="6" 
d="M326 561q0 -424 239 -424q98 0 154.5 78t56.5 213q0 281 -209 281q-133 0 -241 -115v-33zM102 694q0 136 35 262.5t137 262t357 135.5q180 0 295 -66q-10 -104 -76 -149q-98 45 -207 45q-156 0 -233.5 -111.5t-83.5 -302.5q125 117 298 117t271 -110.5t98 -325.5
t-121 -346.5t-317 -131.5t-309 131q-73 92 -100 188.5t-35.5 181t-8.5 220.5z" />
    <glyph glyph-name="seven" unicode="7" 
d="M991 1200q0 -49 -33 -94l-69 -100q-156 -229 -240 -443.5t-112 -488.5l-7 -74q-47 -10 -106 -10t-115 10l8 84q49 483 334 893l23 33q41 63 114 143l-8 8q-84 -18 -311 -18h-336q-10 37 -10 86t18 98h811q39 -78 39 -127z" />
    <glyph glyph-name="eight" unicode="8" 
d="M338 1006q0 -156 237 -222l25 -10q145 84 145 230q0 88 -58 140t-145 52t-145.5 -52t-58.5 -138zM307 350q0 -104 65.5 -163.5t167.5 -59.5t168 62.5t66 162.5q0 184 -254 260l-35 13h-4q-174 -98 -174 -275zM90 350q0 102 67.5 193.5t172.5 146.5q-205 111 -205 314
q0 154 123 252t300.5 98t292.5 -98t115 -244q0 -98 -55 -175t-143 -124q236 -127 235 -363q0 -170 -134 -273.5t-331.5 -103.5t-317.5 97t-120 280z" />
    <glyph glyph-name="nine" unicode="9" 
d="M760 766q0 424 -242 424q-98 0 -153.5 -78t-55.5 -213q0 -281 209 -281q129 0 242 113v35zM983 632q0 -136 -35 -262t-137.5 -261.5t-355.5 -135.5q-180 0 -295 66q10 104 76 149q98 -45 206 -45q156 0 234 111t84 301q-131 -115 -301 -115t-268.5 111t-98.5 327t123 346
t318 130q194 0 307 -131q109 -139 126 -297t17 -294z" />
    <glyph glyph-name="colon" unicode=":" horiz-adv-x="550" 
d="M388.5 675q-31.5 -18 -89.5 -18q-84 0 -125.5 15t-41.5 98q0 82 18 117q79 43 147 30.5t95.5 -24.5t27.5 -106t-31.5 -112zM380 224.5q40 -17.5 40 -112.5t-34 -111.5t-90 -16.5q-84 0 -124 14.5t-40 97.5q0 82 18 117q53 29 121 29q69 0 109 -17.5z" />
    <glyph glyph-name="semicolon" unicode=";" horiz-adv-x="559" 
d="M395 681.5q-29 -24.5 -90 -24.5q-108 0 -138.5 22.5t-30.5 97.5t18 110q68 39 156 29t101 -47.5t13 -100.5q0 -62 -29 -86.5zM424 78q0 -135 -78 -246t-225 -162q-55 27 -55 107q72 31 118.5 86t51.5 119q-39 10 -60.5 17t-31 37t-9.5 78q0 95 42.5 110.5t113.5 15.5
t110 -27q23 -61 23 -135z" />
    <glyph glyph-name="less" unicode="&#x3c;" 
d="M111 684l755 414q88 -53 99 -166l-486 -256l-151 -70v-12l151 -70l486 -256q-4 -51 -33 -97t-66 -71l-755 414q-27 96 0 170z" />
    <glyph glyph-name="equal" unicode="=" 
d="M979 799q0 -53 -8 -88h-856q-20 89 0 182h856q8 -41 8 -94zM979 406.5q0 -52.5 -8 -91.5h-856q-20 97 0 183h856q8 -39 8 -91.5z" />
    <glyph glyph-name="greater" unicode="&#x3e;" 
d="M975 516l-756 -414q-88 53 -98 168l485 254q37 20 152 70v14q-115 49 -152 70l-485 256q4 51 32.5 97t65.5 71l756 -416q27 -94 0 -170z" />
    <glyph glyph-name="question" unicode="?" horiz-adv-x="811" 
d="M372.5 -14.5q-63.5 -24.5 -134 -0.5t-70.5 101q0 76 18 111q64 42 130.5 29t87 -22t26.5 -34t6 -92.5t-63.5 -92zM356 1237q-108 0 -256 -74q-29 25 -52 70t-25 88q186 104 376.5 104t292 -94.5t100.5 -236.5t-65.5 -243t-200.5 -173l-129 -70l-16 -209q-37 -12 -81 -12
t-81 12l-12 306l18 22l99 51q243 124 243 239.5t-51.5 167.5t-159.5 52z" />
    <glyph glyph-name="at" unicode="@" horiz-adv-x="1943" 
d="M952 176q51 0 107.5 35t95.5 86v473q-61 61 -162 61q-146 0 -176.5 -141t-30.5 -221q0 -293 166 -293zM1649 562q0 179 -46.5 295t-175.5 244t-428 128q-300 0 -492 -218.5t-192 -546.5t166 -506.5t447 -178.5q233 0 415 76q55 -59 56 -150q-236 -90 -451 -90
q-402 0 -624 224t-222 620q0 201 68 370.5t187.5 293.5t283.5 193.5t355 69.5q386 0 624 -216t238 -576q0 -256 -120.5 -416t-294.5 -160q-173 0 -251 127q-127 -135 -282 -135t-241.5 123t-86.5 343t112.5 364.5t312.5 144.5q199 0 351 -141l-2 -522q0 -141 88 -141.5
t146.5 101t58.5 280.5z" />
    <glyph glyph-name="A" unicode="A" horiz-adv-x="1251" 
d="M412 516l104 2h205q84 -2 102 -2l-94 297q-72 229 -108 371h-11q-25 -113 -80 -297zM155.5 -10q-57.5 0 -108.5 14l-6 10l463 1385q43 8 125 8t123 -8l458 -1385q-43 -29 -110.5 -28.5t-96 25t-49.5 89.5l-75 240l-123 -2h-281l-119 2l-108 -342q-35 -8 -92.5 -8z" />
    <glyph glyph-name="B" unicode="B" horiz-adv-x="1239" 
d="M401 819h215q182 0 209 84t27 127q0 211 -231 211h-93q-94 0 -127 2v-424zM845 580q-70 71 -208 71h-236v-495l248 2q140 0 203 68t63 175q0 108 -70 179zM1071 1036q0 -98 -53 -175t-139 -111q109 -34 184.5 -136.5t75.5 -222.5q0 -180 -121 -289.5t-367 -109.5l-452 4
l-13 16v1374l13 15l426 6q223 0 334.5 -96.5t111.5 -274.5z" />
    <glyph glyph-name="C" unicode="C" horiz-adv-x="1236" 
d="M651 1249q-158 0 -239.5 -140.5t-81.5 -404.5t88 -402t260 -138t358 155q84 -55 109 -141q-87 -87 -225.5 -146t-282.5 -59t-250 60.5t-196.5 209.5t-90.5 449q0 355 156 544t387 189t371.5 -117t140.5 -282q0 -123 -123 -123q-39 0 -90 12q0 229 -105.5 281.5
t-185.5 52.5z" />
    <glyph glyph-name="D" unicode="D" horiz-adv-x="1327" 
d="M649 1231h-246v-1065h246q348 0 348 532q0 279 -87 406t-261 127zM649 1407q574 0 574 -711q0 -205 -44 -351.5t-173 -250.5q-91 -73 -202.5 -88.5t-177.5 -15.5t-427 8l-13 14v1374l13 15q178 6 450 6z" />
    <glyph glyph-name="E" unicode="E" horiz-adv-x="1159" 
d="M532 184h531q0 -55 -6 -84q-18 -102 -139 -102h-609q-57 0 -91 36t-34 99v1253l15 13h823q6 -33 6 -87.5t-16 -97.5h-615l2 -133v-286l127 2h385q10 -37 10.5 -91.5t-10.5 -89.5h-385q-80 0 -127 2v-335l-2 -105q61 6 135 6z" />
    <glyph glyph-name="F" unicode="F" horiz-adv-x="1069" 
d="M489 795h412q10 -35 10 -91.5t-10 -91.5h-498v-612q-47 -8 -110.5 -8t-106.5 8v1386l13 13h811q12 -37 12 -86q0 -100 -123 -101h-301q-140 0 -197 2l2 -241v-180q31 2 86 2z" />
    <glyph glyph-name="G" unicode="G" horiz-adv-x="1316" 
d="M1188 594v-533q-229 -88 -506 -88q-154 0 -269.5 57.5t-183.5 157.5q-129 199 -129 502q0 188 51.5 333.5t139.5 229.5q178 172 416 172q279 0 477 -149q-16 -102 -105 -164q-168 127 -372 127q-170 0 -274.5 -133t-104.5 -418q0 -535 391 -534q145 0 260 34v230
q0 90 4 131h-180q-102 0 -103 96q1 47 17 90l315 2q156 0 156 -143z" />
    <glyph glyph-name="H" unicode="H" horiz-adv-x="1382" 
d="M1086.5 1407q66.5 0 109.5 -8v-1399q-47 -8 -109.5 -8t-109.5 8v479l2 152l-115 -2h-346l-117 2l2 -152v-479q-43 -8 -109.5 -8t-107.5 8v1399q41 8 107.5 8t109.5 -8v-434l-2 -152l117 2h346l115 -2l-2 152v434q43 8 109.5 8z" />
    <glyph glyph-name="I" unicode="I" horiz-adv-x="602" 
d="M300.5 1407q66.5 0 109.5 -8v-1399q-43 -8 -109.5 -8t-107.5 8v1399q41 8 107.5 8z" />
    <glyph glyph-name="J" unicode="J" horiz-adv-x="917" 
d="M541 479v920q43 8 108.5 8t108.5 -8v-889q0 -125 -16.5 -212t-59.5 -163q-86 -156 -342 -155q-180 0 -320 86q16 93 82 163q113 -68 227.5 -67.5t163 74t48.5 243.5z" />
    <glyph glyph-name="K" unicode="K" horiz-adv-x="1220" 
d="M550 629q-83 0 -147 -4v-625q-43 -8 -109.5 -8t-107.5 8v1399q41 8 107.5 8t109.5 -8v-588l115 4q29 0 44.5 12.5t33.5 44.5l262 445q29 49 54.5 68.5t81 19.5t120.5 -6l14 -19l-309 -524q-39 -66 -82 -102q96 -18 150.5 -78t97.5 -174l111 -297q41 -107 92 -148
q-45 -70 -148 -69q-59 0 -88.5 29.5t-54.5 101.5l-111 301q-43 115 -98 162t-138 47z" />
    <glyph glyph-name="L" unicode="L" horiz-adv-x="1048" 
d="M586 188h407q0 -45 -6 -86q-18 -104 -141 -104h-535q-57 0 -92 36t-35 99v1262l15 12h82q68 0 95 -33t27 -106v-1088q85 8 183 8z" />
    <glyph glyph-name="M" unicode="M" horiz-adv-x="1654" 
d="M403.5 1407q94.5 0 141.5 -8l194 -641q53 -166 82 -326h13q14 100 79 326l195 641q53 8 143 8t144 -8l108 -1397q-45 -12 -105.5 -12t-103.5 8l-47 750q-12 164 -16 415h-12l-281 -950q-66 -8 -113 -8t-108 8l-281 950h-12q-10 -309 -16 -415l-50 -750q-41 -8 -102 -8
t-104 12l108 1397q49 8 143.5 8z" />
    <glyph glyph-name="N" unicode="N" horiz-adv-x="1392" 
d="M1075 -8q-74 0 -131 8l-436 858q-66 137 -129 285l-8 -2q18 -317 18 -502v-639q-49 -8 -102.5 -8t-100.5 8v1397q57 10 130 10t130 -8l433 -858q29 -61 75.5 -167t59.5 -130l8 2q-16 262 -16 516v510q0 74 25.5 104.5t90.5 30.5h72l12 -10v-1395q-57 -10 -131 -10z" />
    <glyph glyph-name="O" unicode="O" horiz-adv-x="1347" 
d="M100 698q0 339 150.5 533t425.5 194q274 0 421.5 -194t147.5 -531.5t-148 -532t-423 -194.5q-218 0 -355 123q-219 188 -219 602zM1016 700q0 551 -342 551q-104 0 -175 -49t-120 -169.5t-49 -321.5q0 -564 346 -564q198 0 269 167.5t71 385.5z" />
    <glyph glyph-name="P" unicode="P" horiz-adv-x="1163" 
d="M803.5 1154.5q-58.5 78.5 -189.5 78.5h-88q-88 0 -123 2v-569l209 2q131 0 190.5 80t59.5 204t-58.5 202.5zM292 -8q-64 0 -106 8v1386l13 15l422 6q217 0 343 -118t126 -336t-126.5 -338.5t-342.5 -120.5h-218v-494q-47 -8 -111 -8z" />
    <glyph glyph-name="Q" unicode="Q" horiz-adv-x="1347" 
d="M1006 702q0 550 -339 549q-339 0 -339 -550t338 -549q340 0 340 550zM674 -27q-281 0 -427.5 190.5t-146.5 536.5q0 525 213 625t353 100q274 0 420.5 -188.5t146.5 -523.5q0 -399 -117 -521t-188 -149l45 -33q144 -112 260 -112q-4 -72 -48.5 -117t-112.5 -45t-144 57
l-234 180h-20z" />
    <glyph glyph-name="R" unicode="R" horiz-adv-x="1228" 
d="M629 741q137 0 193.5 70t56.5 176q0 248 -250 248q-158 0 -228 2v-500q160 4 228 4zM1104 987q0 -137 -73 -236.5t-189 -136.5q96 -35 145 -174l90 -239q39 -106 92 -148q-45 -68 -147 -67q-57 0 -87 30.5t-56 102.5l-103 276q-31 82 -75 125t-132 43h-168v-563
q-43 -8 -108.5 -8t-106.5 8v1386l13 15l440 6q217 0 341 -109.5t124 -310.5z" />
    <glyph glyph-name="S" unicode="S" horiz-adv-x="1138" 
d="M565 156q121 0 191.5 53t70.5 139q0 141 -186 221l-242 105q-281 121 -280 354q0 167 127.5 282t343.5 115q215 0 426 -106q-2 -98 -80 -170q-197 96 -329 96t-199.5 -54t-67.5 -129t42 -117t128 -77l238 -102q307 -132 307 -381q0 -184 -128 -298t-388.5 -114
t-477.5 154q8 100 93 168q213 -139 411 -139z" />
    <glyph glyph-name="T" unicode="T" horiz-adv-x="1007" 
d="M504.5 -8q-62.5 0 -109.5 8v1065l2 152h-2l-116 -3h-244q-8 43 -8 92.5t8 92.5h942q12 -49 12 -94q0 -90 -123 -91h-133l-119 3v-1217q-47 -8 -109.5 -8z" />
    <glyph glyph-name="U" unicode="U" horiz-adv-x="1370" 
d="M1092 1407q63 0 110 -8v-907q0 -250 -139 -384.5t-378 -134.5t-378 133.5t-139 385.5v903l12 12h84q66 0 93.5 -33t27.5 -106v-776q0 -168 76 -255t223 -87q299 0 299 342v907q46 8 109 8z" />
    <glyph glyph-name="V" unicode="V" horiz-adv-x="1177" 
d="M1036.5 1407q57.5 0 96.5 -12l10 -17l-406 -1380q-106 -8 -167.5 -8t-97.5 21.5t-54 84.5l-377 1284q74 33 135 33q88 0 119 -106l211 -740q49 -174 90 -352q6 -20 18 -20l326 1204q39 8 96.5 8z" />
    <glyph glyph-name="W" unicode="W" horiz-adv-x="1740" 
d="M178 1413q58 0 84.5 -25.5t36.5 -91.5l129 -696q45 -258 66 -395q2 -25 18 -25l223 1190q68 10 145.5 10t135.5 -10l205 -1165q4 -25 18 -25q20 143 74 422l157 797q41 8 98.5 8t104.5 -12l10 -15l-292 -1378q-80 -12 -166 -12t-119 21.5t-45 84.5l-98 549
q-51 301 -82 506h-15q-41 -258 -90 -506l-125 -645q-88 -10 -168 -10t-116 21t-48 87l-258 1288q59 27 117 27z" />
    <glyph glyph-name="X" unicode="X" horiz-adv-x="1202" 
d="M1008.5 1409q62.5 0 107.5 -20l6 -15l-393 -635l436 -706q-70 -47 -148.5 -47t-133.5 88l-297 479l-334 -553q-35 -10 -99.5 -10t-109.5 20l-6 15l438 706l-389 635q70 47 148.5 47t132.5 -86l251 -409l293 481q35 10 97.5 10z" />
    <glyph glyph-name="Y" unicode="Y" horiz-adv-x="1030" 
d="M901 1409q55 0 105 -16l10 -15l-389 -929v-449q-47 -8 -112.5 -8t-106.5 8v453l-390 921q70 39 125.5 39t82 -21.5t46.5 -72.5l162 -393q41 -102 86 -256h10q23 82 91 260l186 469q39 10 94 10z" />
    <glyph glyph-name="Z" unicode="Z" horiz-adv-x="1150" 
d="M1032 1254.5q0 -40.5 -28 -83.5l-515 -770q-47 -72 -159 -219l6 -6q129 12 246 12h213q164 0 241 39q18 -55 19 -106q0 -121 -152 -121h-778q-27 102 -27 145t29 86l516 777q20 31 162 217l-6 6q-90 -16 -320 -17h-329q-20 84 8 185h843q31 -104 31 -144.5z" />
    <glyph glyph-name="bracketleft" unicode="[" horiz-adv-x="704" 
d="M641 1593q0 -37 -16 -92l-209 -6v-1626l209 -6q16 -55 16 -92t-8 -62l-416 -14l-14 12v1950l14 12l416 -14q8 -25 8 -62z" />
    <glyph glyph-name="backslash" unicode="\" horiz-adv-x="864" 
d="M668 -227l-648 1718q80 61 183 68l647 -1717q-78 -59 -182 -69z" />
    <glyph glyph-name="bracketright" unicode="]" horiz-adv-x="704" 
d="M485 -305l-413 14q-20 62 8 154l209 6v1626l-209 6q-28 97 -8 154l413 14l15 -12v-1950z" />
    <glyph glyph-name="asciicircum" unicode="^" 
d="M542.5 1337q73.5 0 114.5 -10l338 -700q-37 -10 -101.5 -10.5t-107.5 10.5l-168 360q-23 53 -69 172h-12q-47 -119 -70 -172l-168 -360q-43 -10 -107.5 -10.5t-101.5 10.5l338 700q41 10 114.5 10z" />
    <glyph glyph-name="underscore" unicode="_" 
d="M-10 -235q0 51 10 83h1085q8 -35 8 -83.5t-8 -81.5h-1085q-10 31 -10 82z" />
    <glyph glyph-name="grave" unicode="`" horiz-adv-x="815" 
d="M279 1513l294 -325q-29 -68 -92 -86l-350 272q16 45 58.5 84t89.5 55z" />
    <glyph glyph-name="a" unicode="a" horiz-adv-x="1038" 
d="M500 467q-96 0 -148.5 -46t-52.5 -121t37 -117t100 -42q131 0 242 123v195q-82 8 -178 8zM481 614q115 0 197 -14v80q0 182 -168 182q-117 0 -322 -78q-59 51 -61 154q209 94 424 94q160 0 248 -85t88 -257v-420q0 -127 57 -176q-25 -74 -80 -108q-121 23 -164 127
q-145 -139 -295 -139t-233.5 86t-83.5 214q0 168 107.5 254t285.5 86z" />
    <glyph glyph-name="b" unicode="b" horiz-adv-x="1081" 
d="M590 852q-123 0 -223 -117v-569q76 -25 177 -25t166.5 96.5t65.5 273.5t-50 259t-136 82zM252 1505q63 0 89 -31.5t26 -103.5v-446q123 104 285 104t250.5 -141.5t88.5 -383.5t-128 -380.5t-325 -139.5q-198 0 -378 68v1442l12 12h80z" />
    <glyph glyph-name="c" unicode="c" horiz-adv-x="964" 
d="M694 643q0 231 -180 231q-98 0 -151.5 -94t-53.5 -280q0 -352 232 -353q115 0 247 103q29 -16 55.5 -53t35.5 -72q-152 -152 -363 -152t-318.5 147t-107.5 393t123.5 385.5t295.5 139.5t276 -92t104 -213t-107 -121q-53 1 -88 9v22z" />
    <glyph glyph-name="d" unicode="d" 
d="M492 150q133 0 223 129v507q-115 74 -203 74t-147.5 -92t-59.5 -271t53.5 -263t133.5 -84zM498 1028q96 0 217 -67v532l14 12h80q63 0 88 -30.5t25 -104.5v-1081q0 -143 57 -195q-8 -29 -30.5 -61.5t-47.5 -46.5q-117 23 -162 127q-121 -139 -295 -139.5t-264 140
t-90 384.5t112 387t296 143z" />
    <glyph glyph-name="e" unicode="e" horiz-adv-x="1024" 
d="M516 881q-195 0 -209 -289h414v26q0 117 -50.5 190t-154.5 73zM924 604q0 -90 -15 -166h-602q6 -141 60.5 -217t186.5 -76t275 78q51 -47 68 -135q-164 -115 -384 -115t-321.5 145t-101.5 386t113 387.5t306.5 146.5t304 -122t110.5 -312z" />
    <glyph glyph-name="f" unicode="f" horiz-adv-x="681" 
d="M23 934q0 46 8 80l166 -2q-13 124 -13 188q-1 134 84.5 223.5t227.5 89.5q143 0 266 -47q0 -92 -49 -143q-104 31 -178 31q-150 0 -150 -185q0 -49 14 -159l289 4q8 -36 8 -81t-8 -77l-274 4v-860q-46 -8 -106.5 -8t-100.5 8v860l-176 -4q-8 32 -8 78z" />
    <glyph glyph-name="g" unicode="g" horiz-adv-x="1081" 
d="M518.5 868q-98.5 0 -156 -92t-57.5 -271t51.5 -263t132.5 -84q128 0 230 121v497q-102 92 -200.5 92zM924 723v-606q0 -310 -103 -439t-334 -129q-182 0 -354 68q2 98 55 160q128 -63 276 -63t201.5 74.5t53.5 209.5v94q-121 -110 -284 -110t-254 141t-91 386t114.5 387
t278.5 142t279 -106q45 72 141 94q25 -16 48.5 -49t29.5 -59q-57 -55 -57 -195z" />
    <glyph glyph-name="h" unicode="h" horiz-adv-x="1114" 
d="M263.5 -8q-63.5 0 -103.5 8v1493l12 12h82q63 0 88 -30.5t25 -104.5v-477q150 135 323 135q137 0 205 -91t68 -245v-475q0 -123 32 -186q-57 -45 -124.5 -45t-93 33.5t-25.5 101.5v520q0 106 -28 151.5t-95.5 45.5t-138 -35t-123.5 -92v-711q-40 -8 -103.5 -8z" />
    <glyph glyph-name="i" unicode="i" horiz-adv-x="555" 
d="M125 1308q0 68 30.5 83.5t107.5 15.5t99.5 -18.5t22.5 -94.5t-22.5 -96t-103.5 -22t-116 26q-18 38 -18 106zM399 836v-836q-39 -8 -105.5 -8t-105.5 8v750q0 57 -20.5 81.5t-69.5 24.5h-22q-10 45 -10 76t10 78q68 8 129 8h28q78 0 122 -49t44 -133z" />
    <glyph glyph-name="j" unicode="j" horiz-adv-x="569" 
d="M156 1202q-18 36 -18 100t21 83.5t111 23.5q70 -6 96.5 -15.5t32.5 -101.5q-6 -86 -26.5 -98t-102.5 -18q-79 -1 -114 26zM74 856q-11 42 -11 75t11 79q74 8 149 8h27q76 0 119 -48t43 -134v-799q0 -267 -55.5 -343.5t-111 -100t-128.5 -42.5q-53 49 -62 130
q88 41 118 96.5t30 156.5v816q0 57 -19.5 81.5t-68.5 24.5h-41z" />
    <glyph glyph-name="k" unicode="k" horiz-adv-x="1028" 
d="M481 440q-49 0 -114 -4v-436q-39 -8 -102.5 -8t-104.5 8v1493l12 12h82q63 0 88 -30.5t25 -104.5v-758l69 4q33 0 49 29l181 283q51 90 131 90t118 -2l13 -17l-223 -354q-31 -49 -68 -80q127 -32 188 -184l70 -170q47 -125 98 -160q-57 -66 -141 -65q-53 0 -82 27.5
t-53 90.5l-82 201q-33 80 -69 107.5t-85 27.5z" />
    <glyph glyph-name="l" unicode="l" horiz-adv-x="602" 
d="M444 158h76q31 -89 12 -152q-82 -14 -174 -14q-203 0 -202 211v1290l14 12h80q63 0 89 -31.5t26 -103.5v-1120q-1 -92 79 -92z" />
    <glyph glyph-name="m" unicode="m" horiz-adv-x="1632" 
d="M818 -8q-68 0 -103 8v641q0 104 -30 150.5t-93 46.5q-111 0 -221 -125v-713q-35 -8 -103 -8t-108 8v1006l12 14h80q111 0 117 -129q145 139 302 139t222 -151q168 152 326 151q129 0 196.5 -90t67.5 -231v-492q0 -127 33 -186q-57 -45 -134 -45q-113 0 -112 135v522
q0 104 -30 149.5t-93 45.5q-111 0 -221 -125v-713q-40 -8 -108 -8z" />
    <glyph glyph-name="n" unicode="n" horiz-adv-x="1118" 
d="M268 -8q-68 0 -108 8v1008l12 12h80q111 0 117 -127q150 137 325 137q137 0 205 -91t68 -245v-477q0 -121 34 -186q-53 -45 -123 -45t-96 33.5t-26 101.5v520q0 106 -28 151.5t-95.5 45.5t-138 -34t-123.5 -93v-711q-35 -8 -103 -8z" />
    <glyph glyph-name="o" unicode="o" horiz-adv-x="1064" 
d="M757 506q0 371 -224 371t-224 -371t224 -371t224 371zM532.5 1038q211.5 0 326.5 -146.5t115 -403.5t-145 -402q-113 -113 -310 -113t-313 146.5t-116 385.5q0 240 115.5 386.5t327 146.5z" />
    <glyph glyph-name="p" unicode="p" 
d="M780 516q0 176 -53 260t-133 84q-133 0 -225 -133v-502q111 -73 202 -73q92 0 150.5 94t58.5 270zM369 -305q0 -72 -26 -103.5t-89 -31.5h-82l-12 12v1436l12 12h66q102 0 124 -105q119 123 286 123t257 -144t90 -387t-113.5 -384t-297.5 -141q-98 0 -215 67v-354z" />
    <glyph glyph-name="q" unicode="q" horiz-adv-x="1083" 
d="M489 158q127 0 228 118v502q-105 90 -199 90t-153.5 -91t-59.5 -270t52 -264t132 -85zM717 -305v393q-119 -106 -282 -106t-254 141t-91 384t114 387t276 144q161 0 282 -104q49 70 139 92q25 -14 48.5 -47t31.5 -61q-57 -51 -57 -195v-1151l-13 -12h-80q-66 0 -90 30.5
t-24 104.5z" />
    <glyph glyph-name="r" unicode="r" horiz-adv-x="753" 
d="M635 1026q49 0 108 -12q0 -119 -51 -201q-18 6 -84 10q-139 0 -219 -155v-668q-39 -8 -105.5 -8t-105.5 8v702q0 139 -76 211q20 76 78 113q141 -31 187 -182q82 182 268 182z" />
    <glyph glyph-name="s" unicode="s" horiz-adv-x="897" 
d="M400 133q103 0 153.5 35t50.5 92q0 90 -129 139l-115 43q-260 98 -260 293q0 141 101.5 222t266.5 81t329 -73q0 -41 -17.5 -86t-46.5 -70q-145 68 -272 68q-68 0 -108 -33t-40 -82t30 -76t97 -53l123 -47q260 -100 260 -307q0 -141 -108.5 -223.5t-295 -82t-356.5 102.5
q2 35 22.5 79t47.5 68q164 -90 267 -90z" />
    <glyph glyph-name="t" unicode="t" horiz-adv-x="716" 
d="M406 248q0 -90 83 -90h142q16 -45 16 -91.5t-4 -60.5q-119 -14 -229 -14q-215 0 -215 211v655l-152 -2q-8 35 -8 77t8 81l152 -4v180q0 74 24.5 104.5t87.5 30.5h80l15 -14v-303l251 6q24 -85 0 -158l-251 4v-612z" />
    <glyph glyph-name="u" unicode="u" horiz-adv-x="1120" 
d="M152 317v478q0 123 -35 184q51 45 133 45q113 0 112 -133v-522q0 -106 27 -151.5t94.5 -45.5t137 34t124.5 91v715q57 8 104.5 8t108.5 -8v-725q0 -143 58 -195q-23 -74 -80 -106q-129 23 -172 147q-160 -152 -342 -151q-135 0 -202.5 91.5t-67.5 243.5z" />
    <glyph glyph-name="v" unicode="v" horiz-adv-x="931" 
d="M816 1020q52 0 95 -16l7 -9q-154 -516 -316 -995q-59 -10 -139 -10t-112 22.5t-56 93.5l-283 889q68 31 121 31q92 0 115 -90l137 -451q39 -123 80 -297q4 -16 18 -16l242 840q39 8 91 8z" />
    <glyph glyph-name="w" unicode="w" horiz-adv-x="1480" 
d="M170 1026q82 0 98 -86l92 -426q27 -119 68 -340q4 -16 16 -16l172 848q41 10 128 10t124 -10l168 -832q2 -16 17 -16q29 156 73 356l111 498q33 8 97.5 8t99.5 -16l6 -11l-248 -995q-57 -8 -142 -8t-119 22.5t-46 91.5l-60 285l-77 426h-11q-33 -184 -84 -424l-82 -391
q-78 -10 -153.5 -10t-109.5 23t-50 93l-213 891q63 29 125 29z" />
    <glyph glyph-name="x" unicode="x" horiz-adv-x="942" 
d="M768 1020q53 0 100 -14l6 -17l-288 -452l329 -504q-76 -49 -143 -49t-113 63l-204 313l-222 -362q-25 -8 -88 -8t-108 16l-6 17l321 499l-295 457q66 49 136.5 49t115.5 -63l174 -271l195 318q37 8 90 8z" />
    <glyph glyph-name="y" unicode="y" horiz-adv-x="958" 
d="M207 -446q-99 0 -148 14t-49 26q0 35 12.5 78t34.5 66q68 -27 158 -27t145.5 62.5t94.5 191.5l6 25q-66 2 -102.5 25.5t-55.5 84.5l-270 895q74 31 129 31q80 0 106 -94l140 -471q19 -62 75 -301q2 -14 19 -15l225 867q32 8 93 8t108 -14l6 -13l-270 -960
q-77 -269 -174 -374t-283 -105z" />
    <glyph glyph-name="z" unicode="z" horiz-adv-x="913" 
d="M324 848h-215q-21 70 4 164h686q31 -92 30.5 -124t-26.5 -73l-334 -453q-41 -57 -158 -198l6 -8q88 8 189 8h98q156 0 219 29q20 -47 21 -93q0 -100 -133 -100h-611q-29 86 -29 121t33 78l334 454q57 78 162 199l-6 8q-86 -12 -270 -12z" />
    <glyph glyph-name="braceleft" unicode="{" horiz-adv-x="708" 
d="M254 977v348q0 141 80 227t211 107l106 18q23 -25 34 -69.5t3 -75.5l-100 -33q-119 -37 -119 -176v-342q0 -98 -46 -184t-124 -123v-17q78 -35 124 -120.5t46 -184.5v-344q0 -137 119 -176l100 -31q8 -33 -3 -78t-34 -69l-106 18q-133 23 -212 108t-79 226v350
q0 88 -47 152.5t-121 87.5q-8 27 -8 70.5t8 70.5q74 23 121 87.5t47 152.5z" />
    <glyph glyph-name="bar" unicode="|" horiz-adv-x="522" 
d="M261.5 1595q60.5 0 98.5 -10v-1874q-41 -8 -99 -8t-99 8v1874q39 10 99.5 10z" />
    <glyph glyph-name="braceright" unicode="}" horiz-adv-x="708" 
d="M633 666.5q0 -43.5 -10 -70.5q-74 -23 -121 -88.5t-47 -151.5v-350q0 -141 -79 -226t-212 -108l-105 -18q-23 25 -35 71t-4 76l103 31q117 39 117 176v344q0 98 47 184.5t123 120.5v17q-76 37 -123 123t-47 184v342q0 141 -117 176l-103 33q-8 31 4.5 76t34.5 69l105 -18
q131 -20 211 -106.5t80 -227.5v-348q0 -88 47 -152.5t121 -87.5q10 -27 10 -70.5z" />
    <glyph glyph-name="asciitilde" unicode="~" horiz-adv-x="1200" 
d="M391 770q74 0 174 -41l160 -74q63 -25 102 -25q68 -1 127 66l39 45q37 -2 75 -25.5t50 -56.5l-26 -47q-100 -180 -283 -180q-97 5 -174 41l-162 74q-60 24 -100 24q-68 2 -127 -65l-39 -45q-37 4 -75 26.5t-50 55.5l27 47q100 180 282 180z" />
    <glyph glyph-name="Zcaron" horiz-adv-x="1150" 
d="M1032 1254q0 -40 -28 -83l-515 -770q-47 -72 -159 -219l6 -6q129 12 246 12h213q164 0 241 39q18 -55 19 -106q0 -121 -152 -121h-778q-27 102 -27 145t29 86l516 777q20 31 162 217l-6 6q-90 -16 -320 -17h-329q-8 33 -9 79q0 46 17 106h843q31 -105 31 -145zM348 1827
l230 -152l235 168q29 -10 57 -37t37 -55l-235 -231q-98 -20 -189 -2l-229 217q24 69 94 92z" />
    <glyph glyph-name="Zcaron" unicode="&#x17d;" horiz-adv-x="1150" 
d="M1032 1254q0 -40 -28 -83l-515 -770q-47 -72 -159 -219l6 -6q129 12 246 12h213q164 0 241 39q18 -55 19 -106q0 -121 -152 -121h-778q-27 102 -27 145t29 86l516 777q20 31 162 217l-6 6q-90 -16 -320 -17h-329q-8 33 -9 79q0 46 17 106h843q31 -105 31 -145zM348 1827
l230 -152l235 168q29 -10 57 -37t37 -55l-235 -231q-98 -20 -189 -2l-229 217q24 69 94 92z" />
    <glyph glyph-name="zcaron" horiz-adv-x="913" 
d="M324 848h-215q-8 27 -9 71q0 44 13 93h686q31 -92 31 -124t-27 -73l-334 -453q-41 -57 -158 -198l6 -8q88 8 189 8h98q156 0 219 29q20 -47 21 -93q0 -100 -133 -100h-611q-29 86 -28 121q-1 35 32 78l334 454q57 78 162 199l-6 8q-86 -12 -270 -12zM266 1489l191 -186
l207 198q61 -20 98 -88l-219 -274q-72 -29 -178 -2l-201 258q34 69 102 94z" />
    <glyph glyph-name="zcaron" unicode="&#x17e;" horiz-adv-x="913" 
d="M324 848h-215q-8 27 -9 71q0 44 13 93h686q31 -92 31 -124t-27 -73l-334 -453q-41 -57 -158 -198l6 -8q88 8 189 8h98q156 0 219 29q20 -47 21 -93q0 -100 -133 -100h-611q-29 86 -28 121q-1 35 32 78l334 454q57 78 162 199l-6 8q-86 -12 -270 -12zM266 1489l191 -186
l207 198q61 -20 98 -88l-219 -274q-72 -29 -178 -2l-201 258q34 69 102 94z" />
    <glyph glyph-name="exclamdown" unicode="&#xa1;" horiz-adv-x="589" 
d="M192.5 807q-28.5 21 -28.5 92t18 105q46 24 96 24q90 0 122 -18t32 -95t-18 -104q-41 -25 -117 -25t-104.5 21zM298 622q46 0 83 -10l25 -954q-84 -61 -226 -61l-14 16l51 999q35 10 81 10z" />
    <glyph glyph-name="cent" unicode="&#xa2;" horiz-adv-x="958" 
d="M768 774q-24 0 -82 10v29q0 94 -42 158.5t-138 64.5q-199 0 -199 -363t230 -364q121 0 243 105q70 -43 94 -119q-111 -125 -284 -156v-202q-35 -6 -87 -6t-83 6v202q-250 40 -292 237t-42 302q0 217 95 348t245 164v205q31 6 82 6t88 -6v-201q127 -19 206 -108.5
t79 -186.5q0 -125 -113 -125z" />
    <glyph glyph-name="sterling" unicode="&#xa3;" horiz-adv-x="1083" 
d="M156 989q0 141 106.5 253t300.5 112q242 0 408 -152q-4 -43 -37 -84t-74 -55q-135 113 -280 113q-92 0 -151.5 -53.5t-59.5 -136.5t32.5 -173t38.5 -106l377 2q25 -80 0 -162q-231 0 -346 2q0 -186 -133 -373l6 -6q188 10 287 10h377q0 -49 -4 -78q-18 -104 -142 -104
h-723q-27 104 -26.5 147t28.5 82l33 52q100 145 100 268h-155q-25 78 0 162q18 0 58 -1t61 -1q-82 191 -82 282z" />
    <glyph glyph-name="currency" unicode="&#xa4;" horiz-adv-x="1177" 
d="M587.5 965q-110.5 0 -172 -81t-61.5 -200t63 -198.5t169.5 -79.5t171.5 78.5t65 198.5t-62.5 201t-173 81zM139 685q0 140 70 247l-143 158q37 68 114 116l160 -147q106 68 245.5 67.5t248.5 -67.5l161 149q72 -41 117 -114l-147 -160q71 -113 71 -247t-71 -251l145 -157
q-37 -68 -115 -117l-164 149q-102 -65 -241 -65t-248 65l-162 -147q-74 43 -114 115l145 157q-72 109 -72 249z" />
    <glyph glyph-name="yen" unicode="&#xa5;" horiz-adv-x="1056" 
d="M631 350v-350q-47 -8 -107.5 -8t-101.5 8v350h-309q-10 45 -10.5 72t10.5 74h299l-72 161h-227q-10 45 -10.5 72t10.5 74h161l-225 504q74 41 141.5 41t102.5 -82l151 -367q33 -74 84 -237h13q49 156 88 239l180 430q47 12 92 12t100 -14l9 -12l-232 -514h162
q8 -39 8 -75t-8 -71h-227l-72 -161h299q8 -39 8 -75t-8 -71h-309z" />
    <glyph glyph-name="brokenbar" unicode="&#xa6;" horiz-adv-x="509" 
d="M253 1595q60 0 101 -10v-792q-43 -8 -100 -8t-96 8v792q35 10 95 10zM253 514q60 0 101 -10v-793q-43 -8 -100 -8t-96 8v793q35 10 95 10z" />
    <glyph glyph-name="section" unicode="&#xa7;" horiz-adv-x="993" 
d="M721 590q0 66 -53.5 108.5t-157.5 83.5l-80 31q-156 -80 -156 -199q-2 -68 53.5 -108.5t159.5 -81.5l78 -31q156 80 156 197zM527 1264q-97 0 -135 -36t-38 -85q0 -80 129 -131l119 -47q156 -61 243 -140t87 -202q0 -184 -217 -304q141 -98 141 -236t-107.5 -221
t-291.5 -83t-322 86q0 39 19.5 83t48.5 66q150 -74 276 -73q76 0 120 32.5t44 87.5q0 80 -129 134l-119 47q-156 61 -242.5 138t-86.5 202q0 92 59 170.5t158 132.5q-141 92 -141 232t104 224t263 84t318 -71q0 -43 -16 -87t-45 -67q-142 64 -239 64z" />
    <glyph glyph-name="dieresis" unicode="&#xa8;" horiz-adv-x="815" 
d="M222 1360q58 0 84 -20.5t26 -86t-26 -85t-90 -19.5t-97 25q-17 27 -17 87t31 79.5t89 19.5zM483 1262q0 57 24.5 77.5t86.5 20.5t90.5 -16.5t28.5 -87.5t-23.5 -89t-87.5 -18t-102 25q-17 31 -17 88z" />
    <glyph glyph-name="copyright" unicode="&#xa9;" horiz-adv-x="1642" 
d="M846 434q96 0 201 84q53 -27 75 -102q-53 -53 -137 -88t-169 -35q-169 0 -259 113.5t-90 299.5t103.5 294t247 108t228 -77t84.5 -167q0 -96 -94 -96q-34 0 -69 10v21q0 68 -35 120t-114 52t-124 -70t-45 -200t50.5 -198.5t146.5 -68.5zM821 1288q-241 0 -401 -172
t-160 -417t161 -416.5t400 -171.5t401 171.5t162 415.5t-117.5 370t-221 173t-224.5 47zM82 698q0 156 57.5 291t156.5 234.5t234.5 157t289.5 57.5t289.5 -57.5t293.5 -215.5t158 -467q0 -158 -57.5 -292t-157 -233t-234.5 -155.5t-291 -56.5q-315 0 -527 212t-212 525z
" />
    <glyph glyph-name="ordfeminine" unicode="&#xaa;" horiz-adv-x="868" 
d="M402 975q-60 0 -101 -32t-41 -83t26.5 -87t67.5 -36h13q90 0 178 88v142q-83 8 -143 8zM393 1100q46 0 152 -8v57q0 131 -121 131q-113 0 -258 -57q-51 53 -51 129q174 74 319 73q291 0 291 -270v-315q0 -103 51 -140q-4 -25 -26.5 -52t-49.5 -42q-94 14 -133 96
q-115 -104 -233 -104t-185 67.5t-67 186.5t85 183.5t226 64.5z" />
    <glyph glyph-name="guillemotleft" unicode="&#xab;" horiz-adv-x="1142" 
d="M68 522.5q0 38.5 12 67.5l395 377q37 -10 72 -43t47 -68l-285 -330l295 -340q-12 -35 -48 -67.5t-73 -42.5l-403 379q-12 29 -12 67.5zM1059 856l-285 -330l295 -340q-12 -35 -48 -67.5t-73 -42.5l-403 379q-12 27 -12.5 66.5t12.5 68.5l395 377q37 -10 72 -43t47 -68z
" />
    <glyph glyph-name="logicalnot" unicode="&#xac;" 
d="M96 610.5q0 53.5 8 94.5h852l13 -15v-454q-94 -19 -195 0v192l2 96l-98 -2h-574q-8 35 -8 88.5z" />
    <glyph glyph-name="uni00AD" unicode="&#xad;" horiz-adv-x="716" 
d="M94 546q0 56 10 91h508q10 -37 10 -92t-10 -90h-508q-10 35 -10 91z" />
    <glyph glyph-name="registered" unicode="&#xae;" horiz-adv-x="1214" 
d="M532 1155v-135q33 4 62 4t60.5 7.5t31.5 55.5q0 68 -76 68h-78zM815 1098q0 -100 -102 -135q33 -12 67 -80l27 -54q20 -39 45 -57q-29 -47 -78 -48t-84 64l-51 95q-23 41 -61 41h-46v-189q-34 -10 -62 -10t-62 10v506l6 6q132 4 217 4q86 0 135 -41.5t49 -111.5z
M889 698.5q115 120.5 115 284.5t-81 255t-157 124t-160 33q-167 0 -281 -120t-114 -290t114.5 -288.5t281.5 -118.5t282 120.5zM606 1522q111 0 211.5 -42t213 -155.5t112.5 -337.5q0 -225 -156.5 -381.5t-380.5 -156.5t-380 155.5t-156 382.5t157.5 381t378.5 154z" />
    <glyph glyph-name="macron" unicode="&#xaf;" horiz-adv-x="815" 
d="M111 1262q0 49 10 86h575q8 -39 8 -85t-8 -85h-575q-10 35 -10 84z" />
    <glyph glyph-name="degree" unicode="&#xb0;" horiz-adv-x="669" 
d="M199 1056q0 -50 35.5 -94t100.5 -44t100.5 45t35.5 111t-38 111.5t-99 45.5q-135 -1 -135 -175zM122 859q-85 85 -85 215t86 216t212 86t212 -86t86 -215t-86 -215t-213 -86t-212 85z" />
    <glyph glyph-name="plusminus" unicode="&#xb1;" 
d="M129 87q0 46 8 89h811q8 -43 8 -89t-8 -87h-811q-8 41 -8 87zM543.5 1110q56.5 0 95.5 -8v-209l-2 -102l96 2h215q8 -41 8 -87.5t-8 -84.5h-215l-96 2l2 -101v-211q-39 -8 -95.5 -8t-97.5 8v211l3 101l-97 -2h-215q-8 39 -8 85t8 87h215l97 -2l-3 102v209q41 8 97.5 8z
" />
    <glyph glyph-name="twosuperior" unicode="&#xb2;" horiz-adv-x="860" 
d="M479 856h244q0 -88 -20.5 -126t-84.5 -38h-446q-59 78 -59 111q0 109 155 237l150 123q90 74 90 150q0 47 -31 77.5t-78 30.5q-90 0 -137 -114q-37 4 -79 22.5t-58 40.5q29 92 105.5 152.5t193.5 60.5t196.5 -76t79.5 -176t-41 -164.5t-127 -130.5l-114 -90
q-43 -35 -73 -59.5t-40 -46.5q102 16 174 16z" />
    <glyph glyph-name="threesuperior" unicode="&#xb3;" horiz-adv-x="860" 
d="M682 1460q0 -36 -35 -67l-119 -117q-23 -23 -59 -45q104 0 176 -70.5t72 -198.5t-97 -203t-249 -75t-267 90q12 72 72 125q100 -70 184 -70q83 0 126.5 42t43.5 107t-42 101.5t-92 36.5t-89 -18q-23 10 -44 37.5t-27 58.5l161 162q39 39 80 65l-4 6q-57 -10 -162 -10
h-164q-10 23 -10 70t13 82h499q33 -73 33 -109z" />
    <glyph glyph-name="acute" unicode="&#xb4;" horiz-adv-x="815" 
d="M252 1188l295 325q47 -16 90 -55t59 -84l-350 -272q-29 8 -55.5 32.5t-38.5 53.5z" />
    <glyph glyph-name="paragraph" unicode="&#xb6;" horiz-adv-x="1374" 
d="M1042 -281q-55 0 -106 9v1658l12 13h369q10 -37 10 -94.5t-10 -92.5h-75q-75 0 -89 2v-1486q-57 -9 -111 -9zM409 -152q87 0 133 59.5t46 215.5v391h-39q-325 0 -394 171t-69 333.5t125 276.5t346 114q48 0 234 -8l12 -12v-1229q0 -274 -97.5 -376.5t-295.5 -102.5
q-141 0 -267 49q0 98 52 161q127 -43 214 -43z" />
    <glyph glyph-name="periodcentered" unicode="&#xb7;" horiz-adv-x="624" 
d="M312 711q70 0 103.5 -17.5t33.5 -106.5t-27.5 -111.5t-85.5 -22.5q-99 0 -129.5 20t-30.5 97t19 112q47 29 117 29z" />
    <glyph glyph-name="cedilla" unicode="&#xb8;" horiz-adv-x="815" 
d="M367 -338q102 0 102 79q0 40 -25.5 59.5t-58.5 19.5t-51 -8q-25 7 -37 36q35 111 53 152h133q-21 -44 -34 -76q86 -4 138 -53t52 -132t-72 -139.5t-171 -56.5t-165 41q2 53 43 107q46 -29 93 -29z" />
    <glyph glyph-name="onesuperior" unicode="&#xb9;" horiz-adv-x="860" 
d="M474 1577q44 0 87 -10v-715h170q8 -31 8 -76t-8 -80h-555q-8 39 -8 82t8 74h209v326q0 18 3 68t3 65q-59 -82 -190 -140q-66 33 -80 115q104 59 166.5 125t103.5 156q39 10 83 10z" />
    <glyph glyph-name="ordmasculine" unicode="&#xba;" horiz-adv-x="845" 
d="M256 1014q0 -272 168 -273q164 -1 164 271t-164 272q-88 0 -128 -75.5t-40 -194.5zM772 1010q0 -284 -131 -348t-219 -64t-153.5 32t-108.5 87t-64.5 130t-21.5 211.5t87.5 251.5t246.5 115t249 -84q115 -125 115 -331z" />
    <glyph glyph-name="guillemotright" unicode="&#xbb;" horiz-adv-x="1142" 
d="M551 188l283 330l-295 338q12 33 49 66.5t71 44.5l406 -379q27 -68 0 -133l-397 -379q-35 10 -70 43.5t-47 68.5zM86 188l283 330l-295 338q12 33 49 66.5t72 44.5l405 -379q27 -68 0 -133l-397 -379q-35 10 -70 43.5t-47 68.5z" />
    <glyph glyph-name="onequarter" unicode="&#xbc;" horiz-adv-x="1937" 
d="M427 1411q44 0 87 -10v-715h170q8 -31 8 -76t-8 -80h-555q-8 39 -8 82t8 74h209v326q0 18 3 68t3 65q-59 -82 -190 -139q-66 32 -80 114q104 59 167 125q62 66 103 156q39 10 83 10zM553 0l770 1399q41 12 110 11t99 -11l-772 -1399q-42 -12 -110 -11t-97 11zM1855 246
q0 -44 -14 -78h-117v-160q-33 -8 -84 -8t-90 8v86l2 74l-84 -2h-243q-41 66 -41 104t30 99l240 518q43 4 94 -7t78 -34l-156 -336q-66 -139 -104 -191l4 -4q51 4 146 4h36q-2 16 -2 50v67q0 59 33 94t86 35h51l6 -6v-135l-2 -105h125q6 -29 6 -73z" />
    <glyph glyph-name="onehalf" unicode="&#xbd;" horiz-adv-x="1937" 
d="M427 1411q44 0 87 -10v-715h170q8 -31 8 -76t-8 -80h-555q-8 39 -8 82t8 74h209v326q0 18 3 68t3 65q-59 -82 -190 -139q-66 32 -80 114q104 59 167 125q62 66 103 156q39 10 83 10zM522 0l770 1399q41 12 110 11t99 -11l-772 -1399q-41 -12 -109 -11t-98 11zM1593 166
h244q0 -88 -20 -126t-84 -38h-447q-59 78 -59 111q0 109 155 237l150 123q90 74 90 150q0 47 -31 77t-78 31q-90 0 -137 -115q-37 4 -79 22t-58 42q29 92 106 152t192 61q115 0 196 -75q80 -75 81 -176t-40 -166t-127 -130l-115 -90q-43 -36 -73 -60t-40 -46q102 16 174 16z
" />
    <glyph glyph-name="threequarters" unicode="&#xbe;" horiz-adv-x="1937" 
d="M682 1296q0 -36 -35 -67l-119 -117q-23 -23 -59 -45q104 0 176 -71t72 -197t-95 -202q-95 -75 -249 -76t-269 89q12 72 72 125q99 -69 183 -69q83 0 127 42t44 106t-42 102q-42 36 -94 36t-87 -18q-23 10 -45 38t-26 58l161 162q39 39 80 65l-4 7q-63 -11 -162 -11h-164
q-10 23 -10 70t13 82h499q33 -73 33 -109zM522 0l770 1399q41 12 110 11t99 -11l-772 -1399q-41 -12 -109 -11t-98 11zM1845 246q0 -44 -14 -78h-117v-160q-33 -8 -84 -8t-90 8v86l2 74l-84 -2h-244q-40 66 -40 104t30 99l240 518q43 4 94 -7t78 -34l-156 -336
q-66 -139 -104 -191l4 -4q51 4 145 4h37q-2 16 -2 50v67q0 59 33 94t86 35h51l6 -6v-135l-2 -105h125q6 -29 6 -73z" />
    <glyph glyph-name="questiondown" unicode="&#xbf;" horiz-adv-x="811" 
d="M411 805q-30 19 -30 82t8 88.5t26.5 35t43 13.5t53.5 4t53.5 -2t46 -13.5t28.5 -36t7 -80.5t-16 -85q-43 -25 -116 -25q-74 0 -104 19zM468 -229q110 0 249 75q29 -25 52.5 -71.5t25.5 -87.5q-195 -104 -381.5 -104.5t-288.5 95t-102 254.5q0 246 268 398l127 71l16 207
q30 13 82 13q51 0 82 -13l12 -305l-18 -22l-100 -50q-242 -118 -242 -286q0 -74 54 -124t164 -50z" />
    <glyph glyph-name="Agrave" unicode="&#xc0;" horiz-adv-x="1251" 
d="M412 516l104 2h205q84 -2 102 -2l-94 297q-72 229 -108 371h-11q-25 -113 -80 -297zM156 -10q-57 0 -109 14l-6 10l463 1385q43 8 125 8t123 -8l458 -1385q-42 -28 -110 -28t-96 24t-50 90l-75 240l-123 -2h-281l-119 2l-108 -342q-35 -8 -92 -8zM446 1847l416 -245
q-16 -80 -63 -111l-447 184q6 49 34 99t60 73z" />
    <glyph glyph-name="Aacute" unicode="&#xc1;" horiz-adv-x="1251" 
d="M412 516l104 2h205q84 -2 102 -2l-94 297q-72 229 -108 371h-11q-25 -113 -80 -297zM156 -10q-57 0 -109 14l-6 10l463 1385q43 8 125 8t123 -8l458 -1385q-42 -28 -110 -28t-96 24t-50 90l-75 240l-123 -2h-281l-119 2l-108 -342q-35 -8 -92 -8zM424 1602l416 245
q32 -23 60 -73t34 -99l-447 -184q-23 14 -41 47t-22 64z" />
    <glyph glyph-name="Acircumflex" unicode="&#xc2;" horiz-adv-x="1251" 
d="M412 516l104 2h205q84 -2 102 -2l-94 297q-72 229 -108 371h-11q-25 -113 -80 -297zM156 -10q-57 0 -109 14l-6 10l463 1385q43 8 125 8t123 -8l458 -1385q-42 -28 -110 -28t-96 24t-50 90l-75 240l-123 -2h-281l-119 2l-108 -342q-35 -8 -92 -8zM858 1509l-231 154
l-236 -170q-27 10 -55 38t-37 56l233 232q96 18 189 0l229 -217q-10 -33 -38 -59t-54 -34z" />
    <glyph glyph-name="Atilde" unicode="&#xc3;" horiz-adv-x="1251" 
d="M412 516l104 2h205q84 -2 102 -2l-94 297q-72 229 -108 371h-11q-25 -113 -80 -297zM156 -10q-57 0 -109 14l-6 10l463 1385q43 8 125 8t123 -8l458 -1385q-42 -28 -110 -28t-96 24t-50 90l-75 240l-123 -2h-281l-119 2l-108 -342q-35 -8 -92 -8zM486 1796q62 0 120 -33
l115 -53q32 -18 67 -19t80 52l25 29q76 -2 106 -66l-18 -39q-70 -150 -209 -149q-51 -1 -121 30l-114 56q-74 33 -108 7q-17 -13 -40 -40l-24 -29q-31 0 -63 18t-44 46l18 41q32 73 90 111t120 38z" />
    <glyph glyph-name="Adieresis" unicode="&#xc4;" horiz-adv-x="1251" 
d="M412 516l104 2h205q84 -2 102 -2l-94 297q-72 229 -108 371h-11q-25 -113 -80 -297zM156 -10q-57 0 -109 14l-6 10l463 1385q43 8 125 8t123 -8l458 -1385q-42 -28 -110 -28t-96 24t-50 90l-75 240l-123 -2h-281l-119 2l-108 -342q-35 -8 -92 -8zM408 1724q59 0 92 -17
q32 -17 32 -88t-24 -91t-100 -20q-74 0 -94 27q-19 28 -19 78t18 87q36 24 95 24zM963 1620q0 -72 -23 -92q-22 -20 -96 -20t-96 23q-22 25 -23 81q0 56 20 88q37 24 95 24t91 -16q32 -16 32 -88z" />
    <glyph glyph-name="Aring" unicode="&#xc5;" horiz-adv-x="1251" 
d="M634 1710q-50 0 -80 -31t-30 -83t33 -80.5t80 -28.5t69.5 34.5t22.5 76.5t-22.5 77t-72.5 35zM412 516l309 2l102 -2l-94 297q-73 230 -108 371h-11q-25 -111 -80 -297zM248 -2q-32 -8 -91 -8t-110 14l-6 10l461 1381q-121 66 -121 204q0 96 70 164t179 68
q108 0 177.5 -66.5t69.5 -165.5q0 -141 -125 -204l458 -1381q-46 -28 -112 -28t-94.5 24.5t-49.5 89.5l-75 240l-404 -2l-119 2z" />
    <glyph glyph-name="AE" unicode="&#xc6;" horiz-adv-x="1794" 
d="M821 1184h-10q-70 -172 -129 -297l-180 -371l84 2h125l110 -2v668zM150.5 -10q-60.5 0 -111.5 14l-8 12l671 1362q43 20 132 21h823q8 -43 8 -89t-18 -96h-617l2 -133v-286l127 2h387q10 -37 10 -91.5t-10 -89.5h-387q-80 0 -127 2v-333q0 -18 -1 -52t-1 -55q59 6 135 6
h533q0 -55 -6 -84q-14 -102 -140 -102h-608q-57 0 -90 36t-33 99v207l-112 -2h-183l-108 2l-166 -342q-41 -8 -101.5 -8z" />
    <glyph glyph-name="Ccedilla" unicode="&#xc7;" horiz-adv-x="1236" 
d="M610 -338q99 0 99 83q0 38 -29 57.5t-58 19.5t-49 -10q-24 7 -36 36q20 70 43 129q-243 19 -361.5 223t-118.5 518q0 158 43 295.5t156 274.5t344 137t371.5 -117t140.5 -282q0 -123 -123 -123h-24q-24 0 -45 7.5t-21 17.5q0 134 -67.5 227.5t-224.5 93.5t-238.5 -140.5
t-81.5 -404.5t88 -402t260 -138t358 155q84 -55 109 -141q-170 -170 -434 -201q-20 -39 -23 -53q86 -4 138.5 -53t52.5 -132t-72.5 -139.5t-171.5 -56.5q-98 0 -164 41q2 53 43 107q45 -29 96 -29z" />
    <glyph glyph-name="Egrave" unicode="&#xc8;" horiz-adv-x="1159" 
d="M532 184h531q0 -55 -6 -84q-18 -102 -139 -102h-609q-57 0 -91 36t-34 99v1253l15 13h823q6 -33 6 -87t-16 -98h-615l2 -133v-286l127 2h385q11 -37 11 -91t-11 -90h-385q-80 0 -127 2v-335l-2 -105q61 6 135 6zM430 1847l416 -245q-16 -80 -64 -111l-446 184q6 49 34 99
t60 73z" />
    <glyph glyph-name="Eacute" unicode="&#xc9;" horiz-adv-x="1159" 
d="M532 184h531q0 -55 -6 -84q-18 -102 -139 -102h-609q-57 0 -91 36t-34 99v1253l15 13h823q6 -33 6 -87t-16 -98h-615l2 -133v-286l127 2h385q11 -37 11 -91t-11 -90h-385q-80 0 -127 2v-335l-2 -105q61 6 135 6zM406 1602l415 245q31 -23 60 -73t34 -99l-446 -184
q-23 14 -41 47t-22 64z" />
    <glyph glyph-name="Ecircumflex" unicode="&#xca;" horiz-adv-x="1159" 
d="M532 184h531q0 -55 -6 -84q-18 -102 -139 -102h-609q-57 0 -91 36t-34 99v1253l15 13h823q6 -33 6 -87t-16 -98h-615l2 -133v-286l127 2h385q11 -37 11 -91t-11 -90h-385q-80 0 -127 2v-335l-2 -105q61 6 135 6zM842 1509l-232 154l-235 -170q-27 10 -56 38t-36 56
l233 232q96 18 189 0l229 -217q-10 -33 -38 -59t-54 -34z" />
    <glyph glyph-name="Edieresis" unicode="&#xcb;" horiz-adv-x="1159" 
d="M532 184h531q0 -55 -6 -84q-18 -102 -139 -102h-609q-57 0 -91 36t-34 99v1253l15 13h823q6 -33 6 -87t-16 -98h-615l2 -133v-286l127 2h385q11 -37 11 -91t-11 -90h-385q-80 0 -127 2v-335l-2 -105q61 6 135 6zM392 1724q58 0 91 -17t33 -88t-24 -91t-100 -20
q-75 0 -94 27q-19 28 -19 78t18 87q37 24 95 24zM946 1620q0 -72 -22 -92t-97 -20t-97 23q-37 40 -16 130q5 23 15 39q37 24 95 24t90 -16t32 -88z" />
    <glyph glyph-name="Igrave" unicode="&#xcc;" horiz-adv-x="602" 
d="M300 1407q66 0 110 -8v-1399q-44 -8 -110 -8t-107 8v1399q41 8 107 8zM123 1847l416 -245q-16 -80 -64 -111l-446 184q7 49 35 99t59 73z" />
    <glyph glyph-name="Iacute" unicode="&#xcd;" horiz-adv-x="602" 
d="M300 1407q66 0 110 -8v-1399q-44 -8 -110 -8t-107 8v1399q41 8 107 8zM96 1602l416 245q32 -23 60 -73t34 -99l-446 -184q-23 14 -41 47q-19 33 -23 64z" />
    <glyph glyph-name="Icircumflex" unicode="&#xce;" horiz-adv-x="602" 
d="M300 1407q66 0 110 -8v-1399q-44 -8 -110 -8t-107 8v1399q41 8 107 8zM532 1509l-231 154l-235 -170q-27 10 -56 38t-37 56l234 232q96 18 188 0l230 -217q-10 -33 -38 -59t-55 -34z" />
    <glyph glyph-name="Idieresis" unicode="&#xcf;" horiz-adv-x="602" 
d="M300 1407q66 0 110 -8v-1399q-44 -8 -110 -8t-107 8v1399q41 8 107 8zM82 1724q58 0 92 -17q33 -17 33 -88t-25 -91q-26 -20 -100 -20t-93 27q-19 28 -19 78t18 87q36 24 94 24zM637 1620q0 -72 -23 -92q-22 -20 -96 -20t-96 23q-22 24 -23 80q0 56 21 89q37 24 95 24
t90 -16t32 -88z" />
    <glyph glyph-name="Eth" unicode="&#xd0;" horiz-adv-x="1359" 
d="M758 701q0 -35 -10 -83h-316v-452h250q276 0 311 208t35 326q0 256 -78 393.5t-268 137.5h-250v-432h316q10 -63 10 -98zM682 1407q573 0 573 -709q0 -205 -45 -352.5t-172 -251.5q-90 -73 -201.5 -88.5t-177.5 -15.5t-428 8l-14 14v606h-158q-8 32 -8 85.5t8 95.5h158
v587l14 15q178 6 451 6z" />
    <glyph glyph-name="Ntilde" unicode="&#xd1;" horiz-adv-x="1392" 
d="M1075 -8q-74 0 -131 8l-436 858q-66 137 -129 285l-8 -2q18 -317 18 -502v-639q-49 -8 -102 -8t-101 8v1397q57 10 130 10t130 -8l433 -858q29 -61 75 -167t60 -130l8 2q-16 262 -16 516v510q0 74 26 104t90 31h72l12 -10v-1395q-57 -10 -131 -10zM560 1796q62 0 120 -33
l115 -53q31 -18 67 -19q35 -1 80 52l25 29q76 -2 106 -66l-18 -39q-70 -150 -209 -149q-51 -1 -121 30l-115 56q-73 33 -107 7q-17 -13 -40 -40l-25 -29q-30 0 -62 18t-44 46l18 41q33 73 90 111q58 38 120 38z" />
    <glyph glyph-name="Ograve" unicode="&#xd2;" horiz-adv-x="1347" 
d="M100 698q0 337 151 532t425 195q275 0 422 -193t147 -531t-147 -533q-148 -193 -424 -195q-218 0 -355 123q-219 188 -219 602zM330 711q0 -561 346 -564q199 0 281 197q59 138 59 356q0 366 -161 496q-69 55 -177 55q-210 0 -285 -184q-63 -155 -63 -356zM492 1847
l415 -245q-16 -80 -63 -111l-447 184q6 49 35 99t60 73z" />
    <glyph glyph-name="Oacute" unicode="&#xd3;" horiz-adv-x="1347" 
d="M100 698q0 337 151 532t425 195q275 0 422 -193t147 -531t-147 -533q-148 -193 -424 -195q-218 0 -355 123q-219 188 -219 602zM330 711q0 -561 346 -564q199 0 281 197q59 138 59 356q0 366 -161 496q-69 55 -177 55q-210 0 -285 -184q-63 -155 -63 -356zM465 1602
l416 245q31 -23 59 -73t35 -99l-447 -184q-23 14 -41 47t-22 64z" />
    <glyph glyph-name="Ocircumflex" unicode="&#xd4;" horiz-adv-x="1347" 
d="M100 698q0 337 151 532t425 195q275 0 422 -193t147 -531t-147 -533q-148 -193 -424 -195q-218 0 -355 123q-219 188 -219 602zM330 711q0 -561 346 -564q199 0 281 197q59 138 59 356q0 366 -161 496q-69 55 -177 55q-210 0 -285 -184q-63 -155 -63 -356zM903 1509
l-231 154l-236 -170q-28 10 -56 38t-36 56l234 232q96 18 188 0l229 -217q-9 -33 -37 -59t-55 -34z" />
    <glyph glyph-name="Otilde" unicode="&#xd5;" horiz-adv-x="1347" 
d="M100 698q0 337 151 532t425 195q275 0 422 -193t147 -531t-147 -533q-148 -193 -424 -195q-218 0 -355 123q-219 188 -219 602zM330 711q0 -561 346 -564q199 0 281 197q59 138 59 356q0 366 -161 496q-69 55 -177 55q-210 0 -285 -184q-63 -155 -63 -356zM525 1796
q62 0 120 -33l115 -53q31 -18 67 -19q35 -1 80 52l25 29q76 -2 106 -66l-18 -39q-70 -150 -209 -149q-51 -1 -121 30l-115 56q-73 33 -107 7q-17 -13 -40 -40l-25 -29q-31 0 -63 18t-43 46l18 41q33 73 91 111t119 38z" />
    <glyph glyph-name="Odieresis" unicode="&#xd6;" horiz-adv-x="1347" 
d="M100 698q0 337 151 532t425 195q275 0 422 -193t147 -531t-147 -533q-148 -193 -424 -195q-218 0 -355 123q-219 188 -219 602zM330 711q0 -561 346 -564q199 0 281 197q59 138 59 356q0 366 -161 496q-69 55 -177 55q-210 0 -285 -184q-63 -155 -63 -356zM453 1724
q59 0 92 -17t33 -88t-25 -91t-99 -20t-95 27q-19 28 -19 78t18 87q36 24 95 24zM1008 1620q0 -72 -23 -92t-97 -20t-96 23q-22 24 -22 80t21 89q37 24 95 24t90 -16t32 -88z" />
    <glyph glyph-name="multiply" unicode="&#xd7;" 
d="M147 338l265 262l-62 64l-203 200q41 94 132 133l202 -202q55 -61 60 -66q33 29 63 64l201 204q88 -39 133 -133l-203 -200q-10 -12 -34.5 -35t-30.5 -29q61 -55 65 -59l203 -203q-43 -100 -133 -131l-264 264l-262 -266q-35 16 -75 54t-57 79z" />
    <glyph glyph-name="Oslash" unicode="&#xd8;" horiz-adv-x="1349" 
d="M1024 690q0 232 -66 379l-456 -876q76 -49 175 -49q184 -1 265.5 156.5t81.5 389.5zM629.5 1255q-144.5 0 -225 -156.5t-80.5 -391.5q0 -236 65 -377l457 876q-72 49 -216.5 49zM100 700q0 318 148 521.5t428 203.5q156 0 258 -57l82 141q37 -4 79 -26.5t64 -50.5
l-94 -164q184 -201 184 -568q0 -317 -146 -522t-427 -205q-150 0 -262 58l-78 -140q-37 4 -79 27t-64 51l90 162q-183 200 -183 569z" />
    <glyph glyph-name="Ugrave" unicode="&#xd9;" horiz-adv-x="1370" 
d="M1092 1407q63 0 110 -8v-907q0 -250 -139 -384t-378 -134t-378 132q-139 133 -139 386v903l12 12h84q66 0 94 -33t27 -106v-776q0 -168 76 -255t223 -87q299 0 299 342v907q46 8 109 8zM498 1847l415 -245q-16 -80 -63 -111l-447 184q6 49 35 99t60 73z" />
    <glyph glyph-name="Uacute" unicode="&#xda;" horiz-adv-x="1370" 
d="M1092 1407q63 0 110 -8v-907q0 -250 -139 -384t-378 -134t-378 132q-139 133 -139 386v903l12 12h84q66 0 94 -33t27 -106v-776q0 -168 76 -255t223 -87q299 0 299 342v907q46 8 109 8zM475 1602l416 245q31 -23 59 -73t35 -99l-446 -184q-23 14 -41 47q-19 33 -23 64z
" />
    <glyph glyph-name="Ucircumflex" unicode="&#xdb;" horiz-adv-x="1370" 
d="M1092 1407q63 0 110 -8v-907q0 -250 -139 -384t-378 -134t-378 132q-139 133 -139 386v903l12 12h84q66 0 94 -33t27 -106v-776q0 -168 76 -255t223 -87q299 0 299 342v907q46 8 109 8zM909 1509l-231 154l-236 -170q-28 10 -56 38t-36 56l234 232q96 18 188 0l229 -217
q-9 -33 -37 -59t-55 -34z" />
    <glyph glyph-name="Udieresis" unicode="&#xdc;" horiz-adv-x="1370" 
d="M1092 1407q63 0 110 -8v-907q0 -250 -139 -384t-378 -134t-378 132q-139 133 -139 386v903l12 12h84q66 0 94 -33t27 -106v-776q0 -168 76 -255t223 -87q299 0 299 342v907q46 8 109 8zM464 1724q58 0 91 -17t33 -88t-25 -91t-99 -20t-94 27q-19 28 -19 78t18 87
q37 24 95 24zM1018 1620q0 -72 -23 -92t-97 -20t-96 23q-22 24 -22 80t21 89q37 24 95 24t90 -16t32 -88z" />
    <glyph glyph-name="Yacute" unicode="&#xdd;" horiz-adv-x="1030" 
d="M901 1409q55 0 105 -16l10 -15l-389 -929v-449q-47 -8 -113 -8t-106 8v453l-390 921q70 39 125 39q55 1 82 -21t47 -73l162 -393q41 -102 86 -256h10q23 82 91 260l186 469q39 10 94 10zM319 1602l416 245q31 -23 60 -73t34 -99l-446 -184q-23 14 -41 47q-19 33 -23 64z
" />
    <glyph glyph-name="Thorn" unicode="&#xde;" horiz-adv-x="1169" 
d="M800.5 944q-59.5 76 -186.5 76h-86q-86 0 -125 2v-553l205 2q130 0 191 75.5t61 198.5t-59.5 199zM293 1407q66 0 110 -8v-209q140 4 230 4q89 0 176.5 -28.5t149 -85t95 -139.5t33.5 -246.5t-127 -280.5t-344 -117h-213v-297q-45 -8 -111 -8t-106 8v1399q41 8 107 8z
" />
    <glyph glyph-name="germandbls" unicode="&#xdf;" horiz-adv-x="1284" 
d="M31 881q0 50 8 88l176 -4v71q0 190 122 293t326 103t326.5 -110.5t122.5 -297.5q0 -78 -31 -160h-4l4 -2q-78 -20 -123 -60t-45 -76q0 -65 76 -130l76 -68q152 -135 152 -263t-103 -210t-257 -82q-153 0 -275 60q2 37 21.5 82t47.5 69q81 -47 161 -47q81 0 130 34t48 75
q-2 85 -81 153l-84 72q-135 114 -135 227q0 74 54.5 140.5t146.5 103.5q8 41 8 72q0 111 -60.5 182.5t-176.5 71.5q-231 0 -232 -254v-1014q-46 -8 -110 -8t-105 8v801l-176 -2q-8 32 -8 82z" />
    <glyph glyph-name="agrave" unicode="&#xe0;" horiz-adv-x="1038" 
d="M500 467q-96 0 -148 -46t-53 -121q0 -75 37 -117t100 -42q131 0 242 123v195q-82 8 -178 8zM481 614q115 0 197 -14v80q0 182 -168 182q-117 0 -322 -78q-59 51 -61 154q209 94 424 94q160 0 248 -85t88 -257v-420q0 -127 57 -176q-25 -74 -80 -108q-121 23 -164 127
q-145 -139 -295 -139t-233 85q-82 86 -84 215q0 168 108 254t285 86zM377 1513l295 -325q-29 -68 -92 -86l-351 272q17 45 59 84t89 55z" />
    <glyph glyph-name="aacute" unicode="&#xe1;" horiz-adv-x="1038" 
d="M500 467q-96 0 -148 -46t-53 -121q0 -75 37 -117t100 -42q131 0 242 123v195q-82 8 -178 8zM481 614q115 0 197 -14v80q0 182 -168 182q-117 0 -322 -78q-59 51 -61 154q209 94 424 94q160 0 248 -85t88 -257v-420q0 -127 57 -176q-25 -74 -80 -108q-121 23 -164 127
q-145 -139 -295 -139t-233 85q-82 86 -84 215q0 168 108 254t285 86zM346 1188l295 325q47 -16 90 -55t60 -84l-351 -272q-30 8 -56 32t-38 54z" />
    <glyph glyph-name="acircumflex" unicode="&#xe2;" horiz-adv-x="1038" 
d="M500 467q-96 0 -148 -46t-53 -121q0 -75 37 -117t100 -42q131 0 242 123v195q-82 8 -178 8zM481 614q115 0 197 -14v80q0 182 -168 182q-117 0 -322 -78q-59 51 -61 154q209 94 424 94q160 0 248 -85t88 -257v-420q0 -127 57 -176q-25 -74 -80 -108q-121 23 -164 127
q-145 -139 -295 -139t-233 85q-82 86 -84 215q0 168 108 254t285 86zM696 1118l-190 187l-205 -197q-63 25 -98 88l217 272q78 27 178 2l201 -258q-31 -67 -103 -94z" />
    <glyph glyph-name="atilde" unicode="&#xe3;" horiz-adv-x="1038" 
d="M500 467q-96 0 -148 -46t-53 -121q0 -75 37 -117t100 -42q131 0 242 123v195q-82 8 -178 8zM481 614q115 0 197 -14v80q0 182 -168 182q-117 0 -322 -78q-59 51 -61 154q209 94 424 94q160 0 248 -85t88 -257v-420q0 -127 57 -176q-25 -74 -80 -108q-121 23 -164 127
q-145 -139 -295 -139t-233 85q-82 86 -84 215q0 168 108 254t285 86zM647 1313q52 0 90 53l23 29q32 1 62 -19t42 -47l-18 -41q-68 -150 -205 -149q-54 -1 -117 30l-112 56q-88 50 -146 -33l-22 -29q-31 1 -62 19t-43 47l19 41q68 150 204 149q55 0 117 -30l113 -58
q31 -18 55 -18z" />
    <glyph glyph-name="adieresis" unicode="&#xe4;" horiz-adv-x="1038" 
d="M500 467q-96 0 -148 -46t-53 -121q0 -75 37 -117t100 -42q131 0 242 123v195q-82 8 -178 8zM481 614q115 0 197 -14v80q0 182 -168 182q-117 0 -322 -78q-59 51 -61 154q209 94 424 94q160 0 248 -85t88 -257v-420q0 -127 57 -176q-25 -74 -80 -108q-121 23 -164 127
q-145 -139 -295 -139t-233 85q-82 86 -84 215q0 168 108 254t285 86zM426 1253q0 -66 -26 -85t-90 -19t-97 25q-16 26 -16 86q0 61 30 80q31 20 89 20t84 -20t26 -87zM578 1261q0 58 24 78q25 21 87 21t90 -16t28 -88q0 -71 -24 -89t-87 -18t-102 25q-16 29 -16 87z" />
    <glyph glyph-name="aring" unicode="&#xe5;" horiz-adv-x="1038" 
d="M500 467q-96 0 -148 -46t-53 -121q0 -75 37 -117t100 -42q131 0 242 123v195q-82 8 -178 8zM481 614q115 0 197 -14v80q0 182 -168 182q-117 0 -322 -78q-59 51 -61 154q209 94 424 94q160 0 248 -85t88 -257v-420q0 -127 57 -176q-25 -74 -80 -108q-121 23 -164 127
q-145 -139 -295 -139t-233 85q-82 86 -84 215q0 168 108 254t285 86zM604 1335q0 47 -29 80t-73 33t-73 -30q-28 -30 -29 -80t27 -82t74 -32q47 0 75 32t28 79zM499 1104q-107 0 -176 68t-69 167t70 163q70 65 177 66t177 -65t71 -165t-71 -167q-72 -67 -179 -67z" />
    <glyph glyph-name="ae" unicode="&#xe6;" horiz-adv-x="1599" 
d="M1098 881q-193 0 -207 -289h407v24q0 117 -48 191t-152 74zM436 141q154 0 264 142q-18 76 -24 174q-93 10 -183 10q-91 0 -142.5 -46t-51.5 -121t37 -117t100 -42zM1503 605q0 -89 -16 -167h-596q6 -139 58 -216t179 -77t281 80q53 -51 66 -137q-159 -115 -387 -115
t-330 170q-164 -170 -367 -170q-140 0 -221.5 87.5t-81.5 215.5q0 168 107.5 253t285.5 85q115 0 197 -14v82q0 180 -166 180q-127 0 -324 -78q-59 51 -61 154q209 94 405.5 94t278.5 -125q111 131 292 131t290.5 -121.5t109.5 -311.5z" />
    <glyph glyph-name="ccedilla" unicode="&#xe7;" horiz-adv-x="964" 
d="M471 -338q98 0 98 80q0 41 -27.5 60.5t-55.5 19.5t-52 -10q-29 11 -35 36q12 57 43 129q-165 19 -258.5 159t-93.5 353q0 266 122 407.5t295 141.5q174 0 278 -92t104 -213t-107 -121q-53 0 -88 9v22q0 231 -180 231q-98 0 -151.5 -94t-53.5 -280q0 -352 232 -353
q115 0 247 103q29 -16 55.5 -53t35.5 -72q-125 -125 -306 -148q-20 -39 -22 -53q86 -4 138 -53t52 -132t-72 -139.5t-170 -56.5q-99 0 -165 41q4 61 43 107q45 -29 94 -29z" />
    <glyph glyph-name="egrave" unicode="&#xe8;" horiz-adv-x="1024" 
d="M516 881q-195 0 -209 -289h414v26q0 117 -50 190q-51 73 -155 73zM924 604q0 -90 -15 -166h-602q7 -141 61 -217t186 -76t275 78q51 -47 68 -135q-164 -115 -385 -115t-321 145q-101 145 -101 385q0 239 112 387t307 148t305 -122t110 -312zM399 1513l295 -325
q-29 -68 -92 -86l-350 272q16 45 58 84t89 55z" />
    <glyph glyph-name="eacute" unicode="&#xe9;" horiz-adv-x="1024" 
d="M516 881q-195 0 -209 -289h414v26q0 117 -50 190q-51 73 -155 73zM924 604q0 -90 -15 -166h-602q7 -141 61 -217t186 -76t275 78q51 -47 68 -135q-164 -115 -385 -115t-321 145q-101 145 -101 385q0 239 112 387t307 148t305 -122t110 -312zM369 1188l295 325
q47 -16 90 -55t59 -84l-350 -272q-29 8 -55 32t-39 54z" />
    <glyph glyph-name="ecircumflex" unicode="&#xea;" horiz-adv-x="1024" 
d="M516 881q-195 0 -209 -289h414v26q0 117 -50 190q-51 73 -155 73zM924 604q0 -90 -15 -166h-602q7 -141 61 -217t186 -76t275 78q51 -47 68 -135q-164 -115 -385 -115t-321 145q-101 145 -101 385q0 239 112 387t307 148t305 -122t110 -312zM717 1118l-191 187l-204 -197
q-63 25 -99 88l217 272q78 27 178 2l201 -258q-30 -67 -102 -94z" />
    <glyph glyph-name="edieresis" unicode="&#xeb;" horiz-adv-x="1024" 
d="M516 881q-195 0 -209 -289h414v26q0 117 -50 190q-51 73 -155 73zM924 604q0 -90 -15 -166h-602q7 -141 61 -217t186 -76t275 78q51 -47 68 -135q-164 -115 -385 -115t-321 145q-101 145 -101 385q0 239 112 387t307 148t305 -122t110 -312zM330 1149q-64 0 -97 25
q-16 26 -16 86q0 61 31 80q31 20 89 20t84 -20q25 -20 25 -87q0 -66 -26 -85t-90 -19zM598 1261q0 58 25 78q25 21 87 21t90 -16t28 -88q0 -71 -24 -89t-88 -18t-102 25q-16 29 -16 87z" />
    <glyph glyph-name="igrave" unicode="&#xec;" horiz-adv-x="555" 
d="M399 836v-836q-39 -8 -105 -8t-106 8v750q0 58 -20 82t-70 24h-22q-10 45 -10 76t10 78q68 8 129 8h28q78 0 122 -49t44 -133zM133 1513l295 -325q-29 -68 -92 -86l-350 272q16 45 58 84t89 55z" />
    <glyph glyph-name="iacute" unicode="&#xed;" horiz-adv-x="555" 
d="M399 836v-836q-39 -8 -105 -8t-106 8v750q0 58 -20 82t-70 24h-22q-10 45 -10 76t10 78q68 8 129 8h28q78 0 122 -49t44 -133zM104 1188l295 325q47 -16 90 -55t60 -84l-350 -272q-29 8 -56 32t-39 54z" />
    <glyph glyph-name="icircumflex" unicode="&#xee;" horiz-adv-x="555" 
d="M399 836v-836q-39 -8 -105 -8t-106 8v750q0 58 -20 82t-70 24h-22q-10 45 -10 76t10 78q68 8 129 8h28q78 0 122 -49t44 -133zM453 1118l-191 187l-205 -197q-63 25 -98 88l217 272q78 27 178 2l201 -258q-30 -67 -102 -94z" />
    <glyph glyph-name="idieresis" unicode="&#xef;" horiz-adv-x="555" 
d="M399 836v-836q-39 -8 -105 -8t-106 8v750q0 58 -20 82t-70 24h-22q-10 45 -10 76t10 78q68 8 129 8h28q78 0 122 -49t44 -133zM66 1149q-64 0 -97 25q-16 26 -16 86q0 61 31 80q31 20 89 20t84 -20q25 -20 25 -87q0 -66 -26 -85t-90 -19zM334 1261q0 58 24 78
q26 21 88 21t90 -16t28 -88q0 -71 -24 -89t-88 -18t-102 25q-16 29 -16 87z" />
    <glyph glyph-name="eth" unicode="&#xf0;" horiz-adv-x="1058" 
d="M754 502q0 166 -33 276q-90 61 -191 62q-225 0 -225 -354q1 -354 225 -353q224 0 224 369zM971 502q0 -240 -116.5 -384.5t-324.5 -144.5t-326 143.5t-118 369t115 368.5t317 143q68 0 148 -34q-47 125 -158 237l-203 -141q-62 44 -78 112l176 121q-62 51 -163 105
q6 39 30.5 79t53.5 56q129 -55 233 -135l178 123q68 -51 76 -111l-149 -102q309 -309 309 -805z" />
    <glyph glyph-name="ntilde" unicode="&#xf1;" horiz-adv-x="1118" 
d="M268 -8q-68 0 -108 8v1008l12 12h80q111 0 117 -127q150 137 325 137q137 0 205 -91t68 -245v-477q0 -121 34 -186q-53 -45 -123 -45t-97 34q-26 34 -25 101v520q0 105 -28 151t-96 46t-138 -34t-123 -93v-711q-35 -8 -103 -8zM659 1331q31 -18 56 -18q53 0 90 53l22 29
q31 1 62 -19t43 -47l-19 -41q-68 -150 -204 -149q-54 -1 -117 30l-113 56q-31 18 -70 19q-38 1 -75 -52l-23 -29q-31 1 -61 19t-43 47l18 41q68 150 205 149q55 0 117 -30z" />
    <glyph glyph-name="ograve" unicode="&#xf2;" horiz-adv-x="1064" 
d="M533 877q-224 0 -224 -371t224 -371t225 371q-1 371 -225 371zM90 506q0 239 116 385q116 147 326 147q211 0 327 -146q115 -147 115 -404t-145 -402q-113 -113 -310 -113t-313 147t-116 386zM408 1513l294 -325q-29 -68 -92 -86l-350 272q16 45 58 84q43 39 90 55z" />
    <glyph glyph-name="oacute" unicode="&#xf3;" horiz-adv-x="1064" 
d="M533 877q-224 0 -224 -371t224 -371t225 371q-1 371 -225 371zM90 506q0 239 116 385q116 147 326 147q211 0 327 -146q115 -147 115 -404t-145 -402q-113 -113 -310 -113t-313 147t-116 386zM377 1188l295 325q47 -16 90 -55t59 -84l-350 -272q-29 8 -55 32t-39 54z" />
    <glyph glyph-name="ocircumflex" unicode="&#xf4;" horiz-adv-x="1064" 
d="M533 877q-224 0 -224 -371t224 -371t225 371q-1 371 -225 371zM90 506q0 239 116 385q116 147 326 147q211 0 327 -146q115 -147 115 -404t-145 -402q-113 -113 -310 -113t-313 147t-116 386zM727 1118l-190 187l-205 -197q-63 25 -99 88l218 272q78 27 178 2l200 -258
q-30 -67 -102 -94z" />
    <glyph glyph-name="otilde" unicode="&#xf5;" horiz-adv-x="1064" 
d="M533 877q-224 0 -224 -371t224 -371t225 371q-1 371 -225 371zM90 506q0 239 116 385q116 147 326 147q211 0 327 -146q115 -147 115 -404t-145 -402q-113 -113 -310 -113t-313 147t-116 386zM678 1313q52 0 90 53l23 29q31 1 61 -19t43 -47l-18 -41q-68 -150 -205 -149
q-54 -1 -117 30l-113 56q-32 18 -70 19t-75 -52l-23 -29q-32 1 -62 19t-42 47l18 41q68 150 205 149q55 0 117 -30l113 -58q31 -18 55 -18z" />
    <glyph glyph-name="odieresis" unicode="&#xf6;" horiz-adv-x="1064" 
d="M533 877q-224 0 -224 -371t224 -371t225 371q-1 371 -225 371zM90 506q0 239 116 385q116 147 326 147q211 0 327 -146q115 -147 115 -404t-145 -402q-113 -113 -310 -113t-313 147t-116 386zM457 1253q0 -66 -26 -85t-90 -19t-97 25q-17 27 -17 87t31 79q31 20 89 20
t84 -20t26 -87zM608 1262q0 57 25 77q25 21 87 21t90 -16t28 -88q0 -71 -24 -89t-87 -18t-102 25q-17 31 -17 88z" />
    <glyph glyph-name="divide" unicode="&#xf7;" 
d="M106 600q0 52 9 94h856q8 -42 8 -96t-8 -86h-856q-9 36 -9 88zM450 329.5q32 16.5 97 14.5q64 -2 90.5 -13.5t28.5 -73.5t-10.5 -98.5t-96.5 -36.5t-123 25q-18 39 -18 102q0 64 32 80.5zM418 963q0 47 18 90q42 25 94 25q86 -1 112 -22t26 -93q-6 -78 -26.5 -91.5
t-96.5 -15.5t-109 23q-18 37 -18 84z" />
    <glyph glyph-name="oslash" unicode="&#xf8;" horiz-adv-x="1069" 
d="M528 883q-118 0 -176.5 -101.5t-58.5 -260.5t37 -247l307 584q-49 25 -109 25zM536 129q122 0 180 101t58 262t-39 251l-309 -587q45 -27 110 -27zM229 90q-137 138 -137 398t116 405t324 145q102 0 187 -37l72 125q78 -12 120 -67l-77 -135q143 -143 143 -403t-117 -404
t-328 -144q-104 0 -186 37l-74 -125q-78 10 -120 68z" />
    <glyph glyph-name="ugrave" unicode="&#xf9;" horiz-adv-x="1120" 
d="M152 317v478q0 123 -35 184q51 45 133 45q113 0 112 -133v-522q0 -105 27 -151t95 -46t137 34q70 34 124 91v715q57 8 105 8t108 -8v-725q0 -143 58 -195q-23 -74 -80 -106q-129 23 -172 147q-160 -152 -342 -151q-134 0 -202 92t-68 243zM424 1513l295 -325
q-29 -68 -92 -86l-351 272q16 45 58 84t90 55z" />
    <glyph glyph-name="uacute" unicode="&#xfa;" horiz-adv-x="1120" 
d="M152 317v478q0 123 -35 184q51 45 133 45q113 0 112 -133v-522q0 -105 27 -151t95 -46t137 34q70 34 124 91v715q57 8 105 8t108 -8v-725q0 -143 58 -195q-23 -74 -80 -106q-129 23 -172 147q-160 -152 -342 -151q-134 0 -202 92t-68 243zM395 1188l295 325
q47 -16 90 -55t60 -84l-351 -272q-29 8 -55 32t-39 54z" />
    <glyph glyph-name="ucircumflex" unicode="&#xfb;" horiz-adv-x="1120" 
d="M152 317v478q0 123 -35 184q51 45 133 45q113 0 112 -133v-522q0 -105 27 -151t95 -46t137 34q70 34 124 91v715q57 8 105 8t108 -8v-725q0 -143 58 -195q-23 -74 -80 -106q-129 23 -172 147q-160 -152 -342 -151q-134 0 -202 92t-68 243zM743 1118l-190 187l-205 -197
q-63 25 -98 88l217 272q78 27 178 2l201 -258q-31 -67 -103 -94z" />
    <glyph glyph-name="udieresis" unicode="&#xfc;" horiz-adv-x="1120" 
d="M152 317v478q0 123 -35 184q51 45 133 45q113 0 112 -133v-522q0 -105 27 -151t95 -46t137 34q70 34 124 91v715q57 8 105 8t108 -8v-725q0 -143 58 -195q-23 -74 -80 -106q-129 23 -172 147q-160 -152 -342 -151q-134 0 -202 92t-68 243zM473 1253q0 -66 -26 -85
t-90 -19t-97 25q-16 26 -16 86q0 61 30 80q31 20 89 20t84 -20t26 -87zM625 1261q0 58 24 78q25 21 87 21t90 -16t28 -88q0 -71 -24 -89t-87 -18t-102 25q-16 29 -16 87z" />
    <glyph glyph-name="yacute" unicode="&#xfd;" horiz-adv-x="958" 
d="M10 -406q0 35 13 78q12 43 34 66q68 -27 158 -27q90 1 145 63t95 191l6 25q-66 2 -103 26t-55 84l-270 895q74 31 129 31q80 0 106 -94l140 -471q10 -33 28 -108t47 -193q2 -14 19 -15l225 867q32 8 93 8t108 -14l6 -13l-270 -960q-76 -265 -174 -373t-283 -106
q-100 0 -149 14q-48 14 -48 26zM324 1188l294 325q46 -16 90 -55t60 -84l-350 -272q-30 8 -56 32t-38 54z" />
    <glyph glyph-name="thorn" unicode="&#xfe;" horiz-adv-x="1081" 
d="M590 852q-133 0 -225 -133v-494q244 -157 327.5 -22t83.5 309t-53 257t-133 83zM365 -305q0 -74 -25 -104.5t-90 -30.5h-78l-12 12v1921l12 12h78q66 0 90.5 -30.5t24.5 -104.5v-457q121 115 281 115t252.5 -140t92.5 -382t-113.5 -383t-295.5 -141q-98 0 -217 67v-354z
" />
    <glyph glyph-name="ydieresis" unicode="&#xff;" horiz-adv-x="958" 
d="M10 -406q0 35 13 78q12 43 34 66q68 -27 158 -27q90 1 145 63t95 191l6 25q-66 2 -103 26t-55 84l-270 895q74 31 129 31q80 0 106 -94l140 -471q10 -33 28 -108t47 -193q2 -14 19 -15l225 867q32 8 93 8t108 -14l6 -13l-270 -960q-76 -265 -174 -373t-283 -106
q-100 0 -149 14q-48 14 -48 26zM286 1149q-64 0 -98 25q-16 26 -16 86q0 61 31 80q31 20 89 20t84 -20t26 -87q0 -66 -26 -85t-90 -19zM553 1261q0 58 25 78q25 21 87 21t90 -16q27 -16 27 -88q0 -71 -24 -89t-86 -18q-64 0 -103 25q-16 29 -16 87z" />
    <glyph glyph-name="Aogonek" unicode="&#x104;" horiz-adv-x="1251" 
d="M412 516l309 2q41 -2 102 -2l-94 297q-73 230 -108 371h-11q-48 -196 -80 -297zM248 -2q-32 -8 -91 -8t-110 14l-6 10l463 1385q39 8 126 8t122 -8l458 -1385q-180 -113 -180 -225q0 -43 28 -68.5t78 -25.5t113 35q45 -33 49 -103q-84 -71 -200 -71t-177 51t-61 139
q0 133 148 260q-31 23 -54 94l-75 240l-123 -2h-400z" />
    <glyph glyph-name="aogonek" unicode="&#x105;" horiz-adv-x="1099" 
d="M500 467q-96 0 -148.5 -46t-52.5 -121t37 -117t100 -42q131 0 242 123v195q-82 8 -178 8zM481 614q115 0 197 -14v80q0 182 -168 182q-117 0 -322 -78q-59 51 -61 154q209 94 424 94q160 0 248 -85t88 -257v-420q0 -119 65 -172q-18 -59 -92 -121q-125 -104 -125 -188
q0 -43 28 -68.5t78 -25.5t113 35q45 -33 50 -103q-84 -71 -200 -71t-176.5 51t-60.5 139q0 162 189 295q-35 35 -54 74q-145 -141 -296 -141t-234.5 86t-83.5 214q0 168 107.5 254t285.5 86z" />
    <glyph glyph-name="Cacute" unicode="&#x106;" horiz-adv-x="1236" 
d="M330 704q0 -264 88 -402t260 -138t358 155q84 -55 109 -141q-88 -88 -223 -145q-135 -58 -282 -59q-147 0 -253 60q-107 60 -167 160q-120 198 -120 498q0 355 156 544t386 189t372 -116q141 -116 141 -283q0 -123 -123 -123q-39 0 -90 12q0 229 -156 307q-55 28 -135 27
q-157 0 -239 -141q-82 -140 -82 -404zM453 1602l415 245q31 -23 60 -73t35 -99l-447 -184q-23 14 -41 47t-22 64z" />
    <glyph glyph-name="cacute" unicode="&#x107;" horiz-adv-x="964" 
d="M694 643q0 231 -180 231q-98 0 -152 -94t-53 -280q0 -352 232 -353q115 0 247 103q29 -16 56 -53t35 -72q-152 -152 -364 -152t-318 148q-107 148 -107 392t124 386q124 141 297 140q172 -1 275 -93t103 -213t-107 -121q-53 1 -88 9v22zM360 1188l295 325q47 -16 90 -55
t60 -84l-350 -272q-29 8 -56 32t-39 54z" />
    <glyph glyph-name="Ccaron" unicode="&#x10c;" horiz-adv-x="1236" 
d="M330 704q0 -264 88 -402t260 -138t358 155q84 -55 109 -141q-88 -88 -223 -145q-135 -58 -282 -59q-147 0 -253 60q-107 60 -167 160q-120 198 -120 498q0 355 156 544t386 189t372 -116q141 -116 141 -283q0 -123 -123 -123q-39 0 -90 12q0 229 -156 307q-55 28 -135 27
q-157 0 -239 -141q-82 -140 -82 -404zM426 1827l229 -152l236 168q29 -10 57 -37t37 -55l-235 -231q-98 -20 -189 -2l-229 217q24 69 94 92z" />
    <glyph glyph-name="ccaron" unicode="&#x10d;" horiz-adv-x="964" 
d="M694 643q0 231 -180 231q-98 0 -152 -94t-53 -280q0 -352 232 -353q115 0 247 103q29 -16 56 -53t35 -72q-152 -152 -364 -152t-318 148q-107 148 -107 392t124 386q124 141 297 140q172 -1 275 -93t103 -213t-107 -121q-53 1 -88 9v22zM319 1489l191 -186l207 198
q61 -20 98 -88l-219 -274q-72 -29 -178 -2l-201 258q34 69 102 94z" />
    <glyph glyph-name="Dcaron" unicode="&#x10e;" horiz-adv-x="1327" 
d="M649 1231h-246v-1065h246q348 0 348 532q0 279 -87 406t-261 127zM649 1407q313 0 454 -207q120 -172 120 -504q0 -206 -44 -352t-173 -250q-31 -25 -73 -44q-133 -60 -287 -60q-89 0 -447 8l-13 14v1374l13 15q178 6 450 6zM399 1827l230 -152l235 168q29 -10 58 -37
t36 -55l-235 -231q-98 -20 -188 -2l-230 217q24 69 94 92z" />
    <glyph glyph-name="dcaron" unicode="&#x10f;" horiz-adv-x="1222" 
d="M492 150q133 0 223 129v507q-115 74 -203 74t-147 -92t-59 -271t52 -264q54 -83 134 -83zM498 1028q96 0 217 -67v532l14 12h80q63 -1 88 -31t25 -104v-1081q0 -143 57 -195q-8 -30 -31 -62t-47 -46q-117 23 -162 127q-121 -139 -295 -139t-264 140t-90 383t117 394
q106 137 291 137zM1049 1159l24 438q41 10 101 2t94 -32l-97 -418q-29 -10 -65 -7t-57 17z" />
    <glyph glyph-name="Eogonek" unicode="&#x118;" horiz-adv-x="1167" 
d="M1028 1309q0 -59 -16 -95h-615v-419l113 2h401q24 -99 0 -181h-245q-244 0 -267 2v-335l-2 -105q61 6 135 6h531q0 -78 -16.5 -117.5t-65.5 -60.5q-86 -35 -137 -95.5t-51 -113.5q0 -100 98 -100q57 0 121 33q47 -41 47 -103q-84 -71 -200 -71t-176 50t-60 142
q0 141 145 250h-459q-57 0 -91 36t-34 99v1253l15 13h823q6 -31 6 -90z" />
    <glyph glyph-name="eogonek" unicode="&#x119;" horiz-adv-x="1024" 
d="M516 881q-195 0 -209 -289h414v26q0 117 -50.5 190t-154.5 73zM554 145q132 0 275 78q51 -47 68 -135q-63 -45 -141 -72q-143 -106 -144 -227q0 -41 28 -67.5t78 -26.5t113 35q47 -41 48 -103q-84 -71 -200 -71t-176.5 49t-60.5 157t119 213l-49 -2q-218 0 -320 145
t-102 386t113 387.5t306.5 146.5t304 -122t110.5 -316q0 -94 -15 -162h-602q6 -141 60.5 -217t186.5 -76z" />
    <glyph glyph-name="Ecaron" unicode="&#x11a;" horiz-adv-x="1159" 
d="M532 184h531q0 -55 -6 -84q-18 -102 -139 -102h-609q-57 0 -91 36t-34 99v1253l15 13h823q6 -33 6 -87t-16 -98h-615l2 -133v-286l127 2h385q11 -37 11 -91t-11 -90h-385q-80 0 -127 2v-335l-2 -105q61 6 135 6zM379 1827l229 -152l236 168q30 -10 58 -37t36 -55
l-236 -231q-98 -20 -188 -2l-229 217q24 69 94 92z" />
    <glyph glyph-name="ecaron" unicode="&#x11b;" horiz-adv-x="1024" 
d="M516 881q-195 0 -209 -289h414v26q0 117 -50 190q-51 73 -155 73zM924 604q0 -90 -15 -166h-602q7 -141 61 -217t186 -76t275 78q51 -47 68 -135q-164 -115 -385 -115t-321 145q-101 145 -101 385q0 239 112 387t307 148t305 -122t110 -312zM330 1489l190 -186l207 198
q61 -20 98 -88l-219 -274q-72 -29 -178 -2l-201 258q35 69 103 94z" />
    <glyph glyph-name="Hbar" unicode="&#x126;" horiz-adv-x="1400" 
d="M987 1012h-573v-49l-2 -152l116 2h344l117 -2l-2 152v49zM302.5 -8q-64.5 0 -107.5 8v1012h-146q-10 45 -10 84t10 86h146v217q43 8 107.5 8t111.5 -8v-217h573v217q43 8 107.5 8t111.5 -8v-217h146q8 -39 8 -87t-8 -83h-146v-1012q-47 -8 -111.5 -8t-107.5 8v477l2 152
l-117 -2h-344l-116 2l2 -152v-477q-47 -8 -111.5 -8z" />
    <glyph glyph-name="hbar" unicode="&#x127;" horiz-adv-x="1120" 
d="M12 1239q0 34 11 70l143 -2v186l12 12h82q63 0 88 -30.5t25 -104.5v-65l327 4q9 -40 9 -77.5t-9 -68.5l-327 4v-274q150 135 323 135q137 0 205 -91t68 -245v-475q0 -123 32 -186q-53 -45 -123 -45t-95 33.5t-25 101.5v520q0 106 -28 151.5t-95.5 45.5t-138 -35
t-123.5 -92v-711q-40 -8 -103.5 -8t-103.5 8v1165l-143 -2q-11 42 -11 76z" />
    <glyph glyph-name="Itilde" unicode="&#x128;" horiz-adv-x="602" 
d="M300 1407q66 0 110 -8v-1399q-44 -8 -110 -8t-107 8v1399q41 8 107 8zM160 1796q62 0 121 -33l114 -53q32 -18 67 -19q36 -1 81 52l24 29q76 -2 107 -66l-19 -39q-70 -150 -209 -149q-50 -1 -120 30l-115 56q-74 33 -108 7q-17 -13 -40 -40l-24 -29q-31 0 -63 18t-44 46
l19 41q33 73 90 111t119 38z" />
    <glyph glyph-name="itilde" unicode="&#x129;" horiz-adv-x="555" 
d="M399 836v-836q-39 -8 -105 -8t-106 8v750q0 58 -20 82t-70 24h-22q-10 45 -10 76t10 78q68 8 129 8h28q78 0 122 -49t44 -133zM406 1313q53 0 90 53l22 29q31 1 62 -19t43 -47l-19 -41q-68 -150 -205 -149q-53 -1 -116 30l-113 56q-32 18 -70 19t-75 -52l-23 -29
q-32 1 -62 19t-42 47l18 41q68 150 205 149q55 0 117 -30l112 -58q32 -18 56 -18z" />
    <glyph glyph-name="dotlessi" unicode="&#x131;" horiz-adv-x="555" 
d="M399 836v-836q-39 -8 -105.5 -8t-105.5 8v750q0 57 -20.5 81.5t-69.5 24.5h-22q-10 45 -10 76t10 78q68 8 129 8h28q78 0 122 -49t44 -133z" />
    <glyph glyph-name="IJ" unicode="&#x132;" horiz-adv-x="1515" 
d="M300 1407q66 0 110 -8v-1399q-44 -8 -110 -8t-107 8v1399q41 8 107 8zM1139 479v920q43 8 109 8t108 -8v-889q0 -125 -16 -212t-60 -163q-86 -156 -342 -155q-180 0 -320 86q16 93 82 163q113 -67 228 -67t163 74t48 243z" />
    <glyph glyph-name="ij" unicode="&#x133;" horiz-adv-x="1118" 
d="M125 1308q0 68 31 84q32 16 108 15q76 0 98 -18q22 -19 23 -95q0 -76 -23 -96q-24 -20 -104 -22t-115 26q-18 38 -18 106zM399 836v-836q-39 -8 -105 -8t-106 8v750q0 58 -20 82t-70 24h-22q-10 45 -10 76t10 78q68 8 129 8h28q78 0 122 -49t44 -133zM705 1202
q-19 36 -19 100t22 83t111 24q71 -6 97 -15t32 -102q-6 -86 -26 -98t-103 -18q-79 -1 -114 26zM623 856q-11 42 -11 78t11 76q74 8 149 8h27q76 0 119 -48t43 -134v-799q0 -267 -74 -369q-37 -51 -92 -75t-129 -42q-53 49 -62 130q87 40 116 95q30 55 32 158v816
q0 58 -20 82t-68 24h-41z" />
    <glyph glyph-name="Jcircumflex" unicode="&#x134;" horiz-adv-x="917" 
d="M541 479v920q43 8 109 8t108 -8v-889q0 -125 -16 -212t-60 -163q-86 -156 -342 -155q-180 0 -320 86q16 93 82 163q113 -67 228 -67t163 74t48 243zM881 1509l-232 154l-235 -170q-27 10 -56 38t-36 56l233 232q96 18 188 0l230 -217q-9 -33 -37 -59t-55 -34z" />
    <glyph glyph-name="jcircumflex" unicode="&#x135;" horiz-adv-x="569" 
d="M412 836v-799q0 -281 -72 -365t-223 -121q-51 49 -62 130q86 43 117 95t31 158v816q1 58 -19 82t-69 24h-41q-10 45 -11 76q0 31 11 78q74 8 149 8h27q76 0 119 -49t43 -133zM465 1118l-191 187l-204 -197q-63 25 -99 88l217 272q78 27 179 2l200 -258q-30 -67 -102 -94z
" />
    <glyph glyph-name="Kcommaaccent" unicode="&#x136;" horiz-adv-x="1220" 
d="M550 629q-83 0 -147 -4v-625q-43 -8 -109 -8t-108 8v1399q41 8 108 8t109 -8v-588l115 4q29 0 44 12t34 45l262 445q29 49 61 73t195 9l14 -19l-309 -524q-39 -66 -82 -102q97 -18 151 -78t97 -174l111 -297q41 -107 92 -148q-45 -70 -148 -69q-59 0 -89 30t-54 101
l-111 301q-43 115 -98 162t-138 47zM774 -225q0 -102 -67 -186q-68 -83 -187 -128q-55 16 -69 90q123 80 122 197q0 57 -26 107q41 27 101 35t106 -9q20 -49 20 -106z" />
    <glyph glyph-name="kcommaaccent" unicode="&#x137;" horiz-adv-x="1028" 
d="M264 -8q-64 0 -104 8v1493l12 12h82q63 -1 88 -31t25 -104v-758l69 4q33 0 49 29l181 283q51 90 131 90t118 -2l13 -17l-223 -354q-31 -49 -68 -80q127 -32 188 -184l70 -170q47 -125 98 -160q-57 -66 -141 -65q-53 0 -82 28t-53 90l-82 201q-33 80 -69 108
q-36 27 -85 27t-114 -4v-436q-39 -8 -103 -8zM682 -225q0 -101 -68 -185t-186 -129q-55 16 -70 90q123 80 123 197q0 57 -26 107q41 27 101 35t106 -9q20 -49 20 -106z" />
    <glyph glyph-name="kgreenlandic" unicode="&#x138;" horiz-adv-x="1028" 
d="M481 440q-49 0 -114 -4v-436q-39 -8 -102.5 -8t-104.5 8v1008l12 12h82q63 0 88 -31t25 -104v-273l69 4q33 0 49 29l181 283q51 90 131 90t118 -2l13 -17l-223 -354q-31 -49 -68 -80q127 -32 188 -184l70 -170q47 -125 98 -160q-57 -66 -141 -65q-53 0 -82 27.5t-53 90.5
l-82 201q-33 80 -69 107.5t-85 27.5z" />
    <glyph glyph-name="Ldot" unicode="&#x13f;" horiz-adv-x="1048" 
d="M586 188h407q0 -45 -6 -86q-18 -104 -141 -104h-535q-57 0 -92 36t-35 99v1262l15 12h82q67 0 95 -33t27 -106v-1088q85 8 183 8zM705 819q39 27 105 27t89 -14t29 -38q6 -26 6 -94t-32 -83t-96 -15q-63 0 -89 18q-27 18 -27 95t15 104z" />
    <glyph glyph-name="ldot" unicode="&#x140;" horiz-adv-x="716" 
d="M444 158h76q31 -89 12 -152q-82 -14 -174 -14q-203 0 -202 211v1290l14 12h80q63 1 89 -31t26 -104v-1120q-1 -92 79 -92zM508 819q39 27 105 27t90 -14t29 -38q5 -26 5 -94t-24 -78q-40 -20 -103 -20t-90 18q-26 18 -26 94q0 78 14 105z" />
    <glyph glyph-name="Lslash" unicode="&#x141;" horiz-adv-x="1060" 
d="M416 1268v-443l360 123l17 -8q23 -68 4 -166l-381 -125v-469q84 8 182 8h408q0 -59 -7 -86q-16 -104 -141 -104h-532q-57 0 -92 35t-35 100v451l-142 -49l-14 8q-25 78 -4 166l160 55v631l12 12h84q66 0 93.5 -32.5t27.5 -106.5z" />
    <glyph glyph-name="lslash" unicode="&#x142;" horiz-adv-x="677" 
d="M504 158h76q16 -45 16 -91.5t-4 -60.5q-82 -14 -174 -14q-201 0 -201 211v422l-143 -74l-17 8q-20 78 -2 160l162 84v690l12 12h78q66 0 90.5 -30.5t24.5 -104.5v-461l162 86l16 -8q20 -78 2 -160l-180 -94v-483q0 -92 82 -92z" />
    <glyph glyph-name="Nacute" unicode="&#x143;" horiz-adv-x="1392" 
d="M1075 -8q-74 0 -131 8l-436 858q-66 137 -129 285l-8 -2q18 -317 18 -502v-639q-49 -8 -102 -8t-101 8v1397q57 10 130 10t130 -8l433 -858q29 -61 75 -167t60 -130l8 2q-16 262 -16 516v510q0 74 26 104t90 31h72l12 -10v-1395q-57 -10 -131 -10zM496 1602l415 245
q31 -23 60 -73t35 -99l-447 -184q-23 14 -41 47t-22 64z" />
    <glyph glyph-name="nacute" unicode="&#x144;" horiz-adv-x="1118" 
d="M268 -8q-68 0 -108 8v1008l12 12h80q111 0 117 -127q150 137 325 137q137 0 205 -91t68 -245v-477q0 -121 34 -186q-53 -45 -123 -45t-97 34q-26 34 -25 101v520q0 105 -28 151t-96 46t-138 -34t-123 -93v-711q-35 -8 -103 -8zM416 1188l295 325q47 -16 90 -55t59 -84
l-350 -272q-30 8 -56 32t-38 54z" />
    <glyph glyph-name="Ncaron" unicode="&#x147;" horiz-adv-x="1392" 
d="M1075 -8q-74 0 -131 8l-436 858q-66 137 -129 285l-8 -2q18 -317 18 -502v-639q-49 -8 -102 -8t-101 8v1397q57 10 130 10t130 -8l433 -858q29 -61 75 -167t60 -130l8 2q-16 262 -16 516v510q0 74 26 104t90 31h72l12 -10v-1395q-57 -10 -131 -10zM469 1827l229 -152
l236 168q30 -10 58 -37t36 -55l-235 -231q-98 -20 -189 -2l-229 217q24 69 94 92z" />
    <glyph glyph-name="ncaron" unicode="&#x148;" horiz-adv-x="1118" 
d="M268 -8q-68 0 -108 8v1008l12 12h80q111 0 117 -127q150 137 325 137q137 0 205 -91t68 -245v-477q0 -121 34 -186q-53 -45 -123 -45t-97 34q-26 34 -25 101v520q0 105 -28 151t-96 46t-138 -34t-123 -93v-711q-35 -8 -103 -8zM377 1489l190 -186l207 198q61 -20 98 -88
l-219 -274q-72 -29 -178 -2l-201 258q35 69 103 94z" />
    <glyph glyph-name="OE" unicode="&#x152;" horiz-adv-x="1835" 
d="M664 1251q-86 0 -211 -86.5t-125 -464.5q0 -555 370 -555q80 0 172 29v1051q-120 26 -206 26zM1217 184h530q0 -98 -30.5 -142t-114.5 -44h-664q-188 -25 -262 -25q-280 0 -429 205.5t-149 521t149 520.5t429 205q76 0 258 -26h772q6 -31 6 -90t-16 -95h-617l2 -421
l129 4h385q24 -99 0 -181h-245q-246 0 -269 2v-335l-2 -103q82 4 138 4z" />
    <glyph glyph-name="oe" unicode="&#x153;" horiz-adv-x="1697" 
d="M1194 881q-193 0 -207 -289h408v24q0 119 -48.5 192t-152.5 73zM757 506q0 371 -224 371t-224 -371t224 -371t224 371zM1599 602q0 -92 -14 -164h-598q6 -137 57.5 -215t180.5 -78t280 78q51 -45 68 -133q-160 -117 -385 -117t-324 166q-104 -166 -322 -166t-335 144.5
t-117 387.5t116 388t334 145t328 -176q109 176 310 176t311 -121.5t110 -314.5z" />
    <glyph glyph-name="Racute" unicode="&#x154;" horiz-adv-x="1228" 
d="M629 741q137 0 193 70t57 176q0 248 -250 248q-158 0 -228 2v-500q160 4 228 4zM1104 987q0 -137 -73 -236t-189 -137q96 -35 145 -174l90 -239q39 -106 92 -148q-45 -68 -147 -67q-57 0 -87 30t-56 103l-103 276q-31 82 -75 125t-132 43h-168v-563q-43 -8 -109 -8
t-106 8v1386l13 15l440 6q217 0 341 -110t124 -310zM403 1602l416 245q31 -23 60 -73t34 -99l-446 -184q-23 14 -41 47q-19 33 -23 64z" />
    <glyph glyph-name="racute" unicode="&#x155;" horiz-adv-x="753" 
d="M635 1026q49 0 108 -12q0 -119 -51 -201q-18 6 -84 10q-139 0 -219 -155v-668q-39 -8 -105 -8t-106 8v702q0 139 -76 211q20 76 78 113q141 -31 187 -182q82 182 268 182zM258 1188l295 325q47 -16 90 -55t59 -84l-350 -272q-30 8 -56 32t-38 54z" />
    <glyph glyph-name="Rcommaaccent" unicode="&#x156;" horiz-adv-x="1228" 
d="M629 741q137 0 193 70t57 176q0 248 -250 248q-158 0 -228 2v-500q160 4 228 4zM1104 987q0 -137 -73 -236t-189 -137q96 -35 145 -174l90 -239q39 -106 92 -148q-45 -68 -147 -67q-57 0 -87 30t-56 103l-103 276q-31 82 -75 125t-132 43h-168v-563q-43 -8 -109 -8
t-106 8v1386l13 15l440 6q217 0 341 -110t124 -310zM772 -225q0 -102 -67 -186q-68 -83 -187 -128q-55 16 -69 90q123 80 122 197q0 57 -26 107q41 27 101 35t106 -9q20 -49 20 -106z" />
    <glyph glyph-name="rcommaaccent" unicode="&#x157;" horiz-adv-x="753" 
d="M635 1026q49 0 108 -12q0 -119 -51 -201q-18 6 -84 10q-139 0 -219 -155v-668q-39 -8 -105 -8t-106 8v702q0 139 -76 211q20 76 78 113q141 -31 187 -182q82 182 268 182zM221 -252q0 57 -26 107q41 27 100 35t106 -9q20 -49 21 -106q0 -101 -68 -185t-186 -129
q-55 16 -70 90q123 80 123 197z" />
    <glyph glyph-name="Rcaron" unicode="&#x158;" horiz-adv-x="1228" 
d="M629 741q137 0 193 70t57 176q0 248 -250 248q-158 0 -228 2v-500q160 4 228 4zM1104 987q0 -137 -73 -236t-189 -137q96 -35 145 -174l90 -239q39 -106 92 -148q-45 -68 -147 -67q-57 0 -87 30t-56 103l-103 276q-31 82 -75 125t-132 43h-168v-563q-43 -8 -109 -8
t-106 8v1386l13 15l440 6q217 0 341 -110t124 -310zM379 1827l229 -152l236 168q30 -10 58 -37t36 -55l-236 -231q-98 -20 -188 -2l-229 217q24 69 94 92z" />
    <glyph glyph-name="rcaron" unicode="&#x159;" horiz-adv-x="753" 
d="M635 1026q49 0 108 -12q0 -119 -51 -201q-18 6 -84 10q-139 0 -219 -155v-668q-39 -8 -105 -8t-106 8v702q0 139 -76 211q20 76 78 113q141 -31 187 -182q82 182 268 182zM221 1489l191 -186l206 198q61 -20 99 -88l-219 -274q-72 -29 -179 -2l-200 258q34 69 102 94z
" />
    <glyph glyph-name="Sacute" unicode="&#x15a;" horiz-adv-x="1138" 
d="M565 156q121 0 192 53t70 139q0 141 -186 221l-242 105q-281 121 -280 354q0 167 129 283t343 115t425 -107q-2 -98 -80 -170q-197 96 -329 96q-131 0 -199 -54t-68 -129t42 -117t128 -77l238 -102q307 -132 307 -381q0 -184 -128 -298q-129 -114 -389 -114t-477 154
q8 100 93 168q213 -139 411 -139zM383 1602l416 245q31 -23 59 -73t35 -99l-447 -184q-23 14 -40 47q-19 33 -23 64z" />
    <glyph glyph-name="sacute" unicode="&#x15b;" horiz-adv-x="897" 
d="M400 133q103 0 154 35q50 35 50 92q0 90 -129 139l-115 43q-260 98 -260 293q0 141 102 222t266 81q165 0 329 -73q1 -41 -17 -86t-47 -70q-145 68 -272 68q-68 0 -108 -33t-40 -82t30 -76t97 -53l123 -47q260 -100 260 -307q0 -141 -108 -224q-109 -81 -295 -81
t-357 102q2 35 23 79q20 44 47 68q164 -90 267 -90zM297 1188l295 325q47 -16 90 -55t59 -84l-350 -272q-29 8 -55 32t-39 54z" />
    <glyph glyph-name="Scaron" unicode="&#x160;" horiz-adv-x="1138" 
d="M565 156q121 0 192 53t70 139q0 141 -186 221l-242 105q-281 121 -280 354q0 167 129 283t343 115t425 -107q-2 -98 -80 -170q-197 96 -329 96q-131 0 -199 -54t-68 -129t42 -117t128 -77l238 -102q307 -132 307 -381q0 -184 -128 -298q-129 -114 -389 -114t-477 154
q8 100 93 168q213 -139 411 -139zM354 1827l230 -152l235 168q29 -10 58 -37t36 -55l-235 -231q-98 -20 -189 -2l-229 217q24 69 94 92z" />
    <glyph glyph-name="scaron" unicode="&#x161;" horiz-adv-x="897" 
d="M400 133q103 0 154 35q50 35 50 92q0 90 -129 139l-115 43q-260 98 -260 293q0 141 102 222t266 81q165 0 329 -73q1 -41 -17 -86t-47 -70q-145 68 -272 68q-68 0 -108 -33t-40 -82t30 -76t97 -53l123 -47q260 -100 260 -307q0 -141 -108 -224q-109 -81 -295 -81
t-357 102q2 35 23 79q20 44 47 68q164 -90 267 -90zM260 1489l191 -186l206 198q61 -20 99 -88l-219 -274q-72 -29 -179 -2l-200 258q34 69 102 94z" />
    <glyph glyph-name="Tcaron" unicode="&#x164;" horiz-adv-x="1007" 
d="M505 -8q-62 0 -110 8v1065l2 152h-2l-116 -3h-244q-8 42 -8 92t8 93h942q12 -49 12 -94q0 -90 -123 -91h-133l-119 3v-1217q-47 -8 -109 -8zM270 1827l230 -152l235 168q29 -10 58 -37t36 -55l-235 -231q-98 -20 -188 -2l-230 217q24 69 94 92z" />
    <glyph glyph-name="tcaron" unicode="&#x165;" horiz-adv-x="747" 
d="M406 248q0 -90 83 -90h142q16 -45 16 -91t-4 -61q-119 -14 -229 -14q-215 0 -215 211v655l-152 -2q-8 35 -8 77t8 81l152 -4v180q1 74 25 104t87 31h80l15 -14v-303l251 6q24 -85 0 -158l-251 4v-612zM530 1159l25 438q41 10 100 2t95 -32l-97 -418q-29 -10 -66 -7
t-57 17z" />
    <glyph glyph-name="Uring" unicode="&#x16e;" horiz-adv-x="1370" 
d="M1092 1407q63 0 110 -8v-907q0 -250 -139 -384t-378 -134t-378 132q-139 133 -139 386v903l12 12h84q66 0 94 -33t27 -106v-776q0 -168 76 -255t223 -87q299 0 299 342v907q46 8 109 8zM683 1710q-52 0 -79 -35q-26 -35 -26 -77t26 -76t78 -35q51 0 76 35q24 34 24 76
t-23 77q-24 35 -76 35zM682 1366q-112 0 -180 67t-68 167t72 165q72 64 177 65t175 -65t71 -166q1 -101 -67 -167t-180 -66z" />
    <glyph glyph-name="uring" unicode="&#x16f;" horiz-adv-x="1120" 
d="M152 317v478q0 123 -35 184q51 45 133 45q113 0 112 -133v-522q0 -105 27 -151t95 -46t137 34q70 34 124 91v715q57 8 105 8t108 -8v-725q0 -143 58 -195q-23 -74 -80 -106q-129 23 -172 147q-160 -152 -342 -151q-134 0 -202 92t-68 243zM549 1448q-45 0 -73 -30
t-29 -80t27 -82t74 -32t75 32t28 79q0 47 -28 80q-29 33 -74 33zM549 1104q-53 0 -99 18q-91 36 -131 124q-18 42 -18 90q0 101 70 166t177 66t177 -65t71 -165t-71 -167q-71 -67 -176 -67z" />
    <glyph glyph-name="Ydieresis" unicode="&#x178;" horiz-adv-x="1030" 
d="M901 1409q55 0 105 -16l10 -15l-389 -929v-449q-47 -8 -113 -8t-106 8v453l-390 921q70 39 125 39q55 1 82 -21t47 -73l162 -393q41 -102 86 -256h10q23 82 91 260l186 469q39 10 94 10zM303 1724q59 0 92 -17t33 -88t-25 -91t-99 -20t-94 27q-19 28 -19 78t18 87
q35 24 94 24zM858 1620q0 -72 -22 -92t-97 -20t-97 23q-37 40 -16 130q5 23 15 39q37 24 95 24t90 -16t32 -88z" />
    <glyph glyph-name="Zacute" unicode="&#x179;" horiz-adv-x="1150" 
d="M1032 1254q0 -40 -28 -83l-515 -770q-47 -72 -159 -219l6 -6q129 12 246 12h213q164 0 241 39q18 -55 19 -106q0 -121 -152 -121h-778q-27 102 -27 145t29 86l516 777q20 31 162 217l-6 6q-90 -16 -320 -17h-329q-8 33 -9 79q0 46 17 106h843q31 -105 31 -145zM377 1602
l416 245q31 -23 59 -73t35 -99l-447 -184q-23 14 -41 47t-22 64z" />
    <glyph glyph-name="zacute" unicode="&#x17a;" horiz-adv-x="913" 
d="M324 848h-215q-8 27 -9 71q0 44 13 93h686q31 -92 31 -124t-27 -73l-334 -453q-41 -57 -158 -198l6 -8q88 8 189 8h98q156 0 219 29q20 -47 21 -93q0 -100 -133 -100h-611q-29 86 -28 121q-1 35 32 78l334 454q57 78 162 199l-6 8q-86 -12 -270 -12zM305 1188l295 325
q47 -16 90 -55t60 -84l-351 -272q-29 8 -55 32t-39 54z" />
    <glyph glyph-name="Zdotaccent" unicode="&#x17b;" horiz-adv-x="1150" 
d="M1032 1254q0 -40 -28 -83l-515 -770q-47 -72 -159 -219l6 -6q129 12 246 12h213q164 0 241 39q18 -55 19 -106q0 -121 -152 -121h-778q-27 102 -27 145t29 86l516 777q20 31 162 217l-6 6q-90 -16 -320 -17h-329q-8 33 -9 79q0 46 17 106h843q31 -105 31 -145zM713 1644
q-1 -74 -19 -98t-104 -24t-113 19t-27 88t19 102q43 25 118 25t101 -20q26 -18 25 -92z" />
    <glyph glyph-name="zdotaccent" unicode="&#x17c;" horiz-adv-x="913" 
d="M324 848h-215q-8 27 -9 71q0 44 13 93h686q31 -92 31 -124t-27 -73l-334 -453q-41 -57 -158 -198l6 -8q88 8 189 8h98q156 0 219 29q20 -47 21 -93q0 -100 -133 -100h-611q-29 86 -28 121q-1 35 32 78l334 454q57 78 162 199l-6 8q-86 -12 -270 -12zM328 1308q0 68 30 84
q31 15 108 15q78 0 100 -18q22 -19 22 -95t-23 -96t-103 -22t-116 26q-18 38 -18 106z" />
    <glyph glyph-name="uni0237" unicode="&#x237;" horiz-adv-x="569" 
d="M412 836v-799q0 -281 -72 -365t-223 -121q-51 49 -62 130q86 43 117 95t31 158v816q0 57 -19.5 81.5t-68.5 24.5h-41q-18 79 0 154q74 8 149 8h27q76 0 119 -49t43 -133z" />
    <glyph glyph-name="circumflex" unicode="&#x2c6;" horiz-adv-x="815" 
d="M602 1118l-190 187l-205 -197q-63 25 -98 88l217 272q78 27 178 2l201 -258q-31 -67 -103 -94z" />
    <glyph glyph-name="caron" unicode="&#x2c7;" horiz-adv-x="815" 
d="M215 1489l191 -186l206 198q61 -20 99 -88l-219 -274q-72 -29 -179 -2l-200 258q34 69 102 94z" />
    <glyph glyph-name="dotaccent" unicode="&#x2d9;" horiz-adv-x="815" 
d="M415 1407q77 0 99.5 -18.5t22.5 -94.5t-22.5 -96t-103.5 -22t-116 26q-19 38 -19 106t31 83.5t108 15.5z" />
    <glyph glyph-name="ring" unicode="&#x2da;" horiz-adv-x="815" 
d="M408 1448q-45 0 -74 -31t-29 -80t27.5 -80.5t73.5 -31.5t75 31.5t29 78.5t-28.5 80t-73.5 33zM230 1172q-70 68 -70 165t70.5 164.5t177 67.5t177 -67t70.5 -165t-71.5 -165.5t-177.5 -67.5t-176 68z" />
    <glyph glyph-name="tilde" unicode="&#x2dc;" horiz-adv-x="815" 
d="M498 1331q31 -18 55 -18q52 0 90 53l23 29q31 0 61.5 -19.5t42.5 -46.5l-18 -41q-68 -150 -205 -149q-54 -1 -117 30l-113 56q-32 18 -70 19t-75 -52l-22 -29q-31 0 -62 18.5t-43 47.5l18 41q68 150 205 149q55 0 117 -30z" />
    <glyph glyph-name="mu" unicode="&#x3bc;" horiz-adv-x="1134" 
d="M971 287q0 -143 57 -195q-23 -74 -80 -106q-119 20 -164 133q-100 -139 -260 -139q-98 0 -168 57v-342q0 -72 -20.5 -106.5t-89 -34.5t-121.5 40q35 61 35 187v1231q57 8 102 8t107 -8v-643q0 -96 49 -150.5t131 -54.5q121 0 211 123v725q57 8 103.5 8t107.5 -8v-725z
" />
    <glyph glyph-name="germandbls.cap" unicode="&#x1e9e;" horiz-adv-x="1284" 
d="M31 881q0 50 8 88l176 -4v71q0 190 122 293t326 103t326.5 -110.5t122.5 -297.5q0 -78 -31 -160h-4l4 -2q-78 -20 -123 -60t-45 -76q0 -65 76 -130l76 -68q152 -135 152 -263t-103 -210t-257 -82q-153 0 -275 60q2 37 21.5 82t47.5 69q81 -47 161 -47q81 0 130 34t48 75
q-2 85 -81 153l-84 72q-135 114 -135 227q0 74 54.5 140.5t146.5 103.5q8 41 8 72q0 111 -60.5 182.5t-176.5 71.5q-231 0 -232 -254v-1014q-46 -8 -110 -8t-105 8v801l-176 -2q-8 32 -8 82z" />
    <glyph glyph-name="endash" unicode="&#x2013;" horiz-adv-x="1087" 
d="M125 541q0 49 8 88h821q8 -39 8 -88t-8 -84h-821q-8 35 -8 84z" />
    <glyph glyph-name="emdash" unicode="&#x2014;" horiz-adv-x="1636" 
d="M154 541q0 49 8 88h1311q10 -37 10 -88t-10 -84h-1311q-8 35 -8 84z" />
    <glyph glyph-name="quoteleft" unicode="&#x2018;" horiz-adv-x="466" 
d="M86 1196q0 125 68.5 222.5t203.5 146.5q55 -29 56 -86v-19q-137 -63 -144 -174q72 -4 89.5 -30t17.5 -84q0 -95 -30.5 -116.5t-115.5 -21.5t-120 27q-25 55 -25 135z" />
    <glyph glyph-name="quoteright" unicode="&#x2019;" horiz-adv-x="466" 
d="M379 1403q0 -132 -70.5 -228.5t-199.5 -144.5q-60 27 -56 105q137 68 144 174q-83 12 -95 35.5t-12 79.5q0 112 45.5 125.5t113.5 13.5t107 -27q23 -55 23 -133z" />
    <glyph glyph-name="quotesinglbase" unicode="&#x201a;" horiz-adv-x="468" 
d="M140.5 218.5q42.5 17.5 112.5 17.5q71 0 112 -29q23 -49 23 -129q-2 -275 -271 -375q-58 26 -58 104q59 27 101.5 73t44.5 102q-80 11 -93.5 37t-13.5 104t42.5 95.5z" />
    <glyph glyph-name="quotedblleft" unicode="&#x201c;" horiz-adv-x="864" 
d="M481 1196q0 125 68.5 222.5t204.5 146.5q55 -29 55 -86v-19q-137 -63 -143 -174q72 -4 89 -30t17 -84q0 -96 -30.5 -117t-115.5 -21t-120 27q-25 55 -25 135zM84 1196q0 125 68.5 222.5t203.5 146.5q55 -29 56 -86v-19q-137 -63 -144 -174q72 -4 89.5 -30t17.5 -84
q0 -96 -31 -117t-115 -21q-85 0 -120 27q-25 55 -25 135z" />
    <glyph glyph-name="quotedblright" unicode="&#x201d;" horiz-adv-x="864" 
d="M648 1563q71 0 110 -27q22 -55 22 -133q-1 -132 -70 -228.5t-200 -144.5q-59 26 -55 105q137 68 143 174q-83 12 -94.5 35.5t-11.5 80.5q0 109 42.5 123.5t113.5 14.5zM383 1403q0 -131 -69.5 -227.5t-200.5 -145.5q-60 27 -56 105q137 68 144 174q-83 12 -95 35.5
t-12 79.5q0 109 43 124t114 15q70 0 109 -27q23 -55 23 -133z" />
    <glyph glyph-name="quotedblbase" unicode="&#x201e;" horiz-adv-x="866" 
d="M650 236q71 0 112 -29q22 -49 22 -129q-2 -276 -270 -375q-57 25 -57 104q59 27 101 73t44 102q-81 11 -93.5 37t-12.5 79q0 103 41.5 120.5t112.5 17.5zM140.5 218.5q42.5 17.5 112.5 17.5q71 0 112 -29q23 -49 23 -129q-2 -275 -271 -375q-58 26 -58 104
q59 27 101.5 73t44.5 102q-80 11 -93.5 37t-13.5 104t42.5 95.5z" />
    <glyph glyph-name="bullet" unicode="&#x2022;" horiz-adv-x="915" 
d="M464 780q128 0 202 -49q31 -59 30.5 -174t-30.5 -176q-66 -47 -199 -47t-211 47q-31 61 -31 176t31 174q80 49 208 49z" />
    <glyph glyph-name="guilsinglleft" unicode="&#x2039;" horiz-adv-x="679" 
d="M68 522.5q0 38.5 12 67.5l395 377q37 -10 72 -43t47 -68l-285 -330l295 -340q-12 -35 -48 -67.5t-73 -42.5l-403 379q-12 29 -12 67.5z" />
    <glyph glyph-name="guilsinglright" unicode="&#x203a;" horiz-adv-x="679" 
d="M86 188l283 330l-295 338q12 33 49 66.5t72 44.5l405 -379q27 -68 0 -133l-397 -379q-35 10 -70 43.5t-47 68.5z" />
    <glyph glyph-name="fraction" unicode="&#x2044;" horiz-adv-x="460" 
d="M-258 0l770 1399q41 12 109.5 11t99.5 -11l-772 -1399q-41 -12 -109.5 -11t-97.5 11z" />
    <glyph glyph-name="uni2074" unicode="&#x2074;" horiz-adv-x="860" 
d="M762 935q0 -44 -14 -79h-117v-160q-33 -8 -84 -8t-90 8v86l2 74l-84 -2h-244q-41 66 -41 103.5t31 99.5l239 518q43 4 94.5 -7.5t77.5 -33.5l-155 -336q-66 -139 -105 -190l4 -4q51 4 146 4h37q-2 16 -2 49v67q0 59 32.5 94t85.5 35h52l6 -6v-135l-2 -104h125
q6 -29 6 -73z" />
    <glyph glyph-name="Euro" unicode="&#x20ac;" horiz-adv-x="1159" 
d="M707 1174q-225 0 -279 -287h422q8 -39 8 -75t-8 -71h-438v-79q0 -55 2 -82h436q8 -39 8 -75t-8 -71h-420q53 -281 277 -280q154 0 309 118q76 -47 98 -133q-199 -166 -436 -166q-389 0 -465 461h-162q-8 35 -8 71t8 75h148q-2 27 -2 81t2 80h-148q-8 35 -8 71t8 75h162
q74 467 465 467q236 0 436 -166q-10 -37 -36.5 -75t-61.5 -58q-156 119 -309 119z" />
    <glyph glyph-name=".notdef.001" horiz-adv-x="380" 
 />
    <glyph glyph-name="nonbreakingspace" horiz-adv-x="450" 
 />
    <glyph glyph-name="commaaccent" horiz-adv-x="815" 
d="M340 -252q0 57 -27 107q41 27 100.5 34.5t106.5 -8.5q20 -49 21 -106q0 -102 -67.5 -185.5t-186.5 -128.5q-55 16 -70 90q123 80 123 197z" />
    <glyph glyph-name="grave.cap" horiz-adv-x="815" 
d="M225 1847l416 -245q-16 -80 -63 -111l-447 184q6 49 34.5 99t59.5 73z" />
    <glyph glyph-name="acute.cap" horiz-adv-x="815" 
d="M201 1602l415 245q31 -23 60 -73t35 -99l-447 -184q-23 14 -41 47t-22 64z" />
    <glyph glyph-name="circumflex.cap" horiz-adv-x="815" 
d="M637 1509l-231 154l-236 -170q-27 10 -55.5 38t-36.5 56l233 232q96 18 189 0l229 -217q-10 -33 -37.5 -59t-54.5 -34z" />
    <glyph glyph-name="dieresis.cap" horiz-adv-x="815" 
d="M186 1724q59 0 92 -17t33 -88t-24.5 -91.5t-99.5 -20.5t-94 28t-19 78t18 87q35 24 94 24zM741 1620q0 -72 -22.5 -92.5t-96.5 -20.5t-96 23.5t-22 80.5t20 89q38 24 96 24t89.5 -16t31.5 -88z" />
    <glyph glyph-name="caron.cap" horiz-adv-x="815" 
d="M174 1827l229 -152l236 168q29 -10 57.5 -36.5t36.5 -55.5l-235 -231q-98 -20 -189 -2l-229 217q24 69 94 92z" />
    <glyph glyph-name="ring.cap" horiz-adv-x="815" 
d="M409 1710q-52 0 -79 -35t-27 -77t26.5 -76.5t78 -34.5t76 34.5t24.5 76.5t-23.5 77t-75.5 35zM407.5 1366q-110.5 0 -179 66.5t-68.5 164.5q0 154 97 194t177 40t150.5 -66.5t70.5 -165.5q0 -100 -68.5 -166.5t-179 -66.5z" />
    <glyph glyph-name="tilde.cap" horiz-adv-x="815" 
d="M265 1796q62 0 120 -33l115 -53q32 -18 67 -19t80 52l25 29q76 -2 106 -66l-18 -39q-70 -150 -209 -149q-51 -1 -121 30l-115 56q-74 33 -99.5 13t-47.5 -46l-25 -29q-31 0 -62.5 18.5t-43.5 45.5l18 41q33 72 90.5 110.5t119.5 38.5z" />
    <glyph glyph-name="dotaccent.cap" horiz-adv-x="815" 
d="M539 1643q0 -73 -18.5 -97t-104.5 -24t-113 19.5t-27 87.5t19 102q43 25 118 25t100.5 -20t25.5 -93z" />
    <glyph glyph-name="caron.alt" horiz-adv-x="868" 
d="M412 1159l24 438q41 10 100.5 2t94.5 -32l-96 -418q-29 -10 -66 -7t-57 17z" />
    <glyph glyph-name="commaaccent.cap" horiz-adv-x="815" 
d="M340 -252q0 57 -27 107q41 27 100.5 34.5t106.5 -8.5q20 -49 21 -106q0 -102 -67.5 -185.5t-186.5 -128.5q-55 16 -70 90q123 80 123 197z" />
    <glyph glyph-name="a.smcp" horiz-adv-x="1114" 
d="M375 422l92 2h172q66 -2 80 -2l-68 194q-41 117 -98 324h-10q-51 -184 -84 -283zM133 -10q-59 0 -98 14l-8 12l407 1102q49 8 124 8t124 -8l405 -1108q-49 -25 -109 -24.5t-90 20t-50 78.5l-60 166l-100 -2h-254l-109 2l-88 -252q-35 -8 -94 -8z" />
    <glyph glyph-name="b.smcp" horiz-adv-x="1122" 
d="M383 668h172q203 0 203 149q0 112 -82 132t-150.5 19t-142.5 1v-301zM573 508h-190v-358q61 0 136 -1.5t140.5 8t109.5 52.5t44 119q0 120 -88.5 150t-151.5 30zM563 1124q410 0 410 -293q0 -76 -45 -139t-121 -90q95 -24 160 -105.5t65 -179.5q0 -156 -111.5 -239.5
t-316.5 -83.5t-422 6l-10 10v1098l10 10q362 6 381 6z" />
    <glyph glyph-name="c.smcp" horiz-adv-x="1097" 
d="M608 156q141 0 307 123q33 -20 64 -61.5t41 -78.5q-188 -166 -455 -166q-224 0 -353.5 155t-129.5 433q0 279 142 431.5t354 152.5t333 -104.5t121 -237.5t-123 -133q-31 0 -82 10q0 291 -241 291q-147 0 -214 -108.5t-67 -310.5t81 -299t222 -97z" />
    <glyph glyph-name="d.smcp" horiz-adv-x="1196" 
d="M887 653q0 297 -307 301l-193 2v-796l193 2q154 2 230.5 98t76.5 393zM588 1124q166 0 343 -84.5t177 -482.5t-177 -480.5t-345 -82.5t-404 6l-10 10v1098l10 10q240 6 406 6z" />
    <glyph glyph-name="e.smcp" horiz-adv-x="1046" 
d="M506 176h452q0 -51 -4 -76q-18 -102 -133 -102h-524q-57 0 -91 35t-34 94v979l10 12h744q6 -31 6 -83t-17 -95h-532l2 -104v-185l117 2h321q10 -33 10.5 -86t-10.5 -88h-438v-215l-2 -92q74 4 123 4z" />
    <glyph glyph-name="f.smcp" horiz-adv-x="958" 
d="M819 553q0 -53 -10 -86h-422v-467q-47 -8 -109.5 -8t-105.5 8v1108l10 10h727q12 -37 13 -84q0 -96 -113 -96h-424l2 -162v-139l72 2h350q10 -33 10 -86z" />
    <glyph glyph-name="g.smcp" horiz-adv-x="1155" 
d="M307 553q0 -412 328 -412q106 0 203 25v160q0 47 6 100h-152q-98 0 -98 92q0 49 12 84q94 4 230.5 4t171 -30.5t34.5 -94.5v-438q-207 -70 -446 -70q-382 0 -446 228.5t-64 366.5t42 249t150 219.5t344 108.5t412 -113q-8 -45 -35.5 -91t-60.5 -69q-145 92 -301 93
q-330 0 -330 -412z" />
    <glyph glyph-name="h.smcp" horiz-adv-x="1259" 
d="M979.5 1126q64.5 0 107.5 -8v-1118q-47 -8 -109.5 -8t-105.5 8v371l2 123l-102 -2h-285l-102 2l2 -123v-371q-43 -8 -107.5 -8t-107.5 8v1118q43 8 107.5 8t107.5 -8v-330l-2 -120l102 2h285l102 -2l-2 120v330q43 8 107.5 8z" />
    <glyph glyph-name="i.smcp" horiz-adv-x="573" 
d="M284.5 1126q63.5 0 110.5 -8v-1118q-47 -8 -110.5 -8t-106.5 8v1118q43 8 106.5 8z" />
    <glyph glyph-name="j.smcp" horiz-adv-x="817" 
d="M564 1126q61 0 108 -8v-721q0 -213 -88 -317.5t-274 -104.5t-304 80q15 95 74 154q96 -59 194.5 -59t140.5 59t42 184v725q46 8 107 8z" />
    <glyph glyph-name="k.smcp" horiz-adv-x="1120" 
d="M501.5 487q-71.5 0 -114.5 -4v-483q-43 -8 -107.5 -8t-107.5 8v1118q43 8 107.5 8t107.5 -8v-454l82 2q31 0 43 8t33 39l213 331q29 43 54.5 61.5t84.5 18.5t115 -6l16 -16l-264 -402q-43 -66 -78 -92q76 -16 121 -61t82 -127l100 -221q47 -107 90 -142q-51 -70 -139 -69
q-53 0 -82 25.5t-57 88.5l-115 250q-35 76 -74 105.5t-110.5 29.5z" />
    <glyph glyph-name="l.smcp" horiz-adv-x="954" 
d="M557 180h348q0 -31 -6 -80q-18 -102 -137 -102h-467q-57 0 -91 34t-34 95v987l12 10h84q66 0 93.5 -31.5t27.5 -103.5v-817q119 8 170 8z" />
    <glyph glyph-name="m.smcp" horiz-adv-x="1501" 
d="M388 1130q81 0 136 -12l158 -518q55 -176 66 -242h10q10 76 61 242l158 518q55 12 139 12t139 -12l109 -1116q-61 -12 -105.5 -12t-105.5 8l-45 549q-10 123 -10 350h-11l-229 -729q-41 -8 -108.5 -8t-108.5 8l-227 729h-11q0 -203 -12 -350l-43 -549q-61 -8 -107.5 -8
t-103.5 12l109 1116q61 12 142 12z" />
    <glyph glyph-name="n.smcp" horiz-adv-x="1271" 
d="M968 -8q-75 0 -118 8l-361 635q-27 41 -120 229l-7 -2q12 -246 13 -391v-471q-49 -8 -102.5 -8t-100.5 8v1114q51 12 126 12t122 -8l362 -637q14 -25 123 -241l10 2q-20 276 -20 399v360q0 70 26.5 97.5t92.5 27.5h76l10 -12v-1112q-57 -10 -132 -10z" />
    <glyph glyph-name="o.smcp" horiz-adv-x="1208" 
d="M604 1145q133 0 234.5 -47t194.5 -169.5t93 -373.5t-132 -416.5t-387 -165.5t-390 164t-135 420q0 143 49.5 275.5t151.5 214.5q129 98 321 98zM602 979q-285 0 -297 -422q5 -179 45.5 -257.5t99 -119.5t150.5 -41q181 0 248 142q53 123 53 276q0 422 -299 422z" />
    <glyph glyph-name="p.smcp" horiz-adv-x="1044" 
d="M522 958q-92 0 -135 3v-408q31 2 42 2h130q111 0 159 58.5t48 144.5q0 139 -76 169.5t-168 30.5zM280 -8q-62 0 -108 8v1108l10 10q369 6 379 6q195 0 311.5 -92t116.5 -273t-115.5 -275.5t-312.5 -94.5h-174v-389q-45 -8 -107 -8z" />
    <glyph glyph-name="q.smcp" horiz-adv-x="1210" 
d="M901 557q0 422 -299 422q-167 0 -232 -127t-65 -295q0 -276 101.5 -347t193.5 -71q181 0 248 142q53 123 53 276zM604 1145q263 0 392.5 -167.5t129.5 -420.5q0 -172 -62.5 -306t-191.5 -202l15 -8q129 -96 252 -98q-2 -70 -48.5 -114t-96.5 -44q-91 0 -160 61l-172 134
q-25 -6 -52 -7q-261 0 -394.5 165t-133.5 419q0 143 49.5 275.5t151.5 214.5q129 98 321 98z" />
    <glyph glyph-name="r.smcp" horiz-adv-x="1120" 
d="M571 608q117 0 166 52.5t49 126t-49 124t-162 50.5h-188v-357q140 4 184 4zM277.5 -8q-59.5 0 -105.5 8v1108l10 10q217 6 409.5 6t304.5 -83.5t112 -249.5q0 -106 -68 -187t-170 -106q88 -31 137 -142l76 -172q33 -77 84 -131q-49 -68 -143 -67q-53 0 -81 25.5t-55 84.5
l-100 228q-29 61 -66.5 87.5t-109.5 26.5h-125v-438q-50 -8 -109.5 -8z" />
    <glyph glyph-name="s.smcp" horiz-adv-x="1013" 
d="M535 969q-123 0 -172.5 -38t-49.5 -91.5t33 -78t111 -52.5l205 -72q131 -47 209.5 -127t78.5 -197q0 -157 -122.5 -248.5t-325.5 -91.5q-257 0 -445 119q0 43 24.5 91t59.5 71q190 -109 371 -109q88 0 148.5 41t60.5 107q0 102 -154 156l-209 71q-270 92 -270 293
q0 147 113.5 238.5t312.5 91.5t389 -84q0 -106 -74 -164q-171 74 -294 74z" />
    <glyph glyph-name="t.smcp" horiz-adv-x="897" 
d="M455.5 -8q-68.5 0 -109.5 8v819l2 123l-108 -2h-215q-18 94 0 178h852q12 -37 12 -84t-25.5 -70.5t-89.5 -23.5h-108l-105 2l2 -123v-819q-39 -8 -107.5 -8z" />
    <glyph glyph-name="u.smcp" horiz-adv-x="1239" 
d="M977 1126q61 0 108 -10v-717q0 -205 -121.5 -315.5t-343 -110.5t-344 111t-122.5 315v715l10 12h82q66 0 94.5 -32.5t28.5 -106.5v-588q1 -254 251 -254t250 254v719q46 8 107 8z" />
    <glyph glyph-name="v.smcp" horiz-adv-x="1050" 
d="M925.5 1126q53.5 0 94.5 -14l10 -12l-362 -1102q-59 -8 -141.5 -8t-118 19.5t-52.5 78.5l-327 1016q63 27 118.5 26.5t82 -23t44.5 -79.5l170 -524q45 -141 86 -311q5 -17 17 -17l284 942q41 8 94.5 8z" />
    <glyph glyph-name="w.smcp" horiz-adv-x="1576" 
d="M799 1112q71 0 133 -10l176 -909q4 -20 16 -21q35 209 60 322l133 622q33 8 95.5 8t105.5 -14l12 -10l-260 -1098q-66 -14 -152 -14t-118.5 21.5t-45.5 78.5l-84 412q-29 158 -69 403h-13q-43 -240 -77 -403l-109 -500q-61 -10 -150.5 -10t-123 20.5t-47.5 79.5
l-224 1016q59 25 116.5 24.5t81.5 -26t36 -90.5l106 -522q18 -84 56 -299q4 -20 16 -21l193 930q66 10 137 10z" />
    <glyph glyph-name="x.smcp" horiz-adv-x="1062" 
d="M884.5 1126q63.5 0 106.5 -14l4 -14l-338 -502l385 -561q-66 -49 -145.5 -49t-138.5 86l-242 354l-280 -426q-41 -10 -99.5 -10t-105.5 18l-8 12l383 570l-334 495q70 45 145.5 45t134.5 -86l195 -286l241 360q33 8 96.5 8z" />
    <glyph glyph-name="y.smcp" horiz-adv-x="909" 
d="M786.5 1126q49.5 0 102.5 -12l8 -14l-334 -762v-338q-47 -8 -109.5 -8t-103.5 8v342l-334 758q70 33 129 33q82 0 117 -86l129 -304q47 -121 70 -211h10q51 169 76 228l151 356q39 10 88.5 10z" />
    <glyph glyph-name="z.smcp" horiz-adv-x="1028" 
d="M410 942h-279q-8 33 -8 77t14 99h766q31 -117 31 -147.5t-29 -65.5l-440 -565q-63 -76 -146 -166l5 -8q76 6 229 12l162 2q150 0 219 31q14 -53 14 -94q0 -117 -149 -117h-690q-25 100 -25 139t29 76l442 567q51 66 152 166l-7 6q-78 -12 -290 -12z" />
    <glyph glyph-name="ampersand.smcp" horiz-adv-x="1142" 
d="M315 267q0 -128 183 -128q131 0 227 72v137q0 137 2 156h-160q-129 0 -190.5 -54.5t-61.5 -182.5zM946 -4q-32 -14 -93 -14t-105 8l-13 73q-127 -90 -291 -90t-258 87.5t-94 215.5t69.5 210.5t170.5 109.5q-82 27 -133.5 94.5t-51.5 155.5q0 133 104.5 216t284.5 83
t343 -51v-25q0 -82 -56 -137q-156 45 -256 45t-146 -41t-48 -107q0 -152 215 -151h334q100 0 170 29q27 -39 26 -97q0 -106 -145 -106h-43l2 -287q0 -71 14 -221z" />
    <glyph glyph-name="zero.smcp" horiz-adv-x="987" 
d="M476 135q62 0 134 33t72 391q0 252 -44 338t-146 86t-144.5 -91t-42.5 -359q0 -267 66 -345q43 -53 105 -53zM90 559q0 174 26.5 292.5t104.5 192.5q107 100 277 102t283.5 -121t114.5 -451t-97.5 -463.5t-304.5 -137.5q-195 4 -299.5 131t-104.5 455z" />
    <glyph glyph-name="one.smcp" horiz-adv-x="987" 
d="M438 698q0 12 11 142q-94 -106 -252 -170q-72 37 -86 125q252 143 338 323q33 6 98 6t100 -6v-950l113 4h114q21 -91 0 -172h-702q-10 47 -10 87t10 85h160l108 -4l-2 119v411z" />
    <glyph glyph-name="two.smcp" horiz-adv-x="987" 
d="M565 180h318q0 -92 -28 -137t-112 -45h-561q-29 23 -55.5 60.5t-26.5 70.5q0 133 228 324l180 149q125 104 125 207q0 68 -45 113t-115 45q-133 0 -207 -158q-102 4 -151 74q41 113 139 187.5t245 74.5t249 -95t102 -243q0 -106 -59.5 -189t-161.5 -165l-146 -117
q-141 -113 -161 -172q122 16 243 16z" />
    <glyph glyph-name="three.smcp" horiz-adv-x="987" 
d="M417 143q115 0 181 54.5t66 147.5t-54 144.5t-128 51.5t-132 -27q-29 14 -54.5 48t-33.5 67l227 221q31 31 61 53.5t56 44.5l-6 8q-59 -14 -215 -14h-248q-12 37 -12 83t18 93h648q43 -86 43 -134t-41 -83l-164 -162q-25 -25 -74 -61q142 -4 235 -95t93 -248
t-126.5 -259.5t-297.5 -102.5q-217 0 -367 115q23 96 90 141q120 -86 235 -86z" />
    <glyph glyph-name="four.smcp" horiz-adv-x="987" 
d="M641 -8q-53 0 -96 8v123l2 104l-109 -4h-315q-47 76 -47 117t35 119l317 669q47 8 104.5 -4t90.5 -39l-209 -432q-80 -166 -135 -260l4 -6q119 10 215 10h49q-2 20 -2 62v108q0 70 38 113t97 43h53l8 -8v-193l-2 -125l80 2h94q20 -91 -10 -174h-88l-76 2l2 -104v-123
q-47 -8 -100 -8z" />
    <glyph glyph-name="five.smcp" horiz-adv-x="987" 
d="M453 580q-96 0 -201 -76q-55 12 -102 71l28 531l12 12h633q14 -37 15 -86q0 -90 -97 -90h-372l-15 -233q161 58 301.5 4t183 -158.5t42.5 -192.5q0 -173 -123.5 -281t-320.5 -108q-196 0 -333 113q6 33 32 74t57 63q113 -80 229.5 -80t180 58.5t63.5 160.5t-58.5 160
t-154.5 58z" />
    <glyph glyph-name="six.smcp" horiz-adv-x="987" 
d="M313 457q0 -326 197 -326q86 0 133 57.5t47 157.5q0 215 -174 215q-100 0 -203 -78v-26zM575 1145q162 0 269 -58q-12 -86 -72 -139q-98 33 -186 33q-264 0 -273 -338q115 84 267 84t236.5 -95t84.5 -269t-111 -282t-283 -108q-173 1 -271 103q-139 143 -140 499
q0 266 124 418t355 152z" />
    <glyph glyph-name="seven.smcp" horiz-adv-x="987" 
d="M907 993q0 -43 -33 -84l-86 -121q-135 -184 -206.5 -356t-83.5 -395l-2 -37q-33 -10 -105 -10t-110 10l2 35q35 430 329 803l27 32q55 61 70 76l-7 6q-74 -14 -282 -14h-303q-10 35 -10 80t20 100h737q43 -82 43 -125z" />
    <glyph glyph-name="eight.smcp" horiz-adv-x="987" 
d="M664 848q0 66 -48 106.5t-122 40.5t-123 -40t-49 -101t48 -100t152 -76l21 -8q121 66 121 178zM293 285q0 -76 54 -120t144 -44t143.5 45t53.5 123q0 137 -213 211l-8 2q-174 -76 -174 -217zM84 283q0 83 63.5 163t157.5 123q-188 104 -188 267q0 130 106.5 219.5
t271.5 89.5t269 -81t104 -210q0 -170 -170 -254q205 -113 205 -297q0 -157 -118.5 -243.5t-300.5 -86.5t-291 80.5t-109 229.5z" />
    <glyph glyph-name="nine.smcp" horiz-adv-x="987" 
d="M688 659q0 328 -203 328q-80 0 -128 -57.5t-48 -157.5q0 -217 176 -217q98 0 203 80v24zM903 543q0 -270 -122 -420t-355 -150q-166 0 -270 56q12 88 73 141q86 -33 187 -33q264 0 272 340q-116 -86 -268 -86t-236 94.5t-84 268.5t110.5 282t282.5 108q171 0 273 -102
q137 -139 137 -499z" />
    <glyph glyph-name="currency.smcp" horiz-adv-x="954" 
d="M303 549q0 -92 43 -153.5t129 -61.5t131 61.5t45 152.5t-47 153.5t-129 62t-127 -61.5t-45 -153zM474 913q107 0 196 -47l135 125q68 -39 115 -112l-121 -138q53 -90 53 -196.5t-55 -198.5l118 -129q-27 -56 -112 -115l-135 125q-84 -45 -190 -45q-105 0 -193 45
l-135 -121q-68 35 -113 111l119 131q-56 88 -56 200t54 195l-117 131q33 63 113 113l133 -121q84 47 191 47z" />
    <glyph glyph-name="dollar.smcp" horiz-adv-x="905" 
d="M444 -72q-52 0 -84 6v125q-174 21 -301 103q2 41 26 88t54 67q170 -90 326 -90t156 99q0 78 -119 120l-178 64q-225 86 -226 262q0 111 72 183.5t197 95.5v137q31 6 79 6t78 -6v-131q147 -16 283 -76q-2 -106 -76 -160q-154 72 -276 72q-68 0 -107 -27.5t-39 -69.5
t28 -64.5t89 -45.5l158 -55q254 -89 254 -291q0 -119 -85 -192.5t-233 -90.5v-123q-24 -6 -76 -6z" />
    <glyph glyph-name="cent.smcp" horiz-adv-x="862" 
d="M455 864q-170 0 -170 -314q0 -150 55 -219t151 -69t209 78q63 -39 88 -117q-102 -102 -256 -123v-159q-32 -9 -83 -9t-78 9v161q-154 31 -223.5 158t-69.5 312t84 300t215 144v166q24 8 77 8t83 -8v-162q123 -18 189.5 -92t66.5 -168q0 -121 -111 -121q-78 0 -78 18
q0 207 -149 207z" />
    <glyph glyph-name="sterling.smcp" horiz-adv-x="962" 
d="M590 174h303q0 -92 -28.5 -134t-114.5 -42h-617q-27 98 -27 138t27 79l29 43q72 107 82 209h-133q-24 75 0 149q14 0 45.5 -1t46.5 -1q-61 142 -61 210q-1 136 97 228.5t263 92.5q221 0 366 -129q-10 -41 -39.5 -80t-68.5 -53q-119 88 -244 88q-72 0 -120 -42t-48 -103.5
t55 -211.5l328 2q12 -36 12 -74t-12 -75h-123q-123 0 -170 2q0 -143 -116 -299l6 -4q118 8 262 8z" />
    <glyph glyph-name="Euro.smcp" horiz-adv-x="1026" 
d="M635 973q-188 0 -236 -215h346q22 -72 0 -135h-364v-127h364q21 -70 0 -134h-348q49 -217 238 -217q131 0 258 82q37 -18 62.5 -53t31.5 -72q-170 -129 -379 -129q-348 0 -418 389h-143q-8 27 -8 67t8 67h129q-2 20 -2 62t2 65h-129q-8 27 -8 67.5t8 67.5h143
q70 387 418 387q209 0 379 -129q-6 -37 -32.5 -73t-61.5 -54q-133 84 -258 84z" />
    <glyph glyph-name="yen.smcp" horiz-adv-x="948" 
d="M573 281v-281q-43 -8 -102 -8t-100 8v281h-281q-8 35 -8 67.5t8 67.5h268l-59 129h-209q-8 35 -8 67.5t8 67.5h146l-195 416q82 39 142.5 39t92.5 -74l132 -301q31 -72 67 -191h8q31 104 70 189l158 360q45 12 94 12t96 -12l8 -12l-200 -426h143q8 -39 8 -69.5t-8 -65.5
h-207l-61 -129h268q8 -35 8 -67.5t-8 -67.5h-279z" />
    <glyph glyph-name="ae.smcp" horiz-adv-x="1601" 
d="M733 954h-10q-61 -133 -160 -323l-114 -211l79 2h111l94 -2v534zM1059 174h454q0 -49 -4 -74q-18 -102 -133 -102h-520q-57 0 -90 35t-33 94v129q-31 -2 -92 -2h-172l-109 2l-137 -258q-43 -8 -99 -8t-97 14l-7 14l594 1080q41 20 131 20h736q6 -31 6 -83t-17 -93h-534
l2 -106v-187l115 2h325q10 -33 10.5 -85t-10.5 -85h-440v-217l-2 -94q70 4 123 4z" />
    <glyph glyph-name="agrave.smcp" horiz-adv-x="1114" 
d="M375 422l92 2h172q66 -2 80 -2l-68 194q-41 117 -98 324h-10q-51 -184 -84 -283zM133 -10q-59 0 -98 14l-8 12l407 1102q49 8 124 8t124 -8l405 -1108q-49 -24 -109 -24t-90 19t-50 79l-60 166l-100 -2h-254l-109 2l-88 -252q-35 -8 -94 -8zM438 1622l295 -326
q-29 -68 -92 -86l-350 273q16 45 58 84t89 55z" />
    <glyph glyph-name="aacute.smcp" horiz-adv-x="1114" 
d="M375 422l92 2h172q66 -2 80 -2l-68 194q-41 117 -98 324h-10q-51 -184 -84 -283zM133 -10q-59 0 -98 14l-8 12l407 1102q49 8 124 8t124 -8l405 -1108q-49 -24 -109 -24t-90 19t-50 79l-60 166l-100 -2h-254l-109 2l-88 -252q-35 -8 -94 -8zM408 1296l294 326
q46 -16 90 -55t60 -84l-350 -273q-30 8 -56 32t-38 54z" />
    <glyph glyph-name="acircumflex.smcp" horiz-adv-x="1114" 
d="M375 422l92 2h172q66 -2 80 -2l-68 194q-41 117 -98 324h-10q-51 -184 -84 -283zM133 -10q-59 0 -98 14l-8 12l407 1102q49 8 124 8t124 -8l405 -1108q-49 -24 -109 -24t-90 19t-50 79l-60 166l-100 -2h-254l-109 2l-88 -252q-35 -8 -94 -8zM756 1227l-191 186l-205 -196
q-63 25 -98 88l217 272q78 27 178 2l201 -258q-30 -67 -102 -94z" />
    <glyph glyph-name="atilde.smcp" horiz-adv-x="1114" 
d="M375 422l92 2h172q66 -2 80 -2l-68 194q-41 117 -98 324h-10q-51 -184 -84 -283zM133 -10q-59 0 -98 14l-8 12l407 1102q49 8 124 8t124 -8l405 -1108q-49 -24 -109 -24t-90 19t-50 79l-60 166l-100 -2h-254l-109 2l-88 -252q-35 -8 -94 -8zM424 1528q55 0 117 -31
l112 -57q33 -19 57 -19q51 0 89 54l22 28q31 0 62 -19t43 -46l-19 -41q-68 -150 -205 -150q-53 0 -116 31l-113 55q-33 19 -61 19q-47 2 -84 -52l-23 -28q-31 0 -61 18t-43 47l18 41q68 150 205 150z" />
    <glyph glyph-name="adieresis.smcp" horiz-adv-x="1114" 
d="M375 422l92 2h172q66 -2 80 -2l-68 194q-41 117 -98 324h-10q-51 -184 -84 -283zM133 -10q-59 0 -98 14l-8 12l407 1102q49 8 124 8t124 -8l405 -1108q-49 -24 -109 -24t-90 19t-50 79l-60 166l-100 -2h-254l-109 2l-88 -252q-35 -8 -94 -8zM376 1468q58 0 84 -20t26 -86
t-26 -85t-90 -19t-98 24q-16 26 -16 87t31 80t89 19zM637 1369q0 59 25 79t87 20t90 -16q27 -16 27 -87t-24 -89t-86 -18q-64 0 -103 24q-16 28 -16 87z" />
    <glyph glyph-name="aring.smcp" horiz-adv-x="1114" 
d="M375 422l92 2h172q66 -2 80 -2l-68 194q-41 117 -98 324h-10q-51 -184 -84 -283zM133 -10q-59 0 -98 14l-8 12l407 1102q49 8 124 8t124 -8l405 -1108q-49 -24 -109 -24t-90 19t-50 79l-60 166l-100 -2h-254l-109 2l-88 -252q-35 -8 -94 -8zM561 1557q-45 -1 -73 -31
t-29 -80t27 -81q28 -32 74 -32t75 32t29 79t-29 80t-74 33zM385 1279q-70 67 -71 167q-1 99 70 165t178 66q108 0 177 -66q70 -66 70 -166q0 -99 -72 -166t-178 -67q-104 0 -174 67z" />
    <glyph glyph-name="ccedilla.smcp" horiz-adv-x="1097" 
d="M547 -338q98 0 98 83q0 38 -28.5 57.5t-57.5 19.5t-49 -10q-25 7 -37 36q27 91 43 127q-217 15 -325.5 178t-108.5 402q0 285 142 437.5t354 152.5t333 -104.5t121 -237.5t-123 -133q-31 0 -82 10q0 291 -241 291q-147 0 -214 -108.5t-67 -310.5t81 -299t222 -97t307 123
q33 -20 64 -61.5t41 -78.5q-152 -133 -373 -162q-20 -39 -22 -53q86 -4 138 -53t52 -132t-72 -139.5t-171 -56.5t-164 41q2 53 43 107q45 -29 96 -29z" />
    <glyph glyph-name="egrave.smcp" horiz-adv-x="1046" 
d="M506 176h452q0 -51 -4 -76q-18 -102 -133 -102h-524q-57 0 -91 35t-34 94v979l10 12h744q6 -31 6 -83t-17 -95h-532l2 -104v-185l117 2h321q11 -33 11 -86t-11 -88h-438v-215l-2 -92q74 4 123 4zM434 1622l295 -326q-29 -68 -92 -86l-350 273q16 45 58 84t89 55z" />
    <glyph glyph-name="eacute.smcp" horiz-adv-x="1046" 
d="M506 176h452q0 -51 -4 -76q-18 -102 -133 -102h-524q-57 0 -91 35t-34 94v979l10 12h744q6 -31 6 -83t-17 -95h-532l2 -104v-185l117 2h321q11 -33 11 -86t-11 -88h-438v-215l-2 -92q74 4 123 4zM406 1296l294 326q46 -16 90 -55t60 -84l-350 -273q-30 8 -56 32t-38 54z
" />
    <glyph glyph-name="ecircumflex.smcp" horiz-adv-x="1046" 
d="M506 176h452q0 -51 -4 -76q-18 -102 -133 -102h-524q-57 0 -91 35t-34 94v979l10 12h744q6 -31 6 -83t-17 -95h-532l2 -104v-185l117 2h321q11 -33 11 -86t-11 -88h-438v-215l-2 -92q74 4 123 4zM754 1227l-191 186l-205 -196q-63 25 -98 88l217 272q78 27 178 2
l201 -258q-30 -67 -102 -94z" />
    <glyph glyph-name="edieresis.smcp" horiz-adv-x="1046" 
d="M506 176h452q0 -51 -4 -76q-18 -102 -133 -102h-524q-57 0 -91 35t-34 94v979l10 12h744q6 -31 6 -83t-17 -95h-532l2 -104v-185l117 2h321q11 -33 11 -86t-11 -88h-438v-215l-2 -92q74 4 123 4zM374 1468q58 0 84 -20t26 -86t-26 -85t-90 -19t-98 24q-16 26 -16 87
t31 80t89 19zM635 1369q0 59 24 79q25 20 87 20t91 -16q27 -16 27 -87t-24 -89t-86 -18q-64 0 -103 24q-16 28 -16 87z" />
    <glyph glyph-name="hbar.smcp" horiz-adv-x="1275" 
d="M881 809h-486v-23l-2 -122l103 2h284l103 -2l-2 122v23zM287.5 -8q-64.5 0 -107.5 8v809h-127q-8 33 -8 74t8 73h127v162q43 8 107.5 8t107.5 -8v-162h486v162q43 8 107.5 8t107.5 -8v-162h127q8 -33 8 -73.5t-8 -73.5h-127v-809q-47 -8 -109.5 -8t-105.5 8v369l2 120
l-103 -2h-284l-103 2l2 -120v-369q-43 -8 -107.5 -8z" />
    <glyph glyph-name="igrave.smcp" horiz-adv-x="573" 
d="M284 1126q64 0 111 -8v-1118q-47 -8 -111 -8t-106 8v1118q42 8 106 8zM166 1622l295 -326q-29 -68 -92 -86l-351 273q16 45 58 84t90 55z" />
    <glyph glyph-name="iacute.smcp" horiz-adv-x="573" 
d="M284 1126q64 0 111 -8v-1118q-47 -8 -111 -8t-106 8v1118q42 8 106 8zM137 1296l295 326q47 -16 90 -55t60 -84l-351 -273q-29 8 -55 32t-39 54z" />
    <glyph glyph-name="icircumflex.smcp" horiz-adv-x="573" 
d="M284 1126q64 0 111 -8v-1118q-47 -8 -111 -8t-106 8v1118q42 8 106 8zM483 1227l-190 186l-205 -196q-63 25 -98 88l217 272q78 27 178 2l201 -258q-31 -67 -103 -94z" />
    <glyph glyph-name="itilde.smcp" horiz-adv-x="573" 
d="M284 1126q64 0 111 -8v-1118q-47 -8 -111 -8t-106 8v1118q42 8 106 8zM150 1528q55 0 116 -31l113 -57q33 -19 56 -19q51 0 89 54l23 28q31 0 61 -19t43 -46l-18 -41q-68 -150 -205 -150q-54 0 -117 31l-112 55q-33 19 -62 19q-47 2 -84 -52l-22 -28q-31 0 -62 18t-43 47
l19 41q68 150 205 150z" />
    <glyph glyph-name="idieresis.smcp" horiz-adv-x="573" 
d="M284 1126q64 0 111 -8v-1118q-47 -8 -111 -8t-106 8v1118q42 8 106 8zM101 1468q58 0 84 -20t26 -86t-26 -85t-90 -19t-97 24q-16 26 -16 87t30 80q31 19 89 19zM474 1468q62 0 90 -16t28 -87t-24 -89t-87 -18t-102 24q-14 26 -16 86q-1 60 24 80t87 20z" />
    <glyph glyph-name="ij.smcp" horiz-adv-x="1390" 
d="M284 1126q64 0 111 -8v-1118q-47 -8 -111 -8t-106 8v1118q42 8 106 8zM1138 1126q62 0 107 -8v-721q0 -213 -88 -317t-273 -104t-304 79q14 95 73 154q97 -59 195 -59t140 59t42 184v725q46 8 108 8z" />
    <glyph glyph-name="jcircumflex.smcp" horiz-adv-x="817" 
d="M566 1126q63 0 106 -8v-721q0 -213 -88 -317t-274 -104t-304 79q15 95 74 154q96 -59 194 -59t141 59q42 59 42 184v725q46 8 109 8zM758 1227l-191 186l-205 -196q-63 25 -98 88l217 272q78 27 178 2l201 -258q-30 -67 -102 -94z" />
    <glyph glyph-name="kcommaaccent.smcp" horiz-adv-x="1105" 
d="M280 -8q-64 0 -108 8v1118q43 8 108 8t107 -8v-454l82 2q31 0 43 8t33 39l213 331q29 43 54 62q26 18 85 18t115 -6l16 -16l-264 -402q-43 -66 -78 -92q76 -16 121 -61t82 -127l100 -221q47 -107 90 -142q-51 -70 -139 -69q-53 0 -82 26t-57 88l-115 250q-35 76 -81 111
t-218 20v-483q-43 -8 -107 -8zM506 -252q0 57 -27 107q41 27 101 35t106 -9q20 -49 21 -106q0 -101 -68 -185t-186 -129q-55 16 -70 90q123 80 123 197z" />
    <glyph glyph-name="kgreenlandic.smcp" horiz-adv-x="1120" 
d="M501.5 487q-71.5 0 -114.5 -4v-483q-43 -8 -107.5 -8t-107.5 8v1118q43 8 107.5 8t107.5 -8v-454l82 2q31 0 43 8t33 39l213 331q29 43 54.5 61.5t84.5 18.5t115 -6l16 -16l-264 -402q-43 -66 -78 -92q76 -16 121 -61t82 -127l100 -221q47 -107 90 -142q-51 -70 -139 -69
q-53 0 -82 25.5t-57 88.5l-115 250q-35 76 -74 105.5t-110.5 29.5z" />
    <glyph glyph-name="ldot.smcp" horiz-adv-x="962" 
d="M557 180h348q0 -31 -6 -80q-18 -102 -137 -102h-467q-57 0 -91 34t-34 95v987l12 10h84q66 0 94 -32t27 -103v-817q119 8 170 8zM635 729q39 27 105 27t90 -14t29 -39q5 -27 5 -69q0 -92 -24 -103q-38 -19 -102 -19t-91 18q-26 18 -26 94q0 78 14 105z" />
    <glyph glyph-name="lslash.smcp" horiz-adv-x="978" 
d="M410 989v-309l305 96l16 -6q25 -66 2 -158l-323 -100v-340q123 8 172 8h346q0 -53 -6 -80q-18 -102 -138 -102h-465q-57 0 -90.5 34t-33.5 95v326l-119 -37l-15 8q-23 63 -4 160l138 39v491l10 10h84q66 0 93.5 -31.5t27.5 -103.5z" />
    <glyph glyph-name="nacute.smcp" horiz-adv-x="1271" 
d="M968 -8q-75 0 -118 8l-361 635q-27 41 -120 229l-7 -2q12 -246 13 -391v-471q-49 -8 -103 -8t-100 8v1114q51 12 126 12t122 -8l362 -637q14 -25 123 -241l10 2q-20 276 -20 399v360q0 70 27 98t92 27h76l10 -12v-1112q-57 -10 -132 -10zM483 1296l295 326q47 -16 90 -55
t60 -84l-350 -273q-29 8 -56 32t-39 54z" />
    <glyph glyph-name="ntilde.smcp" horiz-adv-x="1271" 
d="M968 -8q-75 0 -118 8l-361 635q-27 41 -120 229l-7 -2q12 -246 13 -391v-471q-49 -8 -103 -8t-100 8v1114q51 12 126 12t122 -8l362 -637q14 -25 123 -241l10 2q-20 276 -20 399v360q0 70 27 98t92 27h76l10 -12v-1112q-57 -10 -132 -10zM502 1528q55 0 116 -31l113 -57
q33 -19 57 -19q51 0 89 54l22 28q31 0 62 -19t43 -46l-19 -41q-68 -150 -205 -150q-53 0 -116 31l-113 55q-33 19 -62 19q-47 2 -83 -52l-23 -28q-31 0 -61 18t-43 47l18 41q68 150 205 150z" />
    <glyph glyph-name="oe.smcp" horiz-adv-x="1656" 
d="M608 141q88 0 174 27v782q-104 27 -174 27q-299 0 -299 -418t299 -418zM1114 176h455q0 -92 -30 -135t-107 -43h-584q-147 -25 -256 -25t-207 40t-165.5 116t-102.5 184.5t-35 313.5t139 361.5t387 156.5q94 0 242 -27h686q6 -29 6 -85t-16 -93h-257q-257 0 -280 2
l2 -291l117 2h326q10 -37 10 -88t-10 -86h-443v-196l-2 -111q74 4 125 4z" />
    <glyph glyph-name="ograve.smcp" horiz-adv-x="1208" 
d="M604 1145q132 0 234 -47q186 -86 257 -316q31 -106 31 -226q-1 -251 -133 -417t-386 -166t-390 164q-135 164 -135 420q0 143 50 275t151 215q129 98 321 98zM901 557q0 422 -299 422q-164 0 -241 -143q-51 -96 -56 -279q6 -182 46 -258q41 -77 99 -119t150 -41
q181 0 248 142q53 123 53 276zM479 1622l295 -326q-29 -68 -92 -86l-350 273q16 45 58 84t89 55z" />
    <glyph glyph-name="oacute.smcp" horiz-adv-x="1208" 
d="M604 1145q132 0 234 -47q186 -86 257 -316q31 -106 31 -226q-1 -251 -133 -417t-386 -166t-390 164q-135 164 -135 420q0 143 50 275t151 215q129 98 321 98zM901 557q0 422 -299 422q-164 0 -241 -143q-51 -96 -56 -279q6 -182 46 -258q41 -77 99 -119t150 -41
q181 0 248 142q53 123 53 276zM446 1296l295 326q47 -16 90 -55t60 -84l-350 -273q-29 8 -56 32t-39 54z" />
    <glyph glyph-name="ocircumflex.smcp" horiz-adv-x="1208" 
d="M604 1145q132 0 234 -47q186 -86 257 -316q31 -106 31 -226q-1 -251 -133 -417t-386 -166t-390 164q-135 164 -135 420q0 143 50 275t151 215q129 98 321 98zM901 557q0 422 -299 422q-164 0 -241 -143q-51 -96 -56 -279q6 -182 46 -258q41 -77 99 -119t150 -41
q181 0 248 142q53 123 53 276zM797 1227l-191 186l-205 -196q-63 25 -98 88l217 272q78 27 178 2l201 -258q-30 -67 -102 -94z" />
    <glyph glyph-name="otilde.smcp" horiz-adv-x="1208" 
d="M604 1145q132 0 234 -47q186 -86 257 -316q31 -106 31 -226q-1 -251 -133 -417t-386 -166t-390 164q-135 164 -135 420q0 143 50 275t151 215q129 98 321 98zM901 557q0 422 -299 422q-164 0 -241 -143q-51 -96 -56 -279q6 -182 46 -258q41 -77 99 -119t150 -41
q181 0 248 142q53 123 53 276zM465 1528q55 0 117 -31l112 -57q33 -19 57 -19q51 0 89 54l22 28q31 0 62 -19t43 -46l-19 -41q-68 -150 -205 -150q-53 0 -116 31l-113 55q-33 19 -61 19q-47 2 -84 -52l-23 -28q-32 0 -62 18t-42 47l18 41q68 150 205 150z" />
    <glyph glyph-name="odieresis.smcp" horiz-adv-x="1208" 
d="M604 1145q132 0 234 -47q186 -86 257 -316q31 -106 31 -226q-1 -251 -133 -417t-386 -166t-390 164q-135 164 -135 420q0 143 50 275t151 215q129 98 321 98zM901 557q0 422 -299 422q-164 0 -241 -143q-51 -96 -56 -279q6 -182 46 -258q41 -77 99 -119t150 -41
q181 0 248 142q53 123 53 276zM417 1468q58 0 84 -20q25 -20 25 -86t-26 -85t-90 -19t-97 24q-16 26 -16 87t31 80t89 19zM678 1369q0 59 24 79q26 20 88 20t90 -16t28 -87t-24 -89t-88 -18t-102 24q-16 28 -16 87z" />
    <glyph glyph-name="oslash.smcp" horiz-adv-x="1208" 
d="M567.5 989q-134.5 0 -202.5 -125.5t-68 -337.5q0 -115 39 -213l438 623q-72 53 -206.5 53zM600 129q178 0 244.5 127.5t66.5 335.5q0 115 -43 217l-438 -627q72 -53 170 -53zM588 1145q176 0 289 -66l86 121q82 -27 120 -88l-92 -131q135 -164 135 -420t-134.5 -422
t-373.5 -166q-178 0 -290 68l-88 -121q-33 10 -69 36t-52 52l94 131q-131 158 -131 414t132 424t374 168z" />
    <glyph glyph-name="racute.smcp" horiz-adv-x="1120" 
d="M571 608q117 0 166 52t49 126t-49 124t-162 51h-188v-357q140 4 184 4zM276 -8q-60 0 -104 8v1108l10 10q217 6 410 6q192 0 304 -84t112 -249q0 -106 -68 -187t-170 -106q88 -31 137 -142l76 -172q35 -82 84 -131q-49 -68 -143 -67q-53 0 -81 26t-55 84l-100 228
q-29 61 -66 88q-38 27 -110 26h-125v-438q-51 -8 -111 -8zM401 1296l295 326q47 -16 90 -55t60 -84l-350 -273q-29 8 -56 32t-39 54z" />
    <glyph glyph-name="rcaron.smcp" horiz-adv-x="1120" 
d="M571 608q117 0 166 52t49 126t-49 124t-162 51h-188v-357q140 4 184 4zM276 -8q-60 0 -104 8v1108l10 10q217 6 410 6q192 0 304 -84t112 -249q0 -106 -68 -187t-170 -106q88 -31 137 -142l76 -172q35 -82 84 -131q-49 -68 -143 -67q-53 0 -81 26t-55 84l-100 228
q-29 61 -66 88q-38 27 -110 26h-125v-438q-51 -8 -111 -8zM362 1597l191 -186l207 199q61 -20 98 -88l-219 -275q-72 -29 -178 -2l-201 258q34 69 102 94z" />
    <glyph glyph-name="rcommaaccent.smcp" horiz-adv-x="1120" 
d="M571 608q117 0 166 52t49 126t-49 124t-162 51h-188v-357q140 4 184 4zM276 -8q-60 0 -104 8v1108l10 10q217 6 410 6q192 0 304 -84t112 -249q0 -106 -68 -187t-170 -106q88 -31 137 -142l76 -172q35 -82 84 -131q-49 -68 -143 -67q-53 0 -81 26t-55 84l-100 228
q-29 61 -66 88q-38 27 -110 26h-125v-438q-51 -8 -111 -8zM702 -225q0 -102 -67 -186q-68 -83 -186 -128q-55 16 -70 90q123 80 123 197q0 57 -27 107q41 27 101 35t106 -9q20 -49 20 -106z" />
    <glyph glyph-name="germandbls.smcp" horiz-adv-x="2027" 
d="M313 840q0 -53 33 -78t111 -53l205 -72q132 -47 210 -127t78 -197q0 -158 -123 -249t-325 -91q-257 0 -445 119q0 43 25 91t59 71q190 -109 371 -109q88 0 148 41t61 107q0 102 -154 156l-209 71q-270 92 -270 293q0 147 114 239t312 91q198 0 389 -84q0 -106 -74 -164
q-166 72 -335 74q-82 0 -132 -38t-49 -91zM1327 840q0 -53 33 -78t110 -53l205 -72q131 -47 210 -127t79 -197q0 -156 -123 -248t-325 -92q-257 0 -445 119q0 43 25 91t59 71q190 -109 371 -109q88 0 148 41t61 107q0 102 -154 156l-209 71q-270 92 -270 293q0 147 113 239
q114 91 313 91t389 -84q0 -106 -74 -164q-166 72 -336 74q-82 0 -131 -38t-49 -91z" />
    <glyph glyph-name="germandbls.cap_smcp" horiz-adv-x="1167" 
d="M889 216q0 34 -15.5 54.5t-50.5 48.5l-69 56q-115 91 -115 167q0 77 47 133t123 85l2 33q0 86 -52 140t-151 54q-205 0 -205 -207v-780q-50 -8 -111.5 -8t-103.5 8v541l-157 -2q-11 37 -11 81.5t11 86.5l157 -2v100q0 168 114 254t301 86t304 -95t117 -247
q0 -61 -16 -121q-142 -36 -142 -117q0 -41 60 -88l63 -49q123 -95 123 -207t-92 -178t-230 -66t-237 46q2 35 20.5 79.5t42.5 69.5q76 -35 138 -35q63 0 99 22.5t36 56.5z" />
    <glyph glyph-name="ugrave.smcp" horiz-adv-x="1239" 
d="M977 1126q61 0 108 -10v-717q1 -205 -121 -315t-343 -111q-221 0 -345 111q-123 111 -122 315v715l10 12h82q66 0 94 -32t29 -107v-588q1 -254 251 -254t250 254v719q46 8 107 8zM489 1622l295 -326q-29 -68 -92 -86l-350 273q16 45 58 84t89 55z" />
    <glyph glyph-name="uacute.smcp" horiz-adv-x="1239" 
d="M977 1126q61 0 108 -10v-717q1 -205 -121 -315t-343 -111q-221 0 -345 111q-123 111 -122 315v715l10 12h82q66 0 94 -32t29 -107v-588q1 -254 251 -254t250 254v719q46 8 107 8zM459 1296l295 326q47 -16 90 -55t59 -84l-350 -273q-29 8 -55 32t-39 54z" />
    <glyph glyph-name="ucircumflex.smcp" horiz-adv-x="1239" 
d="M977 1126q61 0 108 -10v-717q1 -205 -121 -315t-343 -111q-221 0 -345 111q-123 111 -122 315v715l10 12h82q66 0 94 -32t29 -107v-588q1 -254 251 -254t250 254v719q46 8 107 8zM809 1227l-191 186l-204 -196q-63 25 -99 88l217 272q78 27 179 2l200 -258
q-30 -67 -102 -94z" />
    <glyph glyph-name="udieresis.smcp" horiz-adv-x="1239" 
d="M977 1126q61 0 108 -10v-717q1 -205 -121 -315t-343 -111q-221 0 -345 111q-123 111 -122 315v715l10 12h82q66 0 94 -32t29 -107v-588q1 -254 251 -254t250 254v719q46 8 107 8zM427 1468q58 0 84 -20t26 -86t-26 -85t-90 -19t-97 24q-17 27 -17 88q0 60 31 79t89 19z
M688 1370q0 58 25 78t87 20t90 -16t28 -87t-24 -89t-87 -18t-102 24q-17 30 -17 88z" />
    <glyph glyph-name="yacute.smcp" horiz-adv-x="909" 
d="M786 1126q49 0 103 -12l8 -14l-334 -762v-338q-47 -8 -109 -8t-104 8v342l-334 758q70 33 129 33q82 0 117 -86l129 -304q47 -121 70 -211h10q51 169 76 228l151 356q39 10 88 10zM305 1296l295 326q47 -16 90 -55t60 -84l-351 -273q-29 8 -55 32t-39 54z" />
    <glyph glyph-name="ydieresis.smcp" horiz-adv-x="909" 
d="M786 1126q49 0 103 -12l8 -14l-334 -762v-338q-47 -8 -109 -8t-104 8v342l-334 758q70 33 129 33q82 0 117 -86l129 -304q47 -121 70 -211h10q51 169 76 228l151 356q39 10 88 10zM275 1468q58 0 84 -20t26 -86t-26 -85t-90 -19t-97 24q-16 26 -16 87t30 80q31 19 89 19z
M537 1369q0 59 24 79q25 20 87 20t90 -16t28 -87t-24 -89t-87 -18t-102 24q-16 28 -16 87z" />
    <glyph glyph-name="eth.smcp" horiz-adv-x="1210" 
d="M664 554.5q0 -45.5 -9 -81.5h-258v-317l197 2q307 2 307 401t-307 399l-197 3v-316h258q9 -45 9 -90.5zM45 555q0 50 8 90h133v463l11 10q237 6 403 6t344 -84t178 -483q0 -254 -112 -408.5t-389 -154.5q-188 0 -424 6l-11 10v463h-133q-8 32 -8 82z" />
    <glyph glyph-name="thorn.smcp" horiz-adv-x="1052" 
d="M643 780h-127q-98 0 -129 2v-407l164 2q119 2 167 59.5t48 142.5t-47.5 143t-75.5 58zM274.5 1126q62.5 0 112.5 -8v-174l174 2q197 2 312.5 -92t115.5 -274.5t-115.5 -274.5t-312.5 -94h-174v-211q-50 -8 -111.5 -8t-103.5 8v1118q40 8 102.5 8z" />
    <glyph glyph-name="aogonek.smcp" horiz-adv-x="1114" 
d="M375 422l92 2h172q66 -2 80 -2l-68 194q-41 117 -98 324h-10q-51 -184 -84 -283zM133 -10q-59 0 -98 14l-8 12l407 1102q49 8 124 8t124 -8l405 -1108q-180 -106 -180 -221q0 -45 27 -67.5t49.5 -23.5t52 0t90.5 32q47 -39 48 -103q-82 -72 -199 -71.5t-177.5 51.5
t-60.5 139q0 139 150 258q-33 23 -49 80l-60 166l-100 -2h-254l-109 2l-88 -252q-35 -8 -94 -8z" />
    <glyph glyph-name="cacute.smcp" horiz-adv-x="1097" 
d="M586 971q-281 0 -281 -419q0 -200 81 -298t223 -98t306 123q33 -19 64 -61t41 -79q-188 -166 -455 -166q-222 0 -352 155q-131 155 -131 433q0 279 142 432q142 152 354 152t334 -106t121 -237q-1 -132 -124 -132q-31 0 -82 10q0 291 -241 291zM438 1296l295 326
q47 -16 90 -55t60 -84l-351 -273q-30 8 -56 32t-38 54z" />
    <glyph glyph-name="ccaron.smcp" horiz-adv-x="1097" 
d="M586 971q-281 0 -281 -419q0 -200 81 -298t223 -98t306 123q33 -19 64 -61t41 -79q-188 -166 -455 -166q-222 0 -352 155q-131 155 -131 433q0 279 142 432q142 152 354 152t334 -106t121 -237q-1 -132 -124 -132q-31 0 -82 10q0 291 -241 291zM399 1597l191 -186
l207 199q61 -20 98 -88l-219 -275q-72 -29 -178 -2l-201 258q34 69 102 94z" />
    <glyph glyph-name="dcaron.smcp" horiz-adv-x="1196" 
d="M887 557q0 393 -307 397l-193 2v-796l193 2q154 2 230 98t77 297zM588 1124q166 0 262 -46q258 -123 258 -521q0 -252 -103 -396q-121 -167 -399 -167q-188 0 -424 6l-10 10v1098l10 10q240 6 406 6zM377 1597l190 -186l207 199q61 -20 98 -88l-219 -275q-72 -29 -178 -2
l-201 258q35 69 103 94z" />
    <glyph glyph-name="ecaron.smcp" horiz-adv-x="1046" 
d="M506 176h452q0 -51 -4 -76q-18 -102 -133 -102h-524q-57 0 -91 35t-34 94v979l10 12h744q6 -31 6 -83t-17 -95h-532l2 -104v-185l117 2h321q11 -33 11 -86t-11 -88h-438v-215l-2 -92q74 4 123 4zM367 1597l190 -186l207 199q61 -20 98 -88l-219 -275q-72 -29 -178 -2
l-201 258q35 69 103 94z" />
    <glyph glyph-name="eogonek.smcp" horiz-adv-x="1046" 
d="M932 1032q0 -57 -17 -92h-532v-289l102 2h338q10 -37 10.5 -88t-10.5 -86h-438v-215l-2 -92q55 6 123 6h452q0 -78 -12 -110.5t-67 -61.5q-88 -35 -138.5 -95.5t-50.5 -111.5q0 -104 98 -104q51 0 121 35q47 -41 49 -103q-88 -71 -202 -71t-175 50t-61 142q0 141 146 250
h-369q-57 0 -91 35t-34 94v979l10 12h744q6 -29 6 -86z" />
    <glyph glyph-name="ncaron.smcp" horiz-adv-x="1271" 
d="M968 -8q-75 0 -118 8l-361 635q-27 41 -120 229l-7 -2q12 -246 13 -391v-471q-49 -8 -103 -8t-100 8v1114q51 12 126 12t122 -8l362 -637q14 -25 123 -241l10 2q-20 276 -20 399v360q0 70 27 98t92 27h76l10 -12v-1112q-57 -10 -132 -10zM446 1597l191 -186l207 199
q61 -20 98 -88l-219 -275q-72 -29 -178 -2l-201 258q34 69 102 94z" />
    <glyph glyph-name="sacute.smcp" horiz-adv-x="1013" 
d="M313 840q0 -53 33 -78t111 -53l205 -72q132 -47 210 -127t78 -197q0 -158 -123 -249t-325 -91q-257 0 -445 119q0 43 25 91t59 71q190 -109 371 -109q88 0 148 41t61 107q0 102 -154 156l-209 71q-270 92 -270 293q0 147 114 239t312 91q198 0 389 -84q0 -106 -74 -164
q-166 72 -335 74q-82 0 -132 -38t-49 -91zM348 1296l295 326q47 -16 90 -55t60 -84l-351 -273q-30 8 -56 32t-38 54z" />
    <glyph glyph-name="scaron.smcp" horiz-adv-x="1013" 
d="M313 840q0 -53 33 -78t111 -53l205 -72q132 -47 210 -127t78 -197q0 -158 -123 -249t-325 -91q-257 0 -445 119q0 43 25 91t59 71q190 -109 371 -109q88 0 148 41t61 107q0 102 -154 156l-209 71q-270 92 -270 293q0 147 114 239t312 91q198 0 389 -84q0 -106 -74 -164
q-166 72 -335 74q-82 0 -132 -38t-49 -91zM309 1597l191 -186l207 199q61 -20 98 -88l-219 -275q-72 -29 -178 -2l-201 258q34 69 102 94z" />
    <glyph glyph-name="tcaron.smcp" horiz-adv-x="897" 
d="M889 1034q0 -94 -115 -94h-108l-105 2l2 -123v-819q-39 -8 -107 -8t-110 8v819l2 123l-108 -2h-215q-8 41 -9 89q0 48 9 89h852q12 -37 12 -84zM262 1597l191 -186l206 199q61 -20 99 -88l-219 -275q-72 -29 -179 -2l-200 258q34 69 102 94z" />
    <glyph glyph-name="uring.smcp" horiz-adv-x="1239" 
d="M977 1126q61 0 108 -10v-717q1 -205 -121 -315t-343 -111q-221 0 -345 111q-123 111 -122 315v715l10 12h82q66 0 94 -32t29 -107v-588q1 -254 251 -254t250 254v719q46 8 107 8zM616 1557q-44 0 -73 -31t-29 -80t28 -81t74 -32t74 32q29 32 29 79t-29 80q-30 33 -74 33z
M439 1280q-70 68 -70 167t70 164q69 66 177 66q107 0 178 -66q70 -66 70 -165t-72 -167q-72 -67 -177 -67q-106 0 -176 68z" />
    <glyph glyph-name="zacute.smcp" horiz-adv-x="1028" 
d="M410 942h-279q-8 33 -8 77t14 99h766q31 -118 31 -148t-29 -65l-440 -565q-63 -76 -146 -166l5 -8q76 6 229 12l162 2q150 0 219 31q14 -53 14 -94q0 -117 -149 -117h-690q-25 100 -25 139t29 76l442 567q51 66 152 166l-7 6q-78 -12 -290 -12zM373 1296l295 326
q47 -16 90 -55t59 -84l-350 -273q-29 8 -55 32t-39 54z" />
    <glyph glyph-name="zdotaccent.smcp" horiz-adv-x="1028" 
d="M410 942h-279q-8 33 -8 77t14 99h766q31 -118 31 -148t-29 -65l-440 -565q-63 -76 -146 -166l5 -8q76 6 229 12l162 2q150 0 219 31q14 -53 14 -94q0 -117 -149 -117h-690q-25 100 -25 139t29 76l442 567q51 66 152 166l-7 6q-78 -12 -290 -12zM414 1311q-18 37 -18 105
t30 84q31 15 102 18q82 -2 105 -20t23 -95q0 -76 -24 -96q-22 -19 -102 -21t-116 25z" />
    <glyph glyph-name="zcaron.smcp" horiz-adv-x="1028" 
d="M410 942h-279q-8 33 -8 77t14 99h766q31 -118 31 -148t-29 -65l-440 -565q-63 -76 -146 -166l5 -8q76 6 229 12l162 2q150 0 219 31q14 -53 14 -94q0 -117 -149 -117h-690q-25 100 -25 139t29 76l442 567q51 66 152 166l-7 6q-78 -12 -290 -12zM334 1597l190 -186
l207 199q61 -20 98 -88l-219 -275q-72 -29 -178 -2l-201 258q35 69 103 94z" />
    <glyph glyph-name="dotaccent.alt" horiz-adv-x="815" 
d="M388 846q50 0 72.5 -4t40 -13.5t22.5 -35t5 -92.5t-31 -83t-79 -16q-79 0 -106 18t-27 95t14 104q39 27 89 27z" />
    </font>
</defs>
</svg>
